<svg width="27" height="28" viewBox="0 0 27 28" fill="none" xmlns="http://www.w3.org/2000/svg">
<path d="M7.5 0.177002C3.3585 0.177002 0 3.5355 0 7.677V19.677C0 23.8185 3.3585 27.177 7.5 27.177H19.5C23.6415 27.177 27 23.8185 27 19.677V7.677C27 3.5355 23.6415 0.177002 19.5 0.177002H7.5ZM22.5 3.177C23.328 3.177 24 3.849 24 4.677C24 5.505 23.328 6.177 22.5 6.177C21.672 6.177 21 5.505 21 4.677C21 3.849 21.672 3.177 22.5 3.177ZM13.5 6.177C17.6415 6.177 21 9.5355 21 13.677C21 17.8185 17.6415 21.177 13.5 21.177C9.3585 21.177 6 17.8185 6 13.677C6 9.5355 9.3585 6.177 13.5 6.177ZM13.5 9.177C12.3065 9.177 11.1619 9.65111 10.318 10.495C9.4741 11.3389 9 12.4835 9 13.677C9 14.8705 9.4741 16.0151 10.318 16.859C11.1619 17.7029 12.3065 18.177 13.5 18.177C14.6935 18.177 15.8381 17.7029 16.682 16.859C17.5259 16.0151 18 14.8705 18 13.677C18 12.4835 17.5259 11.3389 16.682 10.495C15.8381 9.65111 14.6935 9.177 13.5 9.177Z" fill="#D9D9D9"/>
</svg>
