<svg width="27" height="28" viewBox="0 0 27 28" fill="none" xmlns="http://www.w3.org/2000/svg">
<path d="M24 0.177002H3C1.3425 0.177002 0 1.5195 0 3.177V24.177C0 25.8345 1.3425 27.177 3 27.177H24C25.6575 27.177 27 25.8345 27 24.177V3.177C27 1.5195 25.6575 0.177002 24 0.177002ZM7.107 21.177C6.0615 21.177 5.214 20.3295 5.214 19.284V12.5685C5.2155 11.5245 6.063 10.677 7.107 10.677C8.1525 10.677 9 11.5245 9 12.57V19.2855C9 20.3295 8.1525 21.177 7.107 21.177ZM7.041 8.7525C5.8845 8.7525 5.112 7.9815 5.112 6.9525C5.112 5.9235 5.883 5.1525 7.1685 5.1525C8.325 5.1525 9.0975 5.9235 9.0975 6.9525C9.0975 7.9815 8.3265 8.7525 7.041 8.7525ZM20.6685 21.177C19.6575 21.177 18.837 20.3565 18.837 19.3455V15.438C18.837 13.851 17.8605 13.677 17.4945 13.677C17.1285 13.677 15.9075 13.7295 15.9075 15.438V19.3455C15.9075 20.3565 15.087 21.177 14.076 21.177H13.9545C12.9435 21.177 12.123 20.3565 12.123 19.3455V12.57C12.123 11.5245 12.9705 10.677 14.016 10.677C15.0615 10.677 15.909 11.5245 15.909 12.57C15.909 12.57 16.332 10.677 19.206 10.677C21.0345 10.677 22.5 12.1425 22.5 15.438V19.3455C22.5 20.3565 21.6795 21.177 20.6685 21.177Z" fill="#D9D9D9"/>
</svg>
