<svg width="27" height="28" viewBox="0 0 27 28" fill="none" xmlns="http://www.w3.org/2000/svg">
<path d="M10.5795 7.659L19.026 19.695H16.7805L8.349 7.659H10.5795ZM27 6.177V21.177C27 24.4905 24.3135 27.177 21 27.177H6C2.6865 27.177 0 24.4905 0 21.177V6.177C0 2.8635 2.6865 0.177002 6 0.177002H21C24.3135 0.177002 27 2.8635 27 6.177ZM21.807 21.177L15.528 12.192L20.661 6.177H18.6945L14.6385 10.917L11.328 6.177H5.553L11.4645 14.6265L5.859 21.177H7.8585L12.36 15.903L16.047 21.177H21.807Z" fill="#D9D9D9"/>
</svg>
