<svg width="12" height="75" viewBox="0 0 12 75" fill="none" xmlns="http://www.w3.org/2000/svg">
<path d="M6 75L8.88675 70L3.11325 70L6 75ZM5.5 -2.18557e-08L5.5 3.75L6.5 3.75L6.5 2.18557e-08L5.5 -2.18557e-08ZM5.5 11.25L5.5 18.75L6.5 18.75L6.5 11.25L5.5 11.25ZM5.5 26.25L5.5 33.75L6.5 33.75L6.5 26.25L5.5 26.25ZM5.5 41.25L5.5 48.75L6.5 48.75L6.5 41.25L5.5 41.25ZM5.5 56.25L5.5 63.75L6.5 63.75L6.5 56.25L5.5 56.25ZM6 75L11.7735 65L0.226494 65L6 75ZM5 -4.37114e-08L5 3.75L7 3.75L7 4.37114e-08L5 -4.37114e-08ZM5 11.25L5 18.75L7 18.75L7 11.25L5 11.25ZM5 26.25L5 33.75L7 33.75L7 26.25L5 26.25ZM5 41.25L5 48.75L7 48.75L7 41.25L5 41.25ZM5 56.25L5 63.75L7 63.75L7 56.25L5 56.25Z" fill="#A38C77"/>
</svg>
