<svg width="74" height="101" viewBox="0 0 74 101" fill="none" xmlns="http://www.w3.org/2000/svg">
<path d="M71.8827 11.0264C71.7418 10.1023 70.9473 9.41988 70.0129 9.41988H62.5598V2.17313C62.5598 1.12835 61.7127 0.28125 60.668 0.28125H13.3318C12.287 0.28125 11.4403 1.12835 11.4403 2.17313V9.41988H3.98691C3.05215 9.41988 2.25799 10.1023 2.1167 11.0264L0.257477 23.2152C0.17428 23.7604 0.333455 24.3149 0.692716 24.7333C1.05198 25.1517 1.57626 25.3924 2.1277 25.3924H5.24759L6.77265 41.9222C6.54781 42.0267 6.34257 42.1738 6.17136 42.3612C5.81313 42.7545 5.63677 43.2801 5.68558 43.8096L9.00591 79.8412C9.08086 80.6536 9.66255 81.3051 10.4209 81.499L11.9938 98.563C12.0835 99.5366 12.9 100.281 13.8774 100.281H60.122C61.0998 100.281 61.9163 99.5366 62.006 98.5633L63.5806 81.4983C64.3379 81.3044 64.9193 80.6529 64.9939 79.8412L68.3149 43.8099C68.3637 43.2801 68.1873 42.7545 67.8288 42.3612C67.6576 42.1738 67.452 42.026 67.2268 41.9215L68.7525 25.3924H71.8724C72.4242 25.3924 72.9482 25.1517 73.3074 24.7333C73.667 24.3149 73.8258 23.7604 73.7426 23.2152L71.8827 11.0264ZM15.224 4.06501H58.7764V9.41988H15.224V4.06501ZM58.3972 96.4975H15.6032L14.226 81.5595H59.7751L58.3972 96.4975ZM61.3848 77.7757H12.6154L9.6433 45.5278H64.3568L61.3848 77.7757ZM63.4437 41.7441H10.5561L9.04751 25.3924H64.953L63.4437 41.7441ZM67.0274 21.6086H6.97308H4.33002L5.61201 13.2036H13.3315H60.6676H68.3874L69.6698 21.6086H67.0274Z" fill="#645443"/>
</svg>
