<svg width="212" height="201" viewBox="0 0 212 201" fill="none" xmlns="http://www.w3.org/2000/svg">
<path d="M77.4256 76.2489C77.0625 74.6731 76.1758 73.2669 74.9104 72.26C73.645 71.2531 72.0756 70.7049 70.4584 70.7051H18.4646C16.5685 70.7051 14.7501 71.4583 13.4094 72.799C12.0686 74.1397 11.3154 75.9582 11.3154 77.8542V193.424C11.3154 195.32 12.0686 197.138 13.4094 198.479C14.7501 199.819 16.5685 200.573 18.4646 200.573H183.545C185.441 200.573 187.259 199.819 188.6 198.479C189.941 197.138 190.694 195.32 190.694 193.424V96.3445C190.694 94.4485 189.941 92.6301 188.6 91.2893C187.259 89.9486 185.441 89.1954 183.545 89.1954H93.6932C89.9169 89.196 86.252 87.916 83.2973 85.5645C80.3426 83.213 78.2726 79.929 77.4256 76.2489Z" fill="#433839"/>
<path opacity="0.6" d="M77.4256 76.2489C77.0625 74.6731 76.1758 73.2669 74.9104 72.26C73.645 71.2531 72.0756 70.7049 70.4584 70.7051H18.4646C16.5685 70.7051 14.7501 71.4583 13.4094 72.799C12.0686 74.1397 11.3154 75.9582 11.3154 77.8542V193.424C11.3154 195.32 12.0686 197.138 13.4094 198.479C14.7501 199.819 16.5685 200.573 18.4646 200.573H183.545C185.441 200.573 187.259 199.819 188.6 198.479C189.941 197.138 190.694 195.32 190.694 193.424V96.3445C190.694 94.4485 189.941 92.6301 188.6 91.2893C187.259 89.9486 185.441 89.1954 183.545 89.1954H93.6932C89.9169 89.196 86.252 87.916 83.2973 85.5645C80.3426 83.213 78.2726 79.929 77.4256 76.2489Z" fill="black"/>
<path opacity="0.22" d="M59.0718 40.2559L63.7057 55.2626C64.2973 57.1725 65.6227 58.7696 67.3909 59.703C69.159 60.6364 71.2254 60.8299 73.1361 60.241L88.1363 55.607L59.0718 40.2559Z" fill="#433839"/>
<path d="M59.0717 40.2559L5.4531 56.8224C4.50656 57.1132 3.62665 57.5877 2.86369 58.2189C2.10074 58.8501 1.46972 59.6255 1.00672 60.5008C0.543729 61.3761 0.257848 62.334 0.165441 63.3199C0.0730343 64.3058 0.175912 65.3002 0.468189 66.2463L31.0796 165.347C31.3717 166.293 31.8474 167.172 32.4795 167.934C33.1116 168.697 33.8877 169.327 34.7634 169.789C35.6392 170.252 36.5974 170.537 37.5834 170.629C38.5694 170.721 39.5639 170.617 40.5099 170.325L109.135 149.124C110.081 148.833 110.96 148.358 111.723 147.726C112.485 147.095 113.115 146.32 113.578 145.444C114.04 144.569 114.325 143.611 114.417 142.626C114.509 141.64 114.406 140.646 114.114 139.701L88.1168 55.607L59.0717 40.2559Z" fill="#433839"/>
<path opacity="0.8" d="M59.0717 40.2559L5.4531 56.8224C4.50656 57.1132 3.62665 57.5877 2.86369 58.2189C2.10074 58.8501 1.46972 59.6255 1.00672 60.5008C0.543729 61.3761 0.257848 62.334 0.165441 63.3199C0.0730343 64.3058 0.175912 65.3002 0.468189 66.2463L31.0796 165.347C31.3717 166.293 31.8474 167.172 32.4795 167.934C33.1116 168.697 33.8877 169.327 34.7634 169.789C35.6392 170.252 36.5974 170.537 37.5834 170.629C38.5694 170.721 39.5639 170.617 40.5099 170.325L109.135 149.124C110.081 148.833 110.96 148.358 111.723 147.726C112.485 147.095 113.115 146.32 113.578 145.444C114.04 144.569 114.325 143.611 114.417 142.626C114.509 141.64 114.406 140.646 114.114 139.701L88.1168 55.607L59.0717 40.2559Z" fill="white"/>
<g opacity="0.28">
<path d="M87.922 144.797L43.3113 158.575C42.477 158.831 41.5752 158.747 40.803 158.34C40.0309 157.933 39.4512 157.237 39.1907 156.404C38.9368 155.57 39.0232 154.669 39.4311 153.898C39.839 153.127 40.5353 152.549 41.368 152.29L85.9787 138.505C86.8138 138.249 87.7164 138.335 88.4887 138.743C89.261 139.151 89.8401 139.848 90.0992 140.683C90.3532 141.517 90.2668 142.418 89.8589 143.188C89.451 143.959 88.7546 144.537 87.922 144.797Z" fill="#433839"/>
</g>
<g opacity="0.28">
<path d="M39.912 63.9316L16.3198 71.2172C15.4855 71.4717 14.5845 71.3863 13.8128 70.9798C13.0411 70.5733 12.4612 69.8784 12.1993 69.0464C11.9451 68.2113 12.0313 67.3096 12.4391 66.5377C12.847 65.7659 13.5433 65.1865 14.3765 64.9259L37.9687 57.6403C38.803 57.3823 39.7056 57.466 40.4782 57.873C41.2508 58.28 41.8302 58.9771 42.0892 59.8111C42.3434 60.6462 42.2572 61.5479 41.8493 62.3198C41.4415 63.0916 40.7451 63.671 39.912 63.9316Z" fill="#433839"/>
</g>
<g opacity="0.28">
<path d="M59.1628 71.6604L20.1675 83.7035C19.3349 83.9535 18.4374 83.8652 17.6696 83.4575C16.9018 83.0499 16.3257 82.3559 16.0665 81.5262C15.8104 80.6928 15.8951 79.7919 16.302 79.0208C16.7088 78.2497 17.4047 77.6713 18.2372 77.4122L57.2326 65.3691C58.0668 65.1129 58.9686 65.1974 59.7408 65.6042C60.5129 66.011 61.0926 66.7069 61.3531 67.5399C61.6049 68.3767 61.5161 69.2792 61.1059 70.0509C60.6957 70.8226 59.9974 71.401 59.1628 71.6604Z" fill="#433839"/>
</g>
<g opacity="0.28">
<path d="M80.9349 78.6078L24.0277 96.1557C23.1943 96.4118 22.2934 96.3271 21.5223 95.9202C20.7512 95.5134 20.1727 94.8175 19.9137 93.985C19.6592 93.1507 19.7446 92.2497 20.1511 91.478C20.5576 90.7063 21.2525 90.1264 22.0844 89.8645L78.9917 72.3166C79.8251 72.0623 80.7252 72.1478 81.4959 72.5544C82.2665 72.961 82.8452 73.6558 83.1057 74.4873C83.3619 75.3216 83.2774 76.2234 82.8707 76.9955C82.4639 77.7677 81.7679 78.3473 80.9349 78.6078Z" fill="#433839"/>
</g>
<g opacity="0.28">
<path d="M84.789 91.0863L51.7079 101.31C50.8736 101.564 49.9728 101.477 49.202 101.069C48.4312 100.661 47.8531 99.965 47.5939 99.1324C47.3396 98.299 47.4251 97.3988 47.8318 96.6282C48.2384 95.8576 48.9332 95.2789 49.7646 95.0184L82.8457 84.7951C83.6809 84.5427 84.5818 84.6297 85.3532 85.0373C86.1246 85.4449 86.7042 86.1402 86.9662 86.9723C87.2202 87.8066 87.1338 88.7075 86.7259 89.4783C86.318 90.2491 85.6217 90.8272 84.789 91.0863Z" fill="#433839"/>
</g>
<g opacity="0.28">
<path d="M36.539 105.996L27.8885 108.667C27.0542 108.923 26.1524 108.839 25.3803 108.432C24.6081 108.025 24.0285 107.329 23.768 106.496C23.512 105.661 23.5974 104.758 24.0055 103.986C24.4136 103.214 25.1111 102.635 25.9452 102.376L34.5957 99.7045C35.43 99.45 36.331 99.5353 37.1027 99.9419C37.8744 100.348 38.4543 101.043 38.7162 101.875C38.9686 102.71 38.8816 103.611 38.474 104.383C38.0664 105.154 37.3711 105.734 36.539 105.996Z" fill="#433839"/>
</g>
<g opacity="0.28">
<path d="M88.65 103.572L31.7427 121.152C30.9084 121.406 30.0076 121.32 29.2368 120.912C28.466 120.504 27.8879 119.808 27.6287 118.975C27.3727 118.141 27.4573 117.241 27.8642 116.469C28.2711 115.698 28.967 115.12 29.7994 114.861L86.7067 97.2804C87.5401 97.0262 88.4403 97.1117 89.2109 97.5183C89.9815 97.9249 90.5602 98.6197 90.8207 99.4512C91.077 100.285 90.9924 101.187 90.5857 101.959C90.1789 102.732 89.4829 103.311 88.65 103.572Z" fill="#433839"/>
</g>
<g opacity="0.28">
<path d="M70.5432 122.836L35.5968 133.631C34.7634 133.885 33.8632 133.8 33.0926 133.393C32.322 132.987 31.7433 132.292 31.4828 131.46C31.2283 130.626 31.3136 129.725 31.7202 128.953C32.1267 128.182 32.8216 127.602 33.6535 127.34L68.5999 116.545C69.435 116.291 70.3368 116.377 71.1086 116.785C71.8805 117.192 72.4598 117.889 72.7204 118.722C72.9762 119.556 72.8906 120.458 72.4824 121.229C72.0742 122 71.3768 122.578 70.5432 122.836Z" fill="#433839"/>
</g>
<g opacity="0.28">
<path d="M92.5039 116.056L83.1775 118.935C82.3423 119.189 81.4406 119.103 80.6687 118.695C79.8969 118.287 79.3175 117.591 79.057 116.758C78.803 115.923 78.8894 115.022 79.2973 114.252C79.7052 113.481 80.4015 112.903 81.2342 112.644L90.5606 109.764C91.394 109.508 92.2949 109.593 93.066 110C93.8371 110.407 94.4156 111.103 94.6746 111.935C94.9308 112.769 94.8463 113.671 94.4396 114.443C94.0328 115.216 93.3368 115.795 92.5039 116.056Z" fill="#433839"/>
</g>
<g opacity="0.28">
<path d="M96.3575 128.549L39.4633 146.096C38.6281 146.352 37.7256 146.267 36.9533 145.859C36.181 145.451 35.6019 144.753 35.3427 143.919C35.087 143.085 35.1725 142.183 35.5807 141.412C35.9889 140.641 36.6863 140.063 37.52 139.805L94.4207 122.225C95.2559 121.972 96.1568 122.059 96.9282 122.467C97.6996 122.875 98.2792 123.57 98.5412 124.402C98.6718 124.818 98.7188 125.255 98.6796 125.689C98.6403 126.123 98.5156 126.544 98.3126 126.93C98.1096 127.315 97.8324 127.657 97.4968 127.935C97.1613 128.212 96.7741 128.421 96.3575 128.549Z" fill="#433839"/>
</g>
<path d="M97.5796 2.98876L114.595 40.9053C115.036 41.895 115.068 43.0194 114.683 44.0327C114.299 45.0459 113.528 45.8656 112.541 46.3126L40.3604 78.7113C39.3708 79.1548 38.2458 79.1876 37.232 78.8026C36.2183 78.4176 35.3987 77.6461 34.953 76.6575L17.9316 38.741C17.486 37.7508 17.4521 36.6241 17.8373 35.6088C18.2224 34.5935 18.9951 33.7728 19.9853 33.3272L92.1658 0.928509C93.1573 0.486947 94.2833 0.455782 95.2977 0.841825C96.3121 1.22787 97.1325 1.99973 97.5796 2.98876Z" fill="#433839"/>
<path opacity="0.3" d="M97.5796 2.98876L114.595 40.9053C115.036 41.895 115.068 43.0194 114.683 44.0327C114.299 45.0459 113.528 45.8656 112.541 46.3126L40.3604 78.7113C39.3708 79.1548 38.2458 79.1876 37.232 78.8026C36.2183 78.4176 35.3987 77.6461 34.953 76.6575L17.9316 38.741C17.486 37.7508 17.4521 36.6241 17.8373 35.6088C18.2224 34.5935 18.9951 33.7728 19.9853 33.3272L92.1658 0.928509C93.1573 0.486947 94.2833 0.455782 95.2977 0.841825C96.3121 1.22787 97.1325 1.99973 97.5796 2.98876Z" fill="black"/>
<path d="M86.2037 1.11563L83.897 2.15039L84.163 2.74338L86.4697 1.70863L86.2037 1.11563Z" fill="#433839"/>
<path d="M80.6666 3.59661L73.4736 6.82324L73.7396 7.41624L80.9327 4.1896L80.6666 3.59661Z" fill="#433839"/>
<path d="M17.8676 42.5629L17.2747 42.8291L19.2446 47.2166L19.8375 46.9504L17.8676 42.5629Z" fill="#433839"/>
<path opacity="0.6" d="M95.1619 0.792477L76.5481 37.2532C74.8209 40.6326 71.9923 43.3215 68.5299 44.8755C65.0674 46.4295 61.1783 46.7555 57.5054 45.7996L17.8926 35.4724C18.2989 34.5219 19.0451 33.7572 19.9853 33.3276L92.1658 0.928961C93.1113 0.506156 94.1819 0.457387 95.1619 0.792477Z" fill="#433839"/>
<path d="M120.749 47.457L64.739 50.9146C63.7495 50.9734 62.7813 51.2268 61.8898 51.6602C60.9983 52.0937 60.2011 52.6987 59.5437 53.4406C58.8863 54.1825 58.3816 55.0468 58.0587 55.9839C57.7357 56.9211 57.6007 57.9128 57.6614 58.9022L64.0501 162.422C64.1097 163.412 64.3641 164.381 64.7987 165.272C65.2333 166.164 65.8396 166.961 66.5829 167.618C67.3261 168.275 68.1916 168.779 69.1299 169.1C70.0682 169.422 71.0607 169.556 72.0507 169.493L143.737 165.067C144.726 165.007 145.693 164.753 146.583 164.319C147.473 163.886 148.268 163.28 148.924 162.538C149.58 161.796 150.082 160.932 150.404 159.995C150.725 159.059 150.858 158.068 150.795 157.08L145.401 69.2294L120.749 47.457Z" fill="#433839"/>
<path opacity="0.8" d="M120.749 47.457L64.739 50.9146C63.7495 50.9734 62.7813 51.2268 61.8898 51.6602C60.9983 52.0937 60.2011 52.6987 59.5437 53.4406C58.8863 54.1825 58.3816 55.0468 58.0587 55.9839C57.7357 56.9211 57.6007 57.9128 57.6614 58.9022L64.0501 162.422C64.1097 163.412 64.3641 164.381 64.7987 165.272C65.2333 166.164 65.8396 166.961 66.5829 167.618C67.3261 168.275 68.1916 168.779 69.1299 169.1C70.0682 169.422 71.0607 169.556 72.0507 169.493L143.737 165.067C144.726 165.007 145.693 164.753 146.583 164.319C147.473 163.886 148.268 163.28 148.924 162.538C149.58 161.796 150.082 160.932 150.404 159.995C150.725 159.059 150.858 158.068 150.795 157.08L145.401 69.2294L120.749 47.457Z" fill="white"/>
<g opacity="0.22">
<path d="M124.136 155.844L77.5295 158.723C76.6589 158.773 75.8039 158.476 75.1512 157.898C74.4985 157.32 74.1012 156.506 74.046 155.636C73.996 154.766 74.2916 153.911 74.8685 153.258C75.4454 152.604 76.2568 152.205 77.1266 152.146L123.733 149.273C124.603 149.222 125.459 149.517 126.113 150.094C126.767 150.671 127.166 151.484 127.223 152.354C127.274 153.226 126.978 154.082 126.4 154.737C125.821 155.391 125.007 155.789 124.136 155.844Z" fill="#433839"/>
</g>
<g opacity="0.22">
<path d="M96.5526 65.9469L71.901 67.4547C71.0307 67.5047 70.1759 67.2091 69.5224 66.6322C68.8689 66.0553 68.4694 65.2438 68.4109 64.3741C68.3611 63.5028 68.6575 62.647 69.2358 61.9933C69.814 61.3396 70.6272 60.9409 71.4981 60.884L96.1496 59.3632C97.0197 59.3116 97.8747 59.6068 98.5276 60.1842C99.1805 60.7615 99.578 61.574 99.6332 62.4438C99.6884 63.3167 99.3951 64.1758 98.8175 64.8326C98.2399 65.4894 97.4254 65.8901 96.5526 65.9469Z" fill="#433839"/>
</g>
<g opacity="0.22">
<path d="M113.438 77.9978L72.7073 80.5065C71.8362 80.5599 70.9795 80.2655 70.3252 79.688C69.6708 79.1104 69.2724 78.2969 69.2172 77.4259C69.1656 76.5541 69.4615 75.6974 70.0401 75.0433C70.6186 74.3892 71.4328 73.991 72.3043 73.9358L113.029 71.4271C113.9 71.3737 114.756 71.6681 115.411 72.2456C116.065 72.8232 116.463 73.6367 116.519 74.5077C116.57 75.3784 116.275 76.2342 115.698 76.8881C115.121 77.542 114.308 77.9409 113.438 77.9978Z" fill="#433839"/>
</g>
<g opacity="0.22">
<path d="M132.955 89.8844L73.513 93.5499C72.6395 93.6034 71.7804 93.3085 71.1239 92.7299C70.4673 92.1513 70.0668 91.3361 70.0099 90.4628C69.9583 89.5928 70.2535 88.7377 70.8309 88.0849C71.4083 87.432 72.2208 87.0344 73.0906 86.9792L132.539 83.3072C133.41 83.2573 134.265 83.554 134.917 84.1324C135.57 84.7108 135.967 85.524 136.023 86.3943C136.074 87.2629 135.781 88.1168 135.207 88.7703C134.632 89.4239 133.823 89.8242 132.955 89.8844Z" fill="#433839"/>
</g>
<g opacity="0.22">
<path d="M133.761 102.922L99.2045 105.053C98.3338 105.105 97.4781 104.81 96.8241 104.233C96.1702 103.656 95.7713 102.843 95.7144 101.973C95.661 101.102 95.9554 100.245 96.533 99.5906C97.1105 98.9363 97.9241 98.5378 98.7951 98.4826L133.351 96.3509C134.223 96.2975 135.079 96.5919 135.734 97.1694C136.388 97.747 136.786 98.5605 136.842 99.4315C136.893 100.302 136.598 101.158 136.021 101.812C135.444 102.466 134.631 102.865 133.761 102.922Z" fill="#433839"/>
</g>
<g opacity="0.22">
<path d="M83.3528 106.028L74.3124 106.587C73.4424 106.639 72.5873 106.344 71.9344 105.766C71.2816 105.189 70.884 104.376 70.8288 103.507C70.7771 102.636 71.0721 101.78 71.6494 101.126C72.2266 100.472 73.0391 100.073 73.9094 100.017L82.9499 99.4576C83.8212 99.4077 84.6769 99.7042 85.3306 100.282C85.9844 100.861 86.3831 101.674 86.4399 102.545C86.4898 103.415 86.1931 104.27 85.6147 104.923C85.0363 105.576 84.2231 105.973 83.3528 106.028Z" fill="#433839"/>
</g>
<g opacity="0.22">
<path d="M134.567 115.959L75.1183 119.625C74.2476 119.677 73.3918 119.382 72.7379 118.804C72.084 118.227 71.6851 117.415 71.6282 116.544C71.5783 115.673 71.8748 114.817 72.4531 114.163C73.0313 113.51 73.8444 113.111 74.7153 113.054L134.157 109.389C135.029 109.337 135.886 109.633 136.54 110.211C137.194 110.79 137.592 111.604 137.647 112.476C137.699 113.346 137.404 114.201 136.826 114.854C136.249 115.507 135.437 115.904 134.567 115.959Z" fill="#433839"/>
</g>
<g opacity="0.22">
<path d="M112.431 130.413L75.9244 132.668C75.0531 132.718 74.1974 132.422 73.5437 131.843C72.8899 131.265 72.4912 130.452 72.4344 129.581C72.3845 128.71 72.6812 127.855 73.2596 127.203C73.838 126.55 74.6511 126.153 75.5215 126.098L112.028 123.842C112.898 123.792 113.753 124.089 114.406 124.668C115.059 125.246 115.456 126.059 115.511 126.929C115.565 127.8 115.27 128.656 114.692 129.309C114.115 129.962 113.301 130.36 112.431 130.413Z" fill="#433839"/>
</g>
<g opacity="0.22">
<path d="M135.366 129.003L125.617 129.601C124.747 129.652 123.892 129.357 123.239 128.78C122.587 128.202 122.189 127.39 122.134 126.52C122.08 125.649 122.375 124.792 122.952 124.138C123.53 123.484 124.343 123.085 125.214 123.03L134.963 122.432C135.834 122.379 136.691 122.673 137.345 123.251C138 123.828 138.398 124.642 138.453 125.513C138.503 126.384 138.207 127.24 137.629 127.893C137.05 128.547 136.237 128.946 135.366 129.003Z" fill="#433839"/>
</g>
<g opacity="0.22">
<path d="M136.172 142.04L76.7303 145.706C75.8596 145.758 75.0038 145.463 74.3499 144.885C73.696 144.308 73.297 143.496 73.2402 142.625C73.1885 141.755 73.4835 140.899 74.0607 140.245C74.6379 139.591 75.4504 139.192 76.3208 139.135L135.769 135.47C136.639 135.418 137.494 135.713 138.147 136.291C138.8 136.868 139.198 137.68 139.253 138.55C139.306 139.421 139.012 140.278 138.434 140.932C137.857 141.587 137.043 141.985 136.172 142.04Z" fill="#433839"/>
</g>
<path opacity="0.22" d="M120.75 47.457L121.718 63.1332C121.778 64.1216 122.033 65.0884 122.467 65.9784C122.901 66.8683 123.506 67.6641 124.248 68.3201C124.99 68.9762 125.854 69.4797 126.79 69.8018C127.726 70.124 128.717 70.2586 129.705 70.1978L145.401 69.2294L120.75 47.457Z" fill="#433839"/>
<path opacity="0.5" d="M102.409 86.5631C102.399 85.8119 102.239 85.0703 101.937 84.382C101.636 83.6938 101.2 83.0729 100.655 82.5561C100.109 82.0393 99.4659 81.637 98.7625 81.3731C98.0591 81.1091 97.31 80.9888 96.5593 81.0193H44.5005C40.5555 81.0193 36.7014 84.2234 35.9605 88.1684L15.4164 193.423C14.6495 197.368 17.2232 200.573 21.1683 200.573H186.249C190.194 200.573 194.015 197.375 194.789 193.423L211.732 106.659C212.499 102.707 209.925 99.5096 205.98 99.5096H116.154C108.355 99.5096 102.675 94.1412 102.409 86.5631Z" fill="#433839"/>
</svg>
