<svg width="130" height="201" viewBox="0 0 130 201" fill="none" xmlns="http://www.w3.org/2000/svg">
<path d="M11.1682 5.94739C11.1682 4.52363 10.5799 3.15819 9.53267 2.15144C8.48545 1.14469 7.06511 0.579102 5.58411 0.579102C4.10311 0.579102 2.68277 1.14469 1.63555 2.15144C0.588324 3.15819 0 4.52363 0 5.94739H11.1682Z" fill="#433839"/>
<path d="M124.415 200.572H16.752C15.271 200.572 13.8506 200.006 12.8034 199C11.7562 197.993 11.1678 196.628 11.1678 195.204V5.94745C11.1688 5.2419 11.0251 4.54308 10.7448 3.89098C10.4646 3.23887 10.0535 2.64626 9.53483 2.14704C9.01621 1.64782 8.4003 1.25177 7.72234 0.98156C7.04438 0.711347 6.31766 0.572265 5.58374 0.572266H113.246C113.98 0.572265 114.707 0.711347 115.385 0.98156C116.063 1.25177 116.679 1.64782 117.198 2.14704C117.716 2.64626 118.127 3.23887 118.408 3.89098C118.688 4.54308 118.832 5.2419 118.831 5.94745V195.204C118.831 196.628 119.419 197.993 120.466 199C121.513 200.006 122.934 200.572 124.415 200.572Z" fill="#433839"/>
<path opacity="0.7" d="M124.415 200.572H16.752C15.271 200.572 13.8506 200.006 12.8034 199C11.7562 197.993 11.1678 196.628 11.1678 195.204V5.94745C11.1688 5.2419 11.0251 4.54308 10.7448 3.89098C10.4646 3.23887 10.0535 2.64626 9.53483 2.14704C9.01621 1.64782 8.4003 1.25177 7.72234 0.98156C7.04438 0.711347 6.31766 0.572265 5.58374 0.572266H113.246C113.98 0.572265 114.707 0.711347 115.385 0.98156C116.063 1.25177 116.679 1.64782 117.198 2.14704C117.716 2.64626 118.127 3.23887 118.408 3.89098C118.688 4.54308 118.832 5.2419 118.831 5.94745V195.204C118.831 196.628 119.419 197.993 120.466 199C121.513 200.006 122.934 200.572 124.415 200.572Z" fill="white"/>
<path d="M16.7529 200.572C18.2339 200.572 19.6543 200.007 20.7015 199C21.7487 197.993 22.337 196.628 22.337 195.204H130C130 196.628 129.411 197.993 128.364 199C127.317 200.007 125.897 200.572 124.416 200.572H16.7529Z" fill="#433839"/>
<path d="M117.502 10.0391H12.3948V23.6875H117.502V10.0391Z" fill="#433839"/>
<path opacity="0.7" d="M42.1192 13.6759H15.2394C15.0643 13.6759 14.8963 13.609 14.7725 13.4899C14.6487 13.3709 14.5791 13.2094 14.5791 13.0411C14.5791 12.8727 14.6487 12.7112 14.7725 12.5922C14.8963 12.4731 15.0643 12.4062 15.2394 12.4062H42.1192C42.2944 12.4062 42.4623 12.4731 42.5861 12.5922C42.71 12.7112 42.7796 12.8727 42.7796 13.0411C42.7796 13.2094 42.71 13.3709 42.5861 13.4899C42.4623 13.609 42.2944 13.6759 42.1192 13.6759Z" fill="white"/>
<path opacity="0.7" d="M20.5867 16.2287H15.2394C15.0636 16.2269 14.8957 16.1584 14.7721 16.0383C14.6484 15.9181 14.5791 15.756 14.5791 15.587C14.5791 15.4186 14.6487 15.2571 14.7725 15.1381C14.8963 15.019 15.0643 14.9521 15.2394 14.9521H20.5867C20.7618 14.9521 20.9298 15.019 21.0536 15.1381C21.1774 15.2571 21.247 15.4186 21.247 15.587C21.247 15.756 21.1777 15.9181 21.054 16.0383C20.9304 16.1584 20.7625 16.2269 20.5867 16.2287Z" fill="white"/>
<path opacity="0.7" d="M113.891 21.3205H87.0116C86.8365 21.3205 86.6686 21.2536 86.5447 21.1345C86.4209 21.0155 86.3513 20.854 86.3513 20.6857C86.3513 20.5166 86.4206 20.3545 86.5443 20.2343C86.6679 20.1142 86.8359 20.0458 87.0116 20.0439H113.891C114.067 20.0458 114.235 20.1142 114.359 20.2343C114.482 20.3545 114.552 20.5166 114.552 20.6857C114.552 20.769 114.535 20.8516 114.502 20.9286C114.468 21.0056 114.42 21.0756 114.358 21.1345C114.297 21.1935 114.224 21.2402 114.144 21.2721C114.064 21.304 113.978 21.3205 113.891 21.3205Z" fill="white"/>
<path opacity="0.2" d="M42.8358 141.328H15.956C15.7809 141.328 15.6129 141.261 15.4891 141.142C15.3652 141.023 15.2957 140.862 15.2957 140.693C15.2957 140.61 15.3127 140.527 15.3459 140.45C15.3791 140.373 15.4277 140.303 15.4891 140.245C15.5504 140.186 15.6232 140.139 15.7033 140.107C15.7834 140.075 15.8693 140.059 15.956 140.059H42.8358C42.9225 140.059 43.0084 140.075 43.0885 140.107C43.1686 140.139 43.2414 140.186 43.3027 140.245C43.364 140.303 43.4127 140.373 43.4458 140.45C43.479 140.527 43.4961 140.61 43.4961 140.693C43.4961 140.862 43.4265 141.023 43.3027 141.142C43.1789 141.261 43.0109 141.328 42.8358 141.328Z" fill="black"/>
<path opacity="0.8" d="M113.57 143.039H15.2957V188.338H113.57V143.039Z" fill="white"/>
<path opacity="0.2" d="M42.8358 58.5265H15.956C15.7809 58.5265 15.6129 58.4596 15.4891 58.3405C15.3652 58.2215 15.2957 58.06 15.2957 57.8916C15.2957 57.7233 15.3652 57.5618 15.4891 57.4428C15.6129 57.3237 15.7809 57.2568 15.956 57.2568H42.8358C43.0109 57.2568 43.1789 57.3237 43.3027 57.4428C43.4265 57.5618 43.4961 57.7233 43.4961 57.8916C43.4961 58.06 43.4265 58.2215 43.3027 58.3405C43.1789 58.4596 43.0109 58.5265 42.8358 58.5265Z" fill="black"/>
<path opacity="0.8" d="M113.57 60.2383H15.2957V80.5177H113.57V60.2383Z" fill="white"/>
<path opacity="0.3" d="M16.7529 200.572C18.2339 200.572 19.6543 200.007 20.7015 199C21.7487 197.993 22.337 196.628 22.337 195.204H130C130 196.628 129.411 197.993 128.364 199C127.317 200.007 125.897 200.572 124.416 200.572H16.7529Z" fill="white"/>
<path opacity="0.3" d="M11.1682 5.94739C11.1682 4.52363 10.5799 3.15819 9.53267 2.15144C8.48545 1.14469 7.06511 0.579102 5.58411 0.579102C4.10311 0.579102 2.68277 1.14469 1.63555 2.15144C0.588324 3.15819 0 4.52363 0 5.94739H11.1682Z" fill="white"/>
<path d="M74.6311 47.9415C74.5355 47.9429 74.4405 47.9259 74.3517 47.8916C74.263 47.8572 74.1823 47.8061 74.1144 47.7414C73.9779 47.566 73.8948 47.3576 73.8745 47.1395C73.8543 46.9213 73.8975 46.7021 73.9995 46.5062C74.2425 45.9226 74.6564 45.4193 75.191 45.0572C75.0557 44.821 74.863 44.6198 74.6293 44.4708C74.3955 44.3218 74.1277 44.2295 73.8488 44.2016C72.9372 44.0636 72.0831 44.8364 71.1716 45.6575C69.9801 46.727 68.6307 47.9415 66.9656 46.9478C66.2478 46.5407 66.0109 45.7127 66.1473 44.5121L65.5516 44.9399C64.4104 45.7472 61.6614 47.5689 60.8575 47.0721C60.2115 46.6718 60.3407 45.8231 60.4627 45.0779C60.5201 44.6708 60.6063 44.1119 60.4627 43.967C60.3192 43.8221 60.2402 43.898 60.1541 43.9049C59.544 43.9049 58.453 44.6708 57.3979 45.3677C55.6107 46.5545 53.7661 47.7828 52.4096 47.2791C51.053 46.7753 51.1535 45.6437 51.1966 44.7122C51.1966 43.8911 51.1966 43.3736 50.7372 43.1735C50.2778 42.9734 48.1174 44.2775 46.6317 45.2435C44.3851 46.7339 42.44 48.0036 41.428 47.4585C41.2596 47.3582 41.1147 47.2255 41.0023 47.0687C40.8899 46.912 40.8124 46.7346 40.7748 46.5476C39.3805 47.1305 37.897 47.4917 36.3822 47.6172C36.1217 47.6463 35.8577 47.6194 35.6094 47.5382C35.361 47.4571 35.1347 47.3237 34.9467 47.148C33.9992 46.2233 34.1715 44.1395 34.3366 42.1178C34.4658 40.5583 34.6093 38.7919 34.0782 38.2537C34.0189 38.1892 33.944 38.1398 33.8602 38.1097C33.7763 38.0796 33.686 38.0698 33.5973 38.0812C31.1641 38.1364 24.4101 45.1193 22.0128 47.8035L21.4673 47.355C22.3717 46.3406 30.3889 37.4602 33.5829 37.3912C33.7718 37.3803 33.9609 37.4093 34.137 37.4761C34.313 37.5428 34.4718 37.6457 34.6021 37.7776C35.3199 38.5435 35.2122 40.2271 35.0543 42.173C34.9036 43.9532 34.7385 45.9611 35.4563 46.6649C35.5734 46.7697 35.7136 46.8478 35.8665 46.8932C36.0193 46.9386 36.1809 46.9502 36.3391 46.9271C37.8587 46.8017 39.3446 46.4259 40.7317 45.8162C40.7282 45.7818 40.7282 45.7471 40.7317 45.7127C40.8466 44.4362 41.7509 42.7388 42.7845 42.3731C42.9975 42.2936 43.2304 42.2774 43.453 42.3267C43.6757 42.3759 43.8779 42.4882 44.0334 42.6491C44.2067 42.8081 44.3261 43.0136 44.376 43.2389C44.426 43.4642 44.4041 43.6987 44.3133 43.9118C44.0047 44.7053 42.8778 45.554 41.4423 46.244C41.4453 46.3655 41.4773 46.4846 41.5358 46.5923C41.5943 46.6999 41.6777 46.7933 41.7796 46.865C42.4041 47.217 44.6076 45.7472 46.2154 44.6708C48.6126 43.0838 50.1343 42.1385 51.0171 42.5111C51.8999 42.8837 51.943 43.8911 51.9071 44.7122C51.8641 45.6989 51.9071 46.3199 52.6249 46.6097C53.6225 46.9824 55.4959 45.761 56.9314 44.7743C58.1731 43.9532 59.2425 43.2356 60.0464 43.1873C60.2074 43.1653 60.3715 43.1794 60.5259 43.2285C60.6803 43.2776 60.8208 43.3603 60.9364 43.4702C61.3097 43.8635 61.2092 44.519 61.1087 45.1538C61.0082 45.7886 60.9364 46.3061 61.1877 46.4648C61.6542 46.5476 64.0012 45.2504 66.2837 43.4633C66.2837 43.3184 66.3626 43.1735 66.4129 43.0217C67.1306 40.6825 69.1044 37.2256 70.4108 37.2256C70.6333 37.2256 71.0424 37.3291 71.2218 37.957C71.7171 39.6958 68.8389 42.3179 66.9153 43.8359C66.6282 45.1262 66.7502 46.0163 67.2742 46.3337C68.3939 47.0237 69.2767 46.3337 70.6117 45.1262C71.6022 44.2292 72.6358 43.3046 73.8918 43.4978C74.2809 43.5373 74.6544 43.6664 74.9805 43.8743C75.3066 44.0821 75.5758 44.3624 75.7652 44.6915C76.5877 44.2913 77.4864 44.0566 78.4065 44.0015C81.9953 43.7048 82.39 45.7196 82.5766 46.6925C82.5969 46.8275 82.6256 46.9612 82.6628 47.0927C83.3016 47.0099 86.6822 44.8571 88.7134 43.2908C88.9394 43.102 89.2287 42.998 89.5281 42.998C89.8275 42.998 90.1168 43.102 90.3427 43.2908C90.7869 43.6729 91.1186 44.1608 91.3045 44.7053C91.8191 44.5411 92.3654 44.4899 92.9033 44.5556C93.4412 44.6213 93.9568 44.8021 94.4124 45.0848C97.226 46.7753 104.461 46.9271 107.497 44.8157L107.913 45.3746C104.612 47.6793 97.0537 47.4861 94.032 45.6713C93.662 45.4374 93.2408 45.2889 92.8013 45.2374C92.3618 45.1859 91.9158 45.2329 91.4983 45.3746C91.6431 45.9196 91.6156 46.4938 91.4193 47.0237C91.3264 47.2435 91.1537 47.4233 90.9332 47.5299C90.7128 47.6365 90.4596 47.6626 90.2207 47.6034C90.0068 47.5864 89.8038 47.5053 89.6403 47.3717C89.4768 47.238 89.361 47.0584 89.3092 46.8581C89.2986 46.5148 89.3876 46.1755 89.5664 45.8781C89.7451 45.5808 90.0065 45.3371 90.3212 45.1745C90.4253 45.1069 90.5331 45.0447 90.6442 44.9882C90.5124 44.551 90.2652 44.154 89.9264 43.8359C89.8292 43.7481 89.7009 43.6992 89.5675 43.6992C89.4342 43.6992 89.3058 43.7481 89.2087 43.8359C89.1512 43.8842 83.4236 48.1899 82.3757 47.7345C82.0599 47.5965 81.9881 47.2377 81.9091 46.8236C81.7153 45.8231 81.457 44.45 78.507 44.6984C77.6543 44.7603 76.825 44.9955 76.0738 45.3884C76.1052 45.5062 76.1268 45.6262 76.1384 45.7472C76.2129 46.1834 76.1402 46.631 75.931 47.0246C75.7218 47.4182 75.387 47.7371 74.9757 47.9346C74.8619 47.9542 74.7456 47.9565 74.6311 47.9415ZM75.4063 45.7817C75.0928 46.0379 74.8468 46.3619 74.6886 46.727C74.5594 47.0375 74.6024 47.2169 74.6311 47.2514C74.664 47.2603 74.6988 47.2603 74.7316 47.2514C74.9896 47.1048 75.1934 46.8843 75.3144 46.6207C75.4353 46.3571 75.4675 46.0638 75.4063 45.7817ZM90.838 45.6575L90.7518 45.7127C90.2351 46.0577 89.9767 46.4786 90.0341 46.6925C90.0915 46.9064 90.2351 46.865 90.3786 46.8926C90.4181 46.9078 90.4603 46.915 90.5028 46.9138C90.5453 46.9125 90.5871 46.9028 90.6255 46.8854C90.6639 46.8679 90.6981 46.8429 90.726 46.8121C90.754 46.7813 90.7749 46.7453 90.7877 46.7063C90.9034 46.3676 90.9208 46.005 90.838 45.6575ZM43.1936 43.0148C43.1345 43.0163 43.0762 43.028 43.0214 43.0493C42.3969 43.2701 41.6863 44.4293 41.4782 45.4781C42.3712 45.1147 43.1239 44.4923 43.6314 43.6979C43.6761 43.6101 43.6898 43.5108 43.6704 43.4149C43.651 43.319 43.5995 43.2318 43.5238 43.1666C43.4428 43.0787 43.3297 43.0244 43.208 43.0148H43.1936ZM70.4682 37.9432C69.8796 37.9432 68.2216 40.2064 67.3388 42.6767C67.8418 42.2409 68.321 41.7802 68.7743 41.2966C70.1165 39.9166 70.7481 38.8057 70.5615 38.1433C70.5543 38.026 70.5041 37.9501 70.4682 37.9432Z" fill="#433839"/>
<path d="M58.403 74.3075C58.1665 74.3376 57.9259 74.3031 57.7089 74.2079C57.4918 74.1127 57.307 73.9607 57.1756 73.7693C56.666 72.9136 57.6278 71.3887 58.7403 69.6292C59.5083 68.4079 60.5634 66.7311 60.2691 66.2688C60.1902 66.1446 59.939 66.0894 59.5514 66.117C56.745 66.2964 52.7328 69.7396 50.7159 71.9752C50.83 72.2393 50.8815 72.5245 50.8666 72.8101C50.8557 73.204 50.6881 73.5787 50.3984 73.8573C50.1086 74.1359 49.7187 74.297 49.3091 74.3075C49.236 74.3122 49.1627 74.3025 49.0937 74.279C49.0247 74.2555 48.9614 74.2188 48.9076 74.171C48.8539 74.1232 48.8108 74.0654 48.7811 74.001C48.7514 73.9367 48.7357 73.8672 48.7349 73.7968C48.9144 73.0745 49.2967 72.4134 49.8402 71.8855C49.4383 71.3749 48.5913 70.9126 47.1271 70.7194C45.6074 70.5534 44.0736 70.8813 42.7704 71.6509C42.8218 72.2128 42.7152 72.7776 42.4617 73.2862C42.3347 73.5789 42.1233 73.8305 41.8524 74.0114C41.5815 74.1924 41.2625 74.2951 40.9329 74.3075C40.7802 74.3246 40.6256 74.2976 40.4889 74.23C40.3521 74.1625 40.2393 74.0573 40.1649 73.928C40.0429 73.714 39.9998 73.3207 40.4592 72.6997C40.8778 72.1595 41.3901 71.6927 41.9737 71.3197C41.9359 71.1932 41.8751 71.074 41.7942 70.9678C41.703 70.8535 41.5788 70.7677 41.437 70.7211C41.2953 70.6744 41.1424 70.669 40.9975 70.7056C39.9649 70.9875 38.9646 71.369 38.0117 71.8441C35.5426 72.9343 32.4778 74.3006 29.3986 74.3006C28.9598 74.32 28.5274 74.1933 28.1743 73.9419C27.8213 73.6905 27.5693 73.3298 27.4607 72.9205C27.2949 72.2843 27.2656 71.6222 27.3746 70.9747C24.8481 72.6238 22.4149 73.9625 21.8766 74.2523L21.5249 73.652C22.9604 72.8929 25.3218 71.4991 27.5684 70.0018C28.1785 67.6143 29.7647 64.9164 31.2074 63.9849C31.4984 63.7442 31.8662 63.6063 32.2499 63.5937C32.6335 63.5812 33.0102 63.6948 33.3176 63.9159C33.4831 64.0389 33.6134 64.2002 33.6963 64.3849C33.7792 64.5696 33.8118 64.7715 33.7913 64.9716C33.6621 66.4068 30.9849 68.5597 28.1856 70.4434C27.9926 71.1911 27.9926 71.9728 28.1856 72.7204C28.2443 72.9901 28.4039 73.2297 28.6341 73.3938C28.8643 73.5578 29.1491 73.635 29.4345 73.6105C32.3055 73.6105 35.3129 72.2857 37.7174 71.2162C38.7241 70.7156 39.7826 70.3178 40.8755 70.0294C41.1515 69.9643 41.4413 69.9793 41.7084 70.0727C41.9754 70.166 42.2076 70.3335 42.3756 70.5538C42.4689 70.6752 42.5461 70.8073 42.6053 70.9471C44.0024 70.1624 45.6287 69.84 47.2348 70.0294C48.3931 70.0966 49.4869 70.5647 50.3139 71.3473C52.5892 68.8633 56.8168 65.5926 59.5083 65.4201C59.762 65.366 60.0265 65.3828 60.2707 65.4683C60.5148 65.5539 60.7285 65.7047 60.8864 65.9031C61.4032 66.7242 60.4558 68.2354 59.3504 69.9811C58.5681 71.2162 57.4986 72.9136 57.8001 73.4311C57.8862 73.5829 58.1733 73.6174 58.403 73.6174C60.2476 73.6174 62.408 72.6583 63.9225 71.6371C63.7502 71.4539 63.6075 71.2469 63.499 71.023C63.3468 70.7133 63.2916 70.3677 63.34 70.0284C63.3884 69.689 63.5384 69.3705 63.7718 69.1117C64.0148 68.8533 64.3314 68.6692 64.6822 68.5821C65.0331 68.495 65.4028 68.5088 65.7456 68.6218C66.0075 68.6672 66.2401 68.8101 66.3933 69.0193C66.5464 69.2285 66.6077 69.4873 66.5638 69.7396C66.3112 70.5102 65.8081 71.1826 65.1283 71.6578C65.9107 72.1132 67.2816 72.541 69.765 72.541C74.4806 72.541 75.8444 70.9816 76.9425 69.7258C77.7033 68.8495 78.4283 68.0215 80.0073 68.0215C80.2729 68.0215 81.0696 68.0215 81.3423 68.539C81.6151 69.0565 81.0193 69.9604 80.3518 70.8229C80.0289 71.2369 79.3542 72.0925 79.4547 72.2857C79.4547 72.2857 79.548 72.3892 80.0073 72.3892C81.7371 72.3892 82.8783 71.3335 83.955 70.3192C84.8019 69.5257 85.6058 68.7736 86.625 68.6218C86.8019 68.5827 86.9856 68.5816 87.163 68.6186C87.3404 68.6555 87.5072 68.7297 87.6514 68.8357C87.8465 69.0632 87.9901 69.3274 88.0729 69.6114C88.1557 69.8954 88.1759 70.1929 88.1323 70.4848C88.1323 71.5543 88.2471 71.989 88.9649 71.989C90.2496 71.989 92.3598 70.9954 93.6231 70.1743C93.5026 69.9904 93.4387 69.7775 93.4387 69.5602C93.4387 69.3429 93.5026 69.13 93.6231 68.9461C93.7502 68.7973 93.9202 68.6879 94.1116 68.6314C94.3031 68.575 94.5077 68.574 94.6997 68.6287C95.3816 68.7391 95.4174 69.1807 95.3816 69.3187C95.2556 69.734 94.9811 70.0933 94.6064 70.333C95.2237 70.9816 96.53 71.713 98.755 71.713C103.341 71.713 105.416 69.4015 105.437 69.3808L105.99 69.8224C105.897 69.9259 103.693 72.403 98.755 72.403C96.3505 72.403 94.8002 71.5957 94.0322 70.7401C92.5321 71.7268 90.1779 72.6721 88.972 72.6721C87.4791 72.6721 87.4504 71.368 87.4217 70.4986C87.4217 70.0363 87.4217 69.5119 87.1992 69.3532C87.1306 69.3142 87.0545 69.2892 86.9755 69.2797C86.8965 69.2702 86.8162 69.2764 86.7398 69.298C85.9503 69.4153 85.2613 70.0639 84.4646 70.8091C83.3233 71.8786 82.0386 73.0861 80.0145 73.0861C79.7848 73.0861 79.0742 73.0861 78.823 72.6031C78.5718 72.1201 79.1101 71.2783 79.7848 70.4158C80.1437 69.9535 80.8256 69.0841 80.7035 68.8564C80.7035 68.8564 80.6246 68.7184 79.9858 68.7184C78.7441 68.7184 78.2058 69.3256 77.4737 70.1743C76.2822 71.5543 74.7964 73.2379 69.7435 73.2379C66.9586 73.2379 65.3867 72.7135 64.4967 72.1201C62.7885 73.2931 60.3625 74.3075 58.403 74.3075ZM40.8109 73.6174C40.8539 73.6203 40.8971 73.6203 40.9401 73.6174C41.1354 73.6019 41.3221 73.5334 41.4784 73.4198C41.6347 73.3062 41.7542 73.1522 41.8229 72.9757C41.9582 72.7074 42.041 72.4173 42.067 72.1201C41.7932 72.3287 41.5387 72.5595 41.3062 72.8101C40.8755 73.2724 40.8037 73.5484 40.8109 73.6243V73.6174ZM50.1417 72.6514C49.8937 72.9472 49.6773 73.2662 49.4957 73.6036C49.6797 73.5476 49.8409 73.4376 49.9567 73.2892C50.0726 73.1407 50.1372 72.9612 50.1417 72.7756C50.1509 72.7302 50.1557 72.684 50.156 72.6376L50.1417 72.6514ZM65.1211 69.2359C64.9658 69.2327 64.8116 69.2619 64.6691 69.3215C64.5267 69.381 64.3993 69.4695 64.2957 69.5809C64.1509 69.7392 64.059 69.9358 64.0321 70.145C64.0052 70.3543 64.0446 70.5665 64.145 70.7539C64.2303 70.9285 64.3469 71.0874 64.4895 71.2231C65.0939 70.8414 65.5643 70.293 65.8389 69.6499C65.8389 69.5464 65.882 69.4015 65.5231 69.2911C65.3973 69.2528 65.2672 69.2296 65.1355 69.2221L65.1211 69.2359ZM94.3624 69.2911C94.2547 69.2911 94.1757 69.2911 94.147 69.3532C94.1148 69.4153 94.098 69.4838 94.098 69.5533C94.098 69.6227 94.1148 69.6912 94.147 69.7534C94.3139 69.6338 94.4573 69.4866 94.5705 69.3187H94.5059C94.4644 69.3007 94.4211 69.2868 94.3767 69.2773L94.3624 69.2911ZM32.4204 64.2885C32.1394 64.3054 31.8699 64.4014 31.6452 64.5645C30.4753 65.3235 29.1833 67.4004 28.5158 69.3946C30.9562 67.704 33.0161 65.9445 33.1094 64.9233C33.1232 64.8352 33.111 64.7452 33.0742 64.6635C33.0374 64.5818 32.9775 64.5116 32.9013 64.461C32.7686 64.3485 32.5973 64.287 32.4204 64.2885Z" fill="#433839"/>
<path d="M22.0937 102.75C20.9453 101.646 21.2036 99.6378 22.7612 97.6436C24.4766 95.4356 27.3691 93.8072 29.5726 94.9664C30.2846 95.3185 30.8273 95.9219 31.0871 96.65C32.0483 96.4334 33.0509 96.4548 34.0012 96.7121C34.7224 96.9162 35.3789 97.2911 35.9104 97.8023C36.851 96.988 38.0494 96.5019 39.3125 96.4223C39.5417 96.39 39.7756 96.4149 39.9918 96.4947C40.208 96.5744 40.3992 96.7063 40.547 96.8777C40.8557 97.3538 40.5471 97.9679 40.2456 98.5613C40.0446 98.9478 39.7791 99.4791 39.8939 99.6516C39.8939 99.6999 40.0662 99.8378 40.6978 99.8378C41.8333 99.77 42.9201 99.3704 43.8128 98.6924C43.8113 97.6333 44.1663 96.6021 44.8249 95.753C44.9718 95.5439 45.1793 95.3808 45.4217 95.2839C45.6641 95.187 45.9307 95.1606 46.1886 95.2079C46.4042 95.2571 46.5908 95.3863 46.7078 95.5672C46.8248 95.7482 46.8626 95.9662 46.813 96.1739C46.7054 96.9122 45.8082 98.0921 44.5593 99.0374C44.5852 99.1888 44.6285 99.3369 44.6885 99.4791C44.7563 99.6358 44.8743 99.7677 45.0252 99.8557C45.1762 99.9438 45.3523 99.9834 45.5282 99.969C46.6982 99.892 47.8053 99.4317 48.6648 98.6648C49.3826 98.1542 49.9783 97.7195 50.6745 97.7885C50.7903 97.7946 50.9036 97.8234 51.0073 97.8733C51.111 97.9231 51.2029 97.9929 51.2774 98.0783C51.3509 98.207 51.3953 98.3491 51.4076 98.4953C51.42 98.6416 51.4001 98.7887 51.3492 98.9271C51.299 99.1962 51.2703 99.3824 51.3492 99.4928C51.4282 99.6032 51.7296 99.7689 52.6842 99.7689C54.6744 99.6684 56.5667 98.9075 58.0387 97.616L58.5411 98.1059C56.9392 99.5307 54.8643 100.364 52.6842 100.459C51.7009 100.459 51.1052 100.293 50.7966 99.9345C50.6817 99.7675 50.6083 99.5773 50.5822 99.3786C50.556 99.18 50.5778 98.9783 50.6458 98.789C50.6719 98.6897 50.6863 98.5879 50.6889 98.4854H50.5956C50.1865 98.4302 49.684 98.8028 49.0955 99.2237C48.1069 100.086 46.8397 100.596 45.5067 100.666C45.1948 100.678 44.8864 100.599 44.6215 100.44C44.3565 100.282 44.1473 100.05 44.021 99.7758C43.9722 99.6809 43.9337 99.5815 43.9061 99.4791C42.9553 100.118 41.8352 100.484 40.6763 100.535C39.9585 100.535 39.4848 100.369 39.2407 100.031C38.9106 99.5273 39.2407 98.8856 39.5494 98.2646C39.7073 97.9403 39.9872 97.4021 39.8867 97.2503C39.8867 97.2503 39.7862 97.1192 39.2623 97.1192C38.1492 97.1955 37.0963 97.6335 36.2764 98.3612C36.4679 98.7179 36.5382 99.1233 36.4774 99.5204C36.4188 99.9057 36.2215 100.259 35.9199 100.519C35.6182 100.778 35.2313 100.928 34.8266 100.942C34.7304 100.949 34.6337 100.936 34.5432 100.904C34.4527 100.872 34.3705 100.821 34.3023 100.756C34.2341 100.69 34.1814 100.611 34.148 100.524C34.1146 100.437 34.1013 100.344 34.1088 100.252C34.2726 99.4732 34.7051 98.7706 35.3362 98.2577C34.8844 97.8371 34.3324 97.5291 33.7284 97.3607C32.8991 97.1378 32.0242 97.1236 31.1876 97.3193C31.1949 97.4135 31.1949 97.508 31.1876 97.6022C31.1609 98.3877 30.9326 99.1546 30.5231 99.8348C30.1136 100.515 29.5356 101.087 28.8405 101.501C28.4791 101.726 28.06 101.851 27.6294 101.862C27.1988 101.873 26.7735 101.769 26.4002 101.563C26.2339 101.483 26.086 101.371 25.9655 101.235C25.8449 101.099 25.7542 100.941 25.6986 100.77C25.643 100.6 25.6237 100.42 25.6419 100.242C25.6601 100.064 25.7154 99.8913 25.8044 99.7344C26.3786 98.5475 28.3094 97.3538 30.3334 96.8087C30.1214 96.2676 29.7067 95.8221 29.1707 95.5598C27.3476 94.6076 24.7709 96.1325 23.2779 98.0507C22.2659 99.3479 21.4764 101.225 22.5602 102.253L22.0937 102.75ZM30.5488 97.4918C28.7185 98.0093 26.96 99.1064 26.5365 100.031C26.4842 100.111 26.4507 100.201 26.4384 100.295C26.4262 100.389 26.4354 100.484 26.4655 100.574C26.4956 100.664 26.5458 100.747 26.6126 100.817C26.6795 100.886 26.7613 100.941 26.8524 100.976C27.116 101.117 27.4151 101.186 27.7166 101.173C28.0181 101.161 28.3102 101.069 28.5606 100.907C29.1463 100.556 29.6337 100.073 29.9802 99.4993C30.3268 98.9255 30.522 98.279 30.5488 97.616V97.4918ZM35.7884 98.8718C35.6492 99.0106 35.5197 99.1582 35.4008 99.3135C34.9199 99.9138 34.8768 100.238 34.8912 100.293C35.1278 100.266 35.3485 100.164 35.5196 100.005C35.6906 99.8455 35.8027 99.6365 35.8386 99.41C35.8619 99.2254 35.8373 99.0381 35.7668 98.8649L35.7884 98.8718ZM45.9445 95.8703C45.7218 95.91 45.5237 96.0312 45.3919 96.2084C44.9595 96.767 44.6827 97.4225 44.588 98.1128C45.2889 97.5895 45.8214 96.8862 46.124 96.0842C46.124 95.9117 46.124 95.8979 46.0235 95.8772L45.9445 95.8703Z" fill="#433839"/>
<path opacity="0.2" d="M42.8358 30.9259H15.956C15.7809 30.9259 15.6129 30.859 15.4891 30.7399C15.3652 30.6209 15.2957 30.4594 15.2957 30.2911C15.2957 30.1227 15.3652 29.9612 15.4891 29.8422C15.6129 29.7231 15.7809 29.6562 15.956 29.6562H42.8358C43.0109 29.6562 43.1789 29.7231 43.3027 29.8422C43.4265 29.9612 43.4961 30.1227 43.4961 30.2911C43.4961 30.4594 43.4265 30.6209 43.3027 30.7399C43.1789 30.859 43.0109 30.9259 42.8358 30.9259Z" fill="black"/>
<path opacity="0.8" d="M113.57 32.6367H15.2957V52.9162H113.57V32.6367Z" fill="white"/>
<path opacity="0.2" d="M42.8358 86.127H15.956C15.7809 86.127 15.6129 86.0602 15.4891 85.9411C15.3652 85.8221 15.2957 85.6606 15.2957 85.4922C15.2957 85.3239 15.3652 85.1624 15.4891 85.0434C15.6129 84.9243 15.7809 84.8574 15.956 84.8574H42.8358C43.0109 84.8574 43.1789 84.9243 43.3027 85.0434C43.4265 85.1624 43.4961 85.3239 43.4961 85.4922C43.4961 85.6606 43.4265 85.8221 43.3027 85.9411C43.1789 86.0602 43.0109 86.127 42.8358 86.127Z" fill="black"/>
<path opacity="0.8" d="M63.3276 87.8379H15.2957V108.117H63.3276V87.8379Z" fill="white"/>
<path opacity="0.2" d="M93.076 86.127H66.1962C66.0211 86.127 65.8531 86.0602 65.7293 85.9411C65.6055 85.8221 65.5359 85.6606 65.5359 85.4922C65.5359 85.3239 65.6055 85.1624 65.7293 85.0434C65.8531 84.9243 66.0211 84.8574 66.1962 84.8574H93.076C93.2511 84.8574 93.4191 84.9243 93.5429 85.0434C93.6668 85.1624 93.7363 85.3239 93.7363 85.4922C93.7363 85.6606 93.6668 85.8221 93.5429 85.9411C93.4191 86.0602 93.2511 86.127 93.076 86.127Z" fill="black"/>
<path opacity="0.8" d="M113.568 87.8379H65.5359V108.117H113.568V87.8379Z" fill="white"/>
<path opacity="0.2" d="M42.8358 113.728H15.956C15.8693 113.728 15.7834 113.711 15.7033 113.679C15.6232 113.647 15.5504 113.601 15.4891 113.542C15.4277 113.483 15.3791 113.413 15.3459 113.336C15.3127 113.259 15.2957 113.176 15.2957 113.093C15.2957 112.924 15.3652 112.763 15.4891 112.644C15.6129 112.525 15.7809 112.458 15.956 112.458H42.8358C43.0109 112.458 43.1789 112.525 43.3027 112.644C43.4265 112.763 43.4961 112.924 43.4961 113.093C43.4961 113.176 43.479 113.259 43.4458 113.336C43.4127 113.413 43.364 113.483 43.3027 113.542C43.2414 113.601 43.1686 113.647 43.0885 113.679C43.0084 113.711 42.9225 113.728 42.8358 113.728Z" fill="black"/>
<path opacity="0.8" d="M63.3276 115.438H15.2957V135.718H63.3276V115.438Z" fill="white"/>
<path opacity="0.2" d="M93.076 113.728H66.1962C66.1095 113.728 66.0236 113.711 65.9435 113.679C65.8634 113.647 65.7906 113.601 65.7293 113.542C65.668 113.483 65.6193 113.413 65.5862 113.336C65.553 113.259 65.5359 113.176 65.5359 113.093C65.5359 112.924 65.6055 112.763 65.7293 112.644C65.8531 112.525 66.0211 112.458 66.1962 112.458H93.076C93.2511 112.458 93.4191 112.525 93.5429 112.644C93.6668 112.763 93.7363 112.924 93.7363 113.093C93.7363 113.176 93.7193 113.259 93.6861 113.336C93.6529 113.413 93.6043 113.483 93.5429 113.542C93.4816 113.601 93.4088 113.647 93.3287 113.679C93.2486 113.711 93.1627 113.728 93.076 113.728Z" fill="black"/>
<path opacity="0.8" d="M113.568 115.438H65.5359V135.718H113.568V115.438Z" fill="white"/>
</svg>
