<svg width="76" height="76" viewBox="0 0 76 76" fill="none" xmlns="http://www.w3.org/2000/svg">
<path d="M7.38599 46.7988H68.4423V53.3406H7.38599V46.7988Z" fill="#ACF0F2"/>
<path d="M67.352 62.0628C67.352 65.0738 64.9116 67.5142 61.9006 67.5142H13.9278C10.9167 67.5142 8.47632 65.0738 8.47632 62.0628V56.6113H67.3521V62.0628H67.352Z" fill="#FFB957"/>
<path d="M11.7472 36.9863H64.0812C65.8871 36.9863 67.3521 38.4514 67.3521 40.2572C67.3521 42.0631 65.8871 43.5281 64.0812 43.5281H11.7472C9.94143 43.5281 8.47632 42.0631 8.47632 40.2572C8.47632 38.4515 9.94143 36.9863 11.7472 36.9863Z" fill="white"/>
<path d="M8.47632 28.2639H67.3521C67.3521 21.6402 67.3521 8.63867 37.9142 8.63867C8.47632 8.63867 8.47632 21.6401 8.47632 28.2639Z" fill="#FFB957"/>
<path d="M64.0811 44.6182H11.7472C9.34252 44.6182 7.38606 42.6622 7.38606 40.257C7.38606 37.8518 9.34252 35.8959 11.7472 35.8959H64.0811C66.4863 35.8959 68.4423 37.8518 68.4423 40.257C68.4423 42.6622 66.4864 44.6182 64.0811 44.6182ZM11.7472 38.0764C10.5446 38.0764 9.56659 39.0549 9.56659 40.257C9.56659 41.4591 10.5446 42.4376 11.7472 42.4376H64.0811C65.2832 42.4376 66.2617 41.4591 66.2617 40.257C66.2617 39.0549 65.2832 38.0764 64.0811 38.0764H11.7472ZM7.38599 31.5347H68.4423V33.7153H7.38599V31.5347ZM67.352 29.3541H8.47629C7.87418 29.3541 7.38599 28.8665 7.38599 28.2638C7.38599 21.54 7.38598 7.54883 37.9142 7.54883C68.4423 7.54883 68.4423 21.54 68.4423 28.2638C68.4423 28.8665 67.9547 29.3541 67.352 29.3541ZM9.57087 27.1735H66.2575C66.1798 20.5248 64.737 9.72943 37.9142 9.72943C11.0908 9.72943 9.64856 20.5248 9.57087 27.1735Z" fill="#4D5152"/>
<path d="M11.7471 53.3406C9.98287 53.3406 9.17844 51.7319 8.59125 50.5574C8.12915 49.6332 7.77249 48.9794 7.38599 48.9794V46.7988C9.15024 46.7988 9.95467 48.4076 10.5419 49.5821C11.004 50.5063 11.3606 51.16 11.7471 51.16V53.3406ZM11.7471 53.3406V51.16C12.1336 51.16 12.4903 50.5063 12.9524 49.5821C13.5396 48.4076 14.344 46.7988 16.1083 46.7988V48.9794C15.7218 48.9794 15.3651 49.6332 14.903 50.5574C14.3158 51.7319 13.5114 53.3406 11.7471 53.3406ZM20.4695 53.3406C18.7052 53.3406 17.9008 51.7319 17.3136 50.5574C16.8515 49.6332 16.4948 48.9794 16.1083 48.9794V46.7988C17.8726 46.7988 18.677 48.4076 19.2642 49.5821C19.7263 50.5063 20.083 51.16 20.4695 51.16V53.3406ZM20.4695 53.3406V51.16C20.856 51.16 21.2126 50.5063 21.6747 49.5821C22.2619 48.4076 23.0664 46.7988 24.8306 46.7988V48.9794C24.4441 48.9794 24.0874 49.6332 23.6253 50.5574C23.0381 51.7319 22.2337 53.3406 20.4695 53.3406ZM29.1917 53.3406C27.4275 53.3406 26.6231 51.7319 26.0359 50.5574C25.5738 49.6332 25.2171 48.9794 24.8306 48.9794V46.7988C26.5949 46.7988 27.3993 48.4076 27.9865 49.5821C28.4486 50.5063 28.8052 51.16 29.1917 51.16V53.3406ZM29.1917 53.3406V51.16C29.5783 51.16 29.9349 50.5063 30.397 49.5821C30.9842 48.4076 31.7886 46.7988 33.5529 46.7988V48.9794C33.1664 48.9794 32.8097 49.6332 32.3476 50.5574C31.7604 51.7319 30.9561 53.3406 29.1917 53.3406ZM37.9141 53.3406C36.1498 53.3406 35.3454 51.7319 34.7582 50.5574C34.2961 49.6332 33.9395 48.9794 33.553 48.9794V46.7988C35.3172 46.7988 36.1216 48.4076 36.7088 49.5821C37.1709 50.5063 37.5276 51.16 37.9141 51.16V53.3406ZM37.9141 53.3406V51.16C38.3006 51.16 38.6573 50.5063 39.1194 49.5821C39.7065 48.4076 40.511 46.7988 42.2752 46.7988V48.9794C41.8887 48.9794 41.5321 49.6332 41.07 50.5574C40.4828 51.7319 39.6783 53.3406 37.9141 53.3406ZM46.6364 53.3406C44.8722 53.3406 44.0678 51.7319 43.4806 50.5574C43.0185 49.6332 42.6618 48.9794 42.2753 48.9794V46.7988C44.0396 46.7988 44.844 48.4076 45.4312 49.5821C45.8933 50.5063 46.2499 51.16 46.6364 51.16V53.3406ZM46.6364 53.3406V51.16C47.023 51.16 47.3796 50.5063 47.8417 49.5821C48.4289 48.4076 49.2333 46.7988 50.9976 46.7988V48.9794C50.6111 48.9794 50.2544 49.6332 49.7923 50.5574C49.2051 51.7319 48.4007 53.3406 46.6364 53.3406ZM55.3588 53.3406C53.5945 53.3406 52.7901 51.7319 52.2029 50.5574C51.7408 49.6332 51.3841 48.9794 50.9976 48.9794V46.7988C52.7618 46.7988 53.5663 48.4076 54.1535 49.5821C54.6156 50.5063 54.9723 51.16 55.3588 51.16V53.3406ZM55.3588 53.3406V51.16C55.7453 51.16 56.102 50.5063 56.5641 49.5821C57.1512 48.4076 57.9557 46.7988 59.7199 46.7988V48.9794C59.3334 48.9794 58.9768 49.6332 58.5147 50.5574C57.9269 51.7319 57.123 53.3406 55.3588 53.3406ZM64.0811 53.3406C62.3168 53.3406 61.5129 51.7319 60.9252 50.5574C60.4631 49.6332 60.1064 48.9794 59.7199 48.9794V46.7988C61.4842 46.7988 62.2881 48.4076 62.8758 49.5821C63.3379 50.5063 63.6946 51.16 64.0811 51.16V53.3406ZM64.0811 53.3406V51.16C64.4676 51.16 64.8242 50.5063 65.2863 49.5821C65.874 48.4076 66.678 46.7988 68.4422 46.7988V48.9794C68.0557 48.9794 67.699 49.6332 67.2369 50.5574C66.6492 51.7319 65.8454 53.3406 64.0811 53.3406Z" fill="#4D5152"/>
<path d="M61.9006 68.605H13.9277C10.3204 68.605 7.38599 65.6705 7.38599 62.0632V56.6118C7.38599 56.0092 7.87418 55.5215 8.47629 55.5215H67.352C67.9547 55.5215 68.4423 56.0092 68.4423 56.6118V62.0632C68.4423 65.6705 65.5079 68.605 61.9006 68.605ZM9.56659 57.7021V62.0632C9.56659 64.4684 11.523 66.4244 13.9277 66.4244H61.9005C64.3057 66.4244 66.2617 64.4684 66.2617 62.0632V57.7021H9.56659Z" fill="#4D5152"/>
<path d="M16.1084 31.5352L29.1919 44.6186L59.7201 31.5352H16.1084Z" fill="#F28C13"/>
</svg>
