<svg width="101" height="101" viewBox="0 0 101 101" fill="none" xmlns="http://www.w3.org/2000/svg">
<g id="paper-cup-svgrepo-com 1">
<g id="Group">
<g id="Group_2">
<path id="Vector" d="M76.1248 21.2653H56.8914L61.7047 11.3231L76.4207 10.2184C78.6104 10.0606 80.2674 8.12738 80.0898 5.89828C79.932 3.6889 78.0186 2.01214 75.8289 2.16996L58.8246 3.45218C57.424 3.55081 56.1615 4.41878 55.55 5.70101L48.0342 21.2653H24.8949C21.4428 21.2653 20.8115 24.6582 20.9496 25.8024L29.6687 95.3188C29.9252 97.3309 31.6217 98.8498 33.6141 98.8498H67.4057C69.4178 98.8498 71.0945 97.3506 71.351 95.3188L80.0701 25.8024C80.2082 24.6582 80.1096 21.2653 76.1248 21.2653ZM37.1057 90.7817L33.91 65.2358H67.1098L63.9141 90.7817H37.1057ZM68.1158 57.1676H32.9039L29.4123 29.3137H71.6074L68.1158 57.1676Z" fill="#433839"/>
</g>
</g>
</g>
</svg>
