<svg width="76" height="76" viewBox="0 0 76 76" fill="none" xmlns="http://www.w3.org/2000/svg">
<path d="M23.7507 16.1453V12.3301H52.3648V16.1453" fill="#FFB957"/>
<path d="M19.9356 21.8692H17.0742L18.028 16.1465H58.0876L59.0414 21.8692H56.18" fill="#ACF0F2"/>
<path d="M52.3648 67.6512H23.7507L19.9355 21.8688H56.18L52.3648 67.6512ZM27.5659 12.3308V8.51562H33.2888V12.3308" fill="white"/>
<path d="M53.2422 68.6041H22.8734L18.8989 20.9141H57.2167L53.2422 68.6041ZM24.6282 66.6965H51.4874L55.1433 22.8218H20.9723L24.6282 66.6965Z" fill="#4D5152"/>
<path d="M60.1675 22.8218H56.1799V20.9142H57.9152L57.2795 17.099H18.836L18.2003 20.9142H19.9355V22.8218H15.948L17.2199 15.1914H58.8955L60.1675 22.8218Z" fill="#4D5152"/>
<path d="M53.3185 16.146H51.4109V13.2846H24.7045V16.146H22.7969V11.377H53.3185V16.146Z" fill="#4D5152"/>
<path d="M54.2723 60.0196H21.8431L18.9817 29.498H57.1337L54.2723 60.0196Z" fill="#FFB957"/>
<path d="M55.1409 60.9741H20.9746L17.9343 28.5449H58.1811L55.1409 60.9741ZM22.7117 59.0665H53.4038L56.0863 30.4525H20.0292L22.7117 59.0665Z" fill="#4D5152"/>
<path d="M27.5659 44.7594C27.5659 47.5419 28.6713 50.2106 30.6389 52.1782C32.6065 54.1457 35.2751 55.2511 38.0577 55.2511C40.8403 55.2511 43.5089 54.1457 45.4765 52.1782C47.4441 50.2106 48.5495 47.5419 48.5495 44.7594C48.5495 41.9768 47.4441 39.3081 45.4765 37.3405C43.5089 35.373 40.8403 34.2676 38.0577 34.2676C35.2751 34.2676 32.6065 35.373 30.6389 37.3405C28.6713 39.3081 27.5659 41.9768 27.5659 44.7594Z" fill="white"/>
<path d="M31.3811 44.7586C31.3811 46.5293 32.0845 48.2276 33.3366 49.4797C34.5887 50.7318 36.2869 51.4352 38.0577 51.4352C39.8284 51.4352 41.5266 50.7318 42.7787 49.4797C44.0308 48.2276 44.7343 46.5293 44.7343 44.7586C44.7343 42.9879 44.0308 41.2897 42.7787 40.0376C41.5266 38.7855 39.8284 38.082 38.0577 38.082C36.2869 38.082 34.5887 38.7855 33.3366 40.0376C32.0845 41.2897 31.3811 42.9879 31.3811 44.7586Z" fill="#67DDE0"/>
<path d="M38.0576 52.3897C33.8503 52.3897 30.4272 48.9666 30.4272 44.7593C30.4272 40.552 33.8503 37.1289 38.0576 37.1289C42.265 37.1289 45.688 40.552 45.688 44.7593C45.688 48.9666 42.265 52.3897 38.0576 52.3897ZM38.0576 39.0365C34.9019 39.0365 32.3348 41.6036 32.3348 44.7593C32.3348 47.915 34.9018 50.4821 38.0576 50.4821C41.2134 50.4821 43.7804 47.915 43.7804 44.7593C43.7804 41.6036 41.2134 39.0365 38.0576 39.0365Z" fill="#4D5152"/>
<path d="M37.1039 43.805H39.0115V45.7126H37.1039V43.805ZM34.2425 12.3296H32.3349V9.46818H28.5197V12.3296H26.6121V7.56055H34.2425V12.3296Z" fill="#4D5152"/>
</svg>
