<svg width="76" height="76" viewBox="0 0 76 76" fill="none" xmlns="http://www.w3.org/2000/svg">
<path d="M13.6707 37.934C13.6707 44.3943 16.237 50.5901 20.8052 55.1582C25.3733 59.7264 31.5691 62.2927 38.0294 62.2927C44.4898 62.2927 50.6855 59.7264 55.2537 55.1582C59.8218 50.5901 62.3882 44.3943 62.3882 37.934C62.3882 31.4736 59.8218 25.2779 55.2537 20.7097C50.6855 16.1416 44.4898 13.5752 38.0294 13.5752C31.5691 13.5752 25.3733 16.1416 20.8052 20.7097C16.237 25.2779 13.6707 31.4736 13.6707 37.934Z" fill="white"/>
<path d="M32.9546 19.6644C32.9545 21.1306 33.2432 22.5825 33.8042 23.9371C34.3652 25.2917 35.1875 26.5226 36.2243 27.5594C37.261 28.5962 38.4918 29.4187 39.8464 29.9798C41.201 30.5409 42.6528 30.8297 44.119 30.8297C45.5853 30.8297 47.0371 30.5409 48.3917 29.9798C49.7463 29.4187 50.9771 28.5962 52.0138 27.5594C53.0505 26.5226 53.8729 25.2917 54.4339 23.9371C54.9949 22.5825 55.2836 21.1306 55.2835 19.6644C55.2836 18.1982 54.9949 16.7463 54.4339 15.3917C53.8729 14.037 53.0505 12.8061 52.0138 11.7693C50.9771 10.7325 49.7463 9.91008 48.3917 9.34895C47.0371 8.78783 45.5853 8.49902 44.119 8.49902C42.6528 8.49902 41.201 8.78783 39.8464 9.34895C38.4918 9.91008 37.261 10.7325 36.2243 11.7693C35.1875 12.8061 34.3652 14.037 33.8042 15.3917C33.2432 16.7463 32.9545 18.1982 32.9546 19.6644Z" fill="#ACF0F2"/>
<path d="M44.1191 31.8436C37.4034 31.8436 31.9397 26.3803 31.9397 19.6642C31.9397 12.9491 37.4034 7.48535 44.1191 7.48535C50.8347 7.48535 56.2985 12.9491 56.2985 19.6642C56.2985 26.3804 50.8347 31.8436 44.1191 31.8436ZM44.1191 9.51575C38.5225 9.51575 33.9696 14.0681 33.9696 19.6642C33.9696 25.2603 38.5225 29.8137 44.1191 29.8137C49.7157 29.8137 54.2686 25.2603 54.2686 19.6642C54.2686 14.0681 49.7156 9.51575 44.1191 9.51575Z" fill="#4D5152"/>
<path d="M22.8052 23.7249C22.8051 25.1911 23.0937 26.643 23.6548 27.9977C24.2158 29.3523 25.0381 30.5832 26.0748 31.62C27.1116 32.6568 28.3424 33.4792 29.697 34.0404C31.0516 34.6015 32.5034 34.8903 33.9696 34.8903C35.4358 34.8903 36.8877 34.6015 38.2423 34.0404C39.5969 33.4792 40.8277 32.6568 41.8644 31.62C42.9011 30.5832 43.7235 29.3523 44.2845 27.9977C44.8455 26.643 45.1342 25.1911 45.1341 23.7249C45.1342 22.2587 44.8455 20.8068 44.2845 19.4522C43.7235 18.0976 42.9011 16.8667 41.8644 15.8299C40.8277 14.7931 39.5969 13.9706 38.2423 13.4095C36.8877 12.8484 35.4358 12.5596 33.9696 12.5596C32.5034 12.5596 31.0516 12.8484 29.697 13.4095C28.3424 13.9706 27.1116 14.7931 26.0748 15.8299C25.0381 16.8667 24.2158 18.0976 23.6548 19.4522C23.0937 20.8068 22.8051 22.2587 22.8052 23.7249Z" fill="white"/>
<path d="M33.9694 35.9037C27.2538 35.9037 21.79 30.4404 21.79 23.7243C21.79 17.0082 27.2538 11.5449 33.9694 11.5449C40.6851 11.5449 46.1488 17.0082 46.1488 23.7243C46.1488 30.4404 40.6851 35.9037 33.9694 35.9037ZM33.9694 13.5748C28.3728 13.5748 23.8199 18.1282 23.8199 23.7243C23.8199 29.3204 28.3728 33.8738 33.9694 33.8738C39.566 33.8738 44.1189 29.3204 44.1189 23.7243C44.1189 18.1282 39.566 13.5748 33.9694 13.5748Z" fill="#4D5152"/>
<path d="M51.2238 36.919H24.8351L22.8052 26.7695H53.2536L51.2238 36.919ZM43.1042 67.3675H32.9547L26.865 36.919H49.1939L43.1042 67.3675Z" fill="#FFB957"/>
<path d="M51.2236 37.9333H24.8349C24.3512 37.9333 23.9344 37.5913 23.8398 37.1175L21.8099 26.968C21.7499 26.6697 21.8273 26.3604 22.0201 26.1256C22.1153 26.0094 22.2351 25.9159 22.3708 25.8516C22.5066 25.7873 22.6549 25.754 22.8051 25.7539H53.2535C53.5578 25.7539 53.8457 25.8907 54.0385 26.1256C54.1338 26.2416 54.2021 26.3774 54.2384 26.5231C54.2748 26.6688 54.2783 26.8208 54.2487 26.968L52.2187 37.1176C52.1726 37.3476 52.0483 37.5545 51.8669 37.7032C51.6855 37.852 51.4582 37.9332 51.2236 37.9333ZM25.667 35.9034H50.3915L52.0155 27.7839H24.043L25.667 35.9034Z" fill="#4D5152"/>
<path d="M43.1041 68.3823H32.9546C32.4709 68.3823 32.0541 68.0403 31.9594 67.5665L25.8697 37.118C25.8098 36.8197 25.8871 36.5105 26.0799 36.2756C26.1751 36.1595 26.2949 36.0659 26.4307 36.0016C26.5664 35.9374 26.7147 35.904 26.8649 35.9039H49.1938C49.4981 35.9039 49.786 36.0407 49.9788 36.2756C50.0741 36.3917 50.1424 36.5275 50.1787 36.6732C50.215 36.8189 50.2185 36.9708 50.1889 37.118L44.0992 67.5665C44.0531 67.7965 43.9288 68.0035 43.7474 68.1522C43.566 68.3009 43.3387 68.3822 43.1041 68.3823ZM33.7867 66.3523H42.272L47.9558 37.9337H28.1028L33.7867 66.3523ZM32.9546 30.8291H34.9845V32.859H32.9546V30.8291ZM37.0144 30.8291H39.0443V32.859H37.0144V30.8291ZM41.0741 30.8291H43.104V32.859H41.0741V30.8291Z" fill="#4D5152"/>
<path d="M35.9993 62.292H40.0591V64.3219H35.9993V62.292Z" fill="#4D5152"/>
</svg>
