<svg width="182" height="201" viewBox="0 0 182 201" fill="none" xmlns="http://www.w3.org/2000/svg">
<path d="M159.434 45.8891C159.408 45.8945 159.381 45.8945 159.356 45.8891C159.285 45.8684 159.225 45.8204 159.19 45.7556C159.154 45.6909 159.146 45.6147 159.166 45.5438C164.15 28.9446 160.57 14.3611 149.589 6.45968C139.521 -0.751314 125.79 -0.63995 115.416 6.74923C86.0653 27.6472 63.6305 31.6954 40.3771 20.297C40.3442 20.2809 40.3148 20.2585 40.2905 20.231C40.2663 20.2036 40.2477 20.1716 40.2358 20.137C40.2239 20.1023 40.219 20.0657 40.2212 20.0291C40.2235 19.9926 40.233 19.9568 40.249 19.9239C40.2651 19.891 40.2875 19.8616 40.315 19.8373C40.3425 19.8131 40.3744 19.7945 40.4091 19.7826C40.4437 19.7707 40.4803 19.7658 40.5169 19.768C40.5535 19.7703 40.5892 19.7798 40.6221 19.7958C63.6639 31.094 85.9317 27.0347 115.093 6.29263C125.673 -1.23019 139.655 -1.34156 149.912 6.00864C161.099 14.027 164.757 28.8388 159.701 45.7053C159.681 45.76 159.645 45.8072 159.597 45.8401C159.549 45.8731 159.492 45.8902 159.434 45.8891Z" fill="#433839"/>
<path d="M141.008 131.218C135.38 131.191 129.837 129.843 124.826 127.281C104.224 116.907 88.1979 117.375 82.0226 128.528C82.0052 128.561 81.9815 128.589 81.953 128.612C81.9244 128.635 81.8916 128.652 81.8565 128.663C81.8213 128.673 81.7844 128.676 81.7479 128.672C81.7115 128.668 81.6761 128.657 81.644 128.64C81.58 128.603 81.5326 128.544 81.5118 128.473C81.491 128.402 81.4985 128.326 81.5326 128.261C87.875 116.813 104.151 116.261 125.077 126.78C130.08 129.369 135.638 130.701 141.271 130.659C146.905 130.617 152.443 129.204 157.407 126.54C169.707 120.142 178.94 107.241 180.927 93.6873C180.933 93.651 180.945 93.6163 180.964 93.5849C180.983 93.5535 181.008 93.5262 181.038 93.5045C181.067 93.4827 181.101 93.4671 181.136 93.4583C181.172 93.4495 181.209 93.4479 181.245 93.4534C181.317 93.4657 181.382 93.5057 181.426 93.5649C181.469 93.6241 181.488 93.6979 181.479 93.7708C179.463 107.513 170.114 120.571 157.663 127.047C152.53 129.763 146.815 131.194 141.008 131.218Z" fill="#433839"/>
<path d="M175.559 98.688H175.465C175.395 98.6629 175.339 98.6112 175.307 98.5444C175.276 98.4776 175.273 98.4011 175.298 98.3316C181.273 81.9106 172.747 75.3511 164.501 69.0032C156.705 62.9894 148.603 56.7529 153.208 42.3086C153.219 42.2735 153.237 42.2408 153.26 42.2127C153.284 42.1845 153.313 42.1615 153.346 42.1448C153.378 42.1282 153.414 42.1183 153.451 42.1159C153.487 42.1134 153.524 42.1183 153.559 42.1304C153.593 42.1412 153.625 42.1587 153.653 42.1819C153.681 42.2052 153.704 42.2337 153.72 42.2658C153.737 42.2979 153.747 42.333 153.75 42.369C153.753 42.4051 153.748 42.4413 153.737 42.4757C149.277 56.5524 156.822 62.3546 164.868 68.5466C173.271 75.0114 181.963 81.699 175.849 98.5043C175.83 98.564 175.79 98.6151 175.738 98.6487C175.685 98.6823 175.622 98.6962 175.559 98.688Z" fill="#433839"/>
<path opacity="0.1" d="M170.286 101.367C166.216 115.204 150.691 125.807 136.648 122.527C119.62 118.523 110.644 104.012 113.662 89.9075C116.68 75.8029 132.399 83.0473 146.515 80.0237C164.623 76.1203 174.334 87.5242 170.286 101.367Z" fill="#433839"/>
<path d="M89.2448 21.8506C89.2921 22.2286 89.2259 22.6121 89.0547 22.9524C88.8835 23.2927 88.615 23.5744 88.2833 23.7618C87.9516 23.9491 87.5717 24.0336 87.1918 24.0045C86.812 23.9754 86.4494 23.8341 86.1501 23.5984C85.8508 23.3627 85.6283 23.0434 85.5109 22.681C85.3936 22.3186 85.3866 21.9294 85.4909 21.5631C85.5952 21.1967 85.8061 20.8696 86.0967 20.6233C86.3874 20.3771 86.7447 20.2228 87.1232 20.1801C87.6255 20.1234 88.1299 20.267 88.527 20.5797C88.9241 20.8924 89.182 21.349 89.2448 21.8506Z" fill="white"/>
<path d="M87.3349 24.256C86.9115 24.2555 86.4974 24.1325 86.1423 23.9019C85.7873 23.6713 85.5066 23.3429 85.3341 22.9563C85.1615 22.5697 85.1045 22.1414 85.1699 21.7231C85.2353 21.3049 85.4203 20.9144 85.7027 20.599C85.985 20.2835 86.3526 20.0565 86.7611 19.9452C87.1696 19.834 87.6015 19.8433 88.0048 19.9721C88.4081 20.1009 88.7655 20.3436 89.034 20.671C89.3024 20.9983 89.4704 21.3964 89.5177 21.8171C89.5745 22.3944 89.4037 22.9711 89.0419 23.4245C88.68 23.8779 88.1555 24.1722 87.5799 24.2449C87.4986 24.254 87.4167 24.2577 87.3349 24.256ZM87.3349 20.4194H87.1567C86.8351 20.4555 86.5314 20.5861 86.2839 20.7947C86.0365 21.0033 85.8564 21.2806 85.7665 21.5915C85.6766 21.9024 85.6809 22.233 85.7787 22.5415C85.8766 22.8499 86.0637 23.1225 86.3165 23.3247C86.5692 23.5269 86.8762 23.6496 87.1986 23.6774C87.5211 23.7051 87.8445 23.6367 88.1281 23.4808C88.4117 23.3248 88.6427 23.0883 88.7919 22.8011C88.9411 22.5139 89.0018 22.1889 88.9664 21.8672C88.9131 21.4704 88.719 21.106 88.4196 20.8403C88.1201 20.5745 87.7352 20.4252 87.3349 20.4194Z" fill="#433839"/>
<path d="M155.402 42.1644C155.45 42.5427 155.384 42.9265 155.212 43.267C155.041 43.6075 154.772 43.8894 154.44 44.0767C154.108 44.264 153.728 44.3483 153.348 44.3188C152.968 44.2894 152.605 44.1475 152.306 43.9113C152.007 43.6751 151.785 43.3552 151.668 42.9924C151.551 42.6295 151.545 42.2401 151.65 41.8737C151.755 41.5072 151.967 41.1804 152.258 40.9347C152.55 40.689 152.908 40.5356 153.286 40.4939C153.788 40.4388 154.291 40.5831 154.687 40.8957C155.083 41.2082 155.34 41.6639 155.402 42.1644Z" fill="white"/>
<path d="M153.47 44.5756C153.116 44.5792 152.767 44.4974 152.452 44.3373C152.136 44.1772 151.864 43.9433 151.659 43.6557C151.453 43.3681 151.32 43.0351 151.27 42.6849C151.22 42.3348 151.256 41.9778 151.374 41.6444C151.491 41.3109 151.688 41.0107 151.946 40.7693C152.204 40.5278 152.517 40.3522 152.858 40.2574C153.199 40.1625 153.557 40.1512 153.903 40.2244C154.249 40.2976 154.572 40.4531 154.845 40.6778C155.299 41.0443 155.591 41.5741 155.658 42.1534C155.719 42.7321 155.551 43.3117 155.191 43.7682C154.824 44.2057 154.3 44.4817 153.732 44.5367C153.645 44.556 153.558 44.569 153.47 44.5756ZM153.47 40.739C153.409 40.7335 153.347 40.7335 153.286 40.739C153.07 40.7591 152.859 40.8227 152.668 40.9261C152.477 41.0294 152.308 41.1704 152.172 41.3404C152.037 41.5087 151.937 41.7022 151.876 41.9095C151.816 42.1169 151.798 42.3342 151.822 42.5488C151.877 42.9773 152.097 43.3675 152.435 43.6375C152.772 43.9075 153.201 44.0362 153.631 43.9965C154.068 43.9485 154.468 43.7304 154.745 43.3896C154.88 43.2222 154.98 43.0295 155.039 42.823C155.098 42.6165 155.116 42.4002 155.09 42.1868C155.049 41.7852 154.859 41.4133 154.559 41.1436C154.258 40.874 153.868 40.7258 153.464 40.7279L153.47 40.739Z" fill="#433839"/>
<path d="M174.529 113.583C174.576 113.96 174.509 114.342 174.337 114.681C174.166 115.02 173.898 115.3 173.567 115.486C173.236 115.672 172.857 115.756 172.479 115.726C172.1 115.696 171.739 115.555 171.441 115.32C171.143 115.085 170.922 114.766 170.805 114.405C170.689 114.043 170.682 113.656 170.786 113.291C170.89 112.926 171.101 112.6 171.39 112.354C171.68 112.109 172.036 111.955 172.413 111.913C172.915 111.858 173.418 112.002 173.814 112.315C174.21 112.627 174.467 113.083 174.529 113.583Z" fill="white"/>
<path d="M172.619 116.006C172.195 116.006 171.779 115.883 171.423 115.651C171.067 115.42 170.785 115.09 170.612 114.702C170.44 114.314 170.383 113.885 170.449 113.465C170.515 113.046 170.701 112.654 170.984 112.338C171.268 112.022 171.637 111.795 172.047 111.684C172.457 111.573 172.89 111.583 173.295 111.713C173.699 111.843 174.057 112.087 174.326 112.416C174.594 112.745 174.762 113.145 174.808 113.567C174.84 113.854 174.814 114.144 174.734 114.421C174.653 114.698 174.519 114.957 174.338 115.182C174.158 115.407 173.935 115.594 173.682 115.732C173.429 115.871 173.151 115.959 172.864 115.99C172.783 116.001 172.701 116.007 172.619 116.006ZM172.619 112.17C172.558 112.165 172.497 112.165 172.436 112.17C172.114 112.207 171.811 112.338 171.565 112.548C171.318 112.757 171.139 113.034 171.05 113.345C170.961 113.656 170.966 113.986 171.064 114.294C171.163 114.602 171.35 114.874 171.603 115.076C171.856 115.278 172.163 115.4 172.485 115.427C172.807 115.455 173.13 115.386 173.413 115.23C173.697 115.074 173.927 114.838 174.076 114.551C174.225 114.264 174.286 113.939 174.251 113.618C174.203 113.181 173.985 112.781 173.644 112.504C173.351 112.281 172.993 112.164 172.625 112.17H172.619Z" fill="#433839"/>
<path d="M154.884 113.316C154.708 113.651 154.436 113.927 154.103 114.107C153.771 114.288 153.392 114.366 153.015 114.332C152.638 114.297 152.279 114.152 151.985 113.914C151.69 113.676 151.473 113.356 151.36 112.995C151.248 112.633 151.245 112.246 151.351 111.883C151.458 111.52 151.671 111.196 151.961 110.954C152.252 110.711 152.608 110.56 152.985 110.52C153.361 110.479 153.741 110.551 154.077 110.727C154.301 110.843 154.5 111.002 154.662 111.195C154.825 111.388 154.947 111.612 155.022 111.853C155.097 112.094 155.124 112.347 155.1 112.598C155.076 112.85 155.003 113.094 154.884 113.316Z" fill="white"/>
<path d="M153.175 114.624C152.82 114.623 152.471 114.537 152.156 114.374C151.646 114.097 151.263 113.632 151.09 113.078C150.918 112.523 150.969 111.923 151.232 111.406C151.507 110.898 151.971 110.519 152.523 110.351C153.076 110.182 153.672 110.238 154.184 110.505C154.696 110.773 155.082 111.231 155.259 111.781C155.436 112.331 155.389 112.928 155.13 113.444C154.941 113.799 154.659 114.096 154.315 114.304C153.971 114.511 153.577 114.622 153.175 114.624ZM153.175 110.788C152.885 110.788 152.6 110.865 152.349 111.011C152.099 111.157 151.892 111.367 151.749 111.62C151.606 111.872 151.533 112.158 151.537 112.448C151.542 112.738 151.623 113.022 151.773 113.27C151.922 113.519 152.136 113.723 152.39 113.862C152.645 114.001 152.932 114.07 153.222 114.061C153.512 114.053 153.794 113.967 154.04 113.814C154.287 113.66 154.488 113.444 154.623 113.188C154.821 112.8 154.859 112.35 154.731 111.934C154.602 111.517 154.315 111.168 153.932 110.96C153.696 110.848 153.437 110.793 153.175 110.799V110.788Z" fill="#433839"/>
<path d="M160.364 105.715C160.312 105.714 160.263 105.694 160.224 105.66L148.988 95.5142C148.956 95.4752 148.939 95.4261 148.94 95.3757C148.941 95.3253 148.96 95.2769 148.993 95.2393C149.027 95.2017 149.073 95.1773 149.123 95.1706C149.173 95.1638 149.224 95.1751 149.266 95.2024L160.208 105.081L161.717 93.1588C161.72 93.1317 161.729 93.1055 161.743 93.0817C161.756 93.058 161.775 93.0372 161.796 93.0207C161.818 93.0041 161.843 92.992 161.869 92.9851C161.896 92.9782 161.924 92.9767 161.951 92.9806C161.978 92.984 162.004 92.9928 162.028 93.0065C162.051 93.0202 162.072 93.0384 162.089 93.0602C162.105 93.082 162.117 93.1068 162.124 93.1333C162.131 93.1598 162.133 93.1874 162.129 93.2145L160.57 105.532C160.565 105.569 160.551 105.605 160.527 105.634C160.503 105.664 160.472 105.686 160.436 105.699C160.414 105.71 160.389 105.716 160.364 105.715Z" fill="#263238"/>
<path d="M153.175 112.637C153.147 112.637 153.119 112.631 153.093 112.62C153.067 112.608 153.044 112.591 153.025 112.57C152.986 112.531 152.965 112.478 152.965 112.423C152.965 112.368 152.986 112.315 153.025 112.275L160.202 105.354C160.242 105.315 160.295 105.294 160.35 105.294C160.405 105.294 160.458 105.315 160.497 105.354C160.517 105.373 160.533 105.396 160.543 105.421C160.554 105.447 160.559 105.474 160.559 105.501C160.559 105.529 160.554 105.556 160.543 105.582C160.533 105.607 160.517 105.63 160.497 105.649L153.32 112.57C153.301 112.591 153.279 112.607 153.254 112.619C153.229 112.63 153.202 112.637 153.175 112.637Z" fill="#263238"/>
<path d="M150.608 96.1319C150.459 96.4282 150.224 96.6733 149.935 96.8359C149.645 96.9985 149.314 97.0712 148.983 97.0447C148.652 97.0182 148.337 96.8937 148.077 96.6872C147.817 96.4806 147.625 96.2014 147.524 95.885C147.424 95.5686 147.42 95.2295 147.513 94.9109C147.606 94.5923 147.792 94.3087 148.047 94.0962C148.302 93.8837 148.615 93.752 148.945 93.7178C149.275 93.6837 149.608 93.7487 149.901 93.9045C150.287 94.1096 150.577 94.4576 150.709 94.874C150.841 95.2903 150.805 95.7419 150.608 96.1319Z" fill="#433839"/>
<path d="M162.969 93.7321C162.862 93.9391 162.695 94.1095 162.49 94.2216C162.285 94.3338 162.052 94.3828 161.819 94.3623C161.587 94.3418 161.365 94.2528 161.183 94.1066C161.001 93.9603 160.867 93.7634 160.797 93.5407C160.727 93.318 160.724 93.0795 160.79 92.8554C160.855 92.6313 160.985 92.4316 161.164 92.2816C161.343 92.1317 161.563 92.0381 161.795 92.0128C162.027 91.9875 162.261 92.0316 162.468 92.1395C162.606 92.2112 162.728 92.3092 162.827 92.428C162.927 92.5468 163.002 92.6841 163.049 92.832C163.095 92.9799 163.112 93.1355 163.099 93.2899C163.085 93.4444 163.041 93.5946 162.969 93.7321Z" fill="#263238"/>
<path d="M95.4589 70.1175C95.4678 69.7388 95.5888 69.3713 95.8066 69.0613C96.0244 68.7514 96.3292 68.513 96.6824 68.3762C97.0357 68.2395 97.4216 68.2106 97.7913 68.2931C98.161 68.3756 98.4979 68.566 98.7595 68.84C99.0211 69.114 99.1955 69.4594 99.2608 69.8325C99.326 70.2057 99.2792 70.5898 99.1262 70.9363C98.9732 71.2828 98.7208 71.5762 98.4011 71.7794C98.0814 71.9825 97.7086 72.0863 97.3299 72.0776C97.0781 72.0725 96.8298 72.0177 96.5992 71.9163C96.3687 71.8149 96.1605 71.669 95.9866 71.4868C95.8127 71.3046 95.6766 71.0899 95.586 70.8549C95.4954 70.6199 95.4523 70.3693 95.4589 70.1175Z" fill="white"/>
<path d="M97.3745 72.3782H97.3188C96.7403 72.3651 96.1906 72.1234 95.7899 71.706C95.3892 71.2886 95.1701 70.7294 95.1805 70.1509C95.1937 69.5719 95.4352 69.0217 95.8525 68.6201C96.2697 68.2185 96.8288 67.9981 97.4079 68.0071C97.9716 68.0417 98.5004 68.2919 98.8847 68.7058C99.2691 69.1197 99.4794 69.6656 99.4723 70.2303C99.4651 70.7951 99.241 71.3354 98.8463 71.7395C98.4516 72.1435 97.9166 72.3802 97.3522 72.4005L97.3745 72.3782ZM97.3745 68.5417C96.9469 68.5415 96.5363 68.7087 96.2304 69.0073C95.9245 69.3059 95.7475 69.7124 95.7374 70.1398C95.7284 70.573 95.8916 70.9922 96.1912 71.3053C96.4907 71.6185 96.9022 71.8 97.3355 71.8103C97.5508 71.8187 97.7657 71.7831 97.9667 71.7055C98.1678 71.628 98.3509 71.5101 98.5048 71.3592C98.741 71.1345 98.9048 70.8444 98.9751 70.5261C99.0454 70.2077 99.019 69.8756 98.8994 69.5724C98.7797 69.2691 98.5723 69.0085 98.3036 68.8238C98.0349 68.6392 97.7172 68.539 97.3912 68.5361L97.3745 68.5417Z" fill="#433839"/>
<path d="M90.297 70.1501C90.2454 70.1505 90.1954 70.1321 90.1565 70.0982C90.1175 70.0644 90.0922 70.0175 90.0854 69.9663L89.4451 64.1753C89.4395 64.1477 89.4395 64.1193 89.4451 64.0917L91.6724 56.3517C91.6912 56.3036 91.7274 56.2643 91.7738 56.2416C91.8202 56.219 91.8735 56.2145 91.923 56.2292C91.9769 56.2448 92.0224 56.2811 92.0495 56.3301C92.0767 56.3792 92.0832 56.437 92.0678 56.4909L89.8738 64.192L90.5142 69.9385C90.5191 69.9935 90.5028 70.0484 90.4686 70.0918C90.4345 70.1353 90.3851 70.1641 90.3304 70.1723L90.297 70.1501Z" fill="#263238"/>
<path d="M97.3747 70.3726C97.3284 70.3715 97.2837 70.3559 97.2466 70.3281L89.5234 64.3087C89.4801 64.2738 89.4524 64.2232 89.4462 64.168C89.4399 64.1128 89.4556 64.0573 89.4899 64.0136C89.5068 63.9924 89.5276 63.9747 89.5512 63.9615C89.5749 63.9484 89.6009 63.94 89.6278 63.9369C89.6547 63.9338 89.6819 63.936 89.7079 63.9435C89.734 63.9509 89.7583 63.9634 89.7795 63.9802L97.4916 69.9996C97.5341 70.0336 97.5619 70.0826 97.5691 70.1365C97.5764 70.1905 97.5626 70.2451 97.5306 70.2891C97.5122 70.3135 97.4887 70.3335 97.4618 70.348C97.4349 70.3624 97.4052 70.3708 97.3747 70.3726Z" fill="#263238"/>
<path d="M90.1858 56.3635C90.1936 56.0332 90.2991 55.7127 90.4891 55.4424C90.679 55.1721 90.9448 54.9642 91.2529 54.845C91.561 54.7258 91.8975 54.7006 92.2199 54.7726C92.5424 54.8446 92.8362 55.0106 93.0642 55.2496C93.2923 55.4886 93.4445 55.7898 93.5013 56.1152C93.5582 56.4406 93.5174 56.7756 93.3839 57.0778C93.2504 57.38 93.0304 57.6358 92.7515 57.813C92.4727 57.9901 92.1476 58.0806 91.8173 58.073C91.5979 58.0679 91.3817 58.0197 91.1809 57.931C90.9802 57.8424 90.7989 57.715 90.6473 57.5563C90.4958 57.3975 90.3771 57.2105 90.2979 57.0058C90.2187 56.8011 90.1806 56.5829 90.1858 56.3635Z" fill="#433839"/>
<path d="M89.1389 69.9045C89.1434 69.6695 89.2176 69.4412 89.3521 69.2485C89.4866 69.0557 89.6754 68.9073 89.8944 68.822C90.1134 68.7368 90.3528 68.7185 90.5822 68.7695C90.8116 68.8205 91.0207 68.9386 91.1829 69.1086C91.3452 69.2787 91.4532 69.4931 91.4934 69.7247C91.5335 69.9562 91.5039 70.1945 91.4084 70.4093C91.3129 70.624 91.1558 70.8055 90.9569 70.9308C90.7581 71.0561 90.5265 71.1194 90.2915 71.1129C89.9789 71.1041 89.6824 70.9722 89.4665 70.7459C89.2506 70.5196 89.1329 70.2172 89.1389 69.9045Z" fill="#263238"/>
<path d="M145.196 62.3996L149.383 71.8658C149.439 71.994 149.469 72.1321 149.471 72.272C149.474 72.4119 149.448 72.5509 149.396 72.6809C149.345 72.8109 149.267 72.9293 149.17 73.0293C149.072 73.1293 148.955 73.2089 148.826 73.2635C148.567 73.3735 148.275 73.3768 148.013 73.2725C147.751 73.1682 147.541 72.9649 147.429 72.7066L143.236 63.2405C143.126 62.9811 143.122 62.6888 143.227 62.4271C143.331 62.1654 143.534 61.9554 143.792 61.8428C144.052 61.731 144.346 61.7269 144.609 61.8312C144.872 61.9356 145.083 62.14 145.196 62.3996Z" fill="#433839"/>
<path d="M117.844 117.013L132.149 116.011C132.319 116 132.487 116.058 132.615 116.17C132.744 116.283 132.822 116.442 132.834 116.612C132.844 116.782 132.788 116.949 132.676 117.077C132.565 117.205 132.407 117.284 132.238 117.297L117.933 118.3C117.848 118.306 117.763 118.295 117.683 118.268C117.603 118.241 117.528 118.198 117.465 118.142C117.401 118.086 117.349 118.018 117.312 117.942C117.275 117.866 117.253 117.783 117.248 117.698C117.242 117.614 117.253 117.53 117.279 117.45C117.306 117.37 117.348 117.296 117.404 117.232C117.459 117.168 117.526 117.116 117.602 117.079C117.677 117.041 117.76 117.019 117.844 117.013Z" fill="#263238"/>
<path d="M93.0927 38.5168L106.897 42.4147C106.978 42.4377 107.054 42.4767 107.12 42.5293C107.186 42.5819 107.242 42.6471 107.283 42.7211C107.323 42.7952 107.349 42.8766 107.359 42.9606C107.368 43.0447 107.36 43.1298 107.336 43.2109C107.29 43.3742 107.181 43.5126 107.033 43.5959C106.885 43.6793 106.71 43.701 106.546 43.6564L92.7419 39.7586C92.6605 39.7355 92.5845 39.6966 92.5183 39.644C92.452 39.5914 92.3969 39.5262 92.356 39.4521C92.3151 39.3781 92.2892 39.2967 92.28 39.2126C92.2707 39.1285 92.2782 39.0435 92.302 38.9623C92.3487 38.799 92.4579 38.6607 92.6059 38.5773C92.7539 38.4939 92.9288 38.4722 93.0927 38.5168Z" fill="#263238"/>
<path d="M82.7966 30.6155L75.5578 35.2372C75.3617 35.3607 75.1249 35.402 74.8987 35.3519C74.6724 35.3019 74.4751 35.1646 74.3494 34.9699C74.2241 34.7734 74.1819 34.5353 74.232 34.3077C74.2821 34.0801 74.4205 33.8817 74.6167 33.756L81.8555 29.1343C82.0531 29.011 82.2913 28.9705 82.5185 29.0216C82.7457 29.0726 82.9437 29.2112 83.0694 29.4071C83.1311 29.5043 83.1729 29.6127 83.1926 29.7261C83.2122 29.8395 83.2093 29.9557 83.184 30.068C83.1586 30.1802 83.1113 30.2864 83.0449 30.3803C82.9784 30.4743 82.894 30.5542 82.7966 30.6155Z" fill="#433839"/>
<path d="M120.283 64.1032C120.238 64.1027 120.194 64.0879 120.158 64.0609C120.122 64.0338 120.095 63.996 120.082 63.9528C120.069 63.8989 120.077 63.8419 120.105 63.7939C120.133 63.746 120.179 63.7111 120.233 63.6967L129.81 61.1185C129.862 61.1092 129.916 61.1197 129.96 61.1479C130.005 61.1761 130.038 61.22 130.052 61.2709C130.066 61.3219 130.06 61.3762 130.036 61.4232C130.012 61.4702 129.971 61.5065 129.922 61.525L120.322 64.0976L120.283 64.1032Z" fill="#263238"/>
<path d="M129.231 61.6704C129.163 61.5486 129.132 61.4094 129.143 61.2703C129.153 61.1311 129.205 60.9982 129.291 60.8883C129.377 60.7785 129.494 60.6965 129.626 60.6528C129.759 60.6091 129.901 60.6055 130.036 60.6427C130.17 60.6798 130.291 60.7559 130.382 60.8614C130.474 60.9668 130.532 61.097 130.549 61.2355C130.567 61.3739 130.543 61.5145 130.481 61.6394C130.419 61.7644 130.321 61.8681 130.2 61.9376C130.119 61.9849 130.03 62.0156 129.937 62.0277C129.844 62.0399 129.749 62.0333 129.659 62.0084C129.569 61.9835 129.484 61.9407 129.411 61.8827C129.337 61.8246 129.276 61.7524 129.231 61.6704Z" fill="#433839"/>
<path d="M119.665 64.248C119.573 64.0833 119.55 63.8888 119.601 63.7071C119.652 63.5255 119.773 63.3716 119.938 63.2791C120.018 63.2327 120.107 63.2028 120.2 63.1911C120.292 63.1794 120.386 63.1862 120.475 63.2111C120.565 63.236 120.649 63.2784 120.722 63.336C120.795 63.3935 120.856 63.4651 120.901 63.5464C120.956 63.6278 120.993 63.7197 121.011 63.8163C121.028 63.9128 121.026 64.012 121.003 64.1075C120.981 64.203 120.939 64.2929 120.88 64.3715C120.821 64.45 120.747 64.5156 120.661 64.564C120.576 64.6124 120.481 64.6427 120.384 64.653C120.286 64.6632 120.188 64.6532 120.094 64.6235C120 64.5939 119.914 64.5452 119.84 64.4806C119.766 64.416 119.707 64.3368 119.665 64.248Z" fill="#433839"/>
<path d="M136.13 86.5093C136.221 86.2863 136.24 86.0407 136.185 85.8064C136.13 85.572 136.004 85.3604 135.824 85.2008L118.996 71.731C118.92 71.6631 118.828 71.6152 118.728 71.5917C118.629 71.5682 118.525 71.5698 118.426 71.5963C118.327 71.6228 118.237 71.6734 118.162 71.7435C118.088 71.8137 118.032 71.9012 118 71.9982L112.637 84.2486L101.946 92.2837C101.858 92.3365 101.784 92.4106 101.732 92.4992C101.679 92.5878 101.65 92.6881 101.646 92.791C101.642 92.8939 101.664 92.9961 101.709 93.0884C101.755 93.1807 101.823 93.2601 101.907 93.3194L118.735 106.789C118.93 106.928 119.163 107.003 119.403 107.003C119.642 107.003 119.876 106.928 120.071 106.789L130.79 98.7374L136.13 86.5093Z" fill="#433839"/>
<path d="M130.25 98.3255L112.12 83.8144L117.488 71.5641C117.519 71.4671 117.574 71.3795 117.648 71.3093C117.722 71.239 117.812 71.1883 117.911 71.1618C118.009 71.1352 118.113 71.1337 118.212 71.1572C118.311 71.1808 118.403 71.2288 118.479 71.2968L135.312 84.7666C135.491 84.9269 135.616 85.1388 135.67 85.3731C135.724 85.6075 135.704 85.8527 135.612 86.0752L130.25 98.3255Z" fill="#433839"/>
<path d="M129.833 96.7274C129.801 96.7272 129.772 96.7153 129.749 96.694L113.478 83.6752C113.426 83.6211 113.389 83.5531 113.374 83.4792C113.358 83.4054 113.363 83.3285 113.389 83.2576L118.094 72.4829C118.104 72.4631 118.117 72.4455 118.133 72.4311C118.149 72.4167 118.168 72.4059 118.189 72.3993C118.21 72.3952 118.232 72.3956 118.253 72.4004C118.274 72.4052 118.294 72.4143 118.312 72.4272L134.577 85.4459C134.631 85.4989 134.669 85.5669 134.685 85.6412C134.701 85.7156 134.694 85.7929 134.666 85.8636L129.938 96.6439C129.93 96.6635 129.917 96.6808 129.9 96.6943C129.884 96.7079 129.865 96.7173 129.844 96.7218L129.833 96.7274ZM113.684 83.4636L129.788 96.3654L134.438 85.7411C134.446 85.71 134.446 85.6774 134.438 85.6464L118.317 72.7501L113.64 83.369C113.629 83.3996 113.629 83.433 113.64 83.4636H113.684Z" fill="white"/>
<path d="M130.25 98.3255L112.12 83.8145L101.389 91.8663C101.302 91.92 101.23 91.9945 101.178 92.083C101.126 92.1715 101.097 92.2713 101.093 92.3737C101.09 92.4761 101.111 92.5779 101.156 92.67C101.201 92.7621 101.268 92.8418 101.35 92.902L118.184 106.372C118.378 106.511 118.612 106.587 118.852 106.587C119.091 106.587 119.325 106.511 119.52 106.372L130.25 98.3255Z" fill="#433839"/>
<path opacity="0.3" d="M106.958 89.639L111.307 86.376C111.516 86.2243 111.769 86.1426 112.028 86.1426C112.287 86.1426 112.539 86.2243 112.749 86.376L126.948 97.7354C127.036 97.8007 127.107 97.8867 127.155 97.9859C127.202 98.085 127.225 98.1942 127.221 98.304C127.216 98.4138 127.185 98.5209 127.13 98.6159C127.074 98.7109 126.997 98.791 126.903 98.8491L122.56 102.112C122.349 102.263 122.096 102.344 121.836 102.344C121.577 102.344 121.324 102.263 121.112 102.112L106.919 90.7527C106.832 90.6863 106.763 90.6002 106.717 90.5016C106.67 90.403 106.648 90.2947 106.652 90.1858C106.656 90.0769 106.685 89.9705 106.739 89.8754C106.792 89.7803 106.867 89.6993 106.958 89.639Z" fill="white"/>
<path opacity="0.3" d="M107.737 96.1595L109.931 94.489C110.026 94.4206 110.14 94.3838 110.257 94.3838C110.374 94.3838 110.488 94.4206 110.583 94.489L116.424 99.1831C116.465 99.2112 116.499 99.249 116.523 99.2931C116.546 99.3373 116.558 99.3865 116.558 99.4365C116.558 99.4865 116.546 99.5357 116.523 99.5798C116.499 99.624 116.465 99.6618 116.424 99.6898L114.197 101.332C114.102 101.401 113.988 101.438 113.871 101.438C113.754 101.438 113.64 101.401 113.545 101.332L107.715 96.6662C107.675 96.6364 107.643 96.5971 107.621 96.5519C107.6 96.5067 107.59 96.457 107.592 96.407C107.594 96.357 107.608 96.3083 107.634 96.2651C107.659 96.222 107.695 96.1857 107.737 96.1595Z" fill="white"/>
<path opacity="0.4" d="M148.163 32.7712C148.978 29.8725 149.046 26.8146 148.359 23.8831C147.672 20.9515 146.253 18.2418 144.235 16.007C142.217 13.7722 139.666 12.0852 136.819 11.1035C133.973 10.1218 130.924 9.87748 127.957 10.3933C124.991 10.9091 122.204 12.1682 119.855 14.0531C117.507 15.938 115.675 18.3871 114.53 21.1719C113.385 23.9567 112.964 26.9862 113.307 29.9776C113.65 32.969 114.745 35.8248 116.491 38.2782C117.117 39.1349 117.545 40.1202 117.744 41.1626C117.971 42.4295 118.549 43.6072 119.413 44.562C120.276 45.5168 121.389 46.2103 122.627 46.5639L128.301 48.1732C129.54 48.5262 130.853 48.5239 132.091 48.1665C133.328 47.8091 134.441 47.111 135.301 46.1519C136.007 45.3723 136.881 44.763 137.857 44.37C140.338 43.3389 142.554 41.76 144.339 39.7514C146.124 37.7428 147.431 35.3565 148.163 32.7712Z" fill="#433839"/>
<path d="M129.036 52.5886L119.715 49.9381C119.378 49.8409 119.092 49.6143 118.921 49.3076C118.75 49.001 118.707 48.6392 118.802 48.301C118.85 48.1306 118.932 47.9716 119.043 47.8332C119.154 47.6948 119.291 47.5798 119.446 47.4948C119.601 47.4099 119.772 47.3566 119.948 47.3383C120.125 47.3199 120.303 47.3367 120.472 47.3878L129.788 50.0383C130.126 50.1356 130.411 50.3622 130.582 50.6688C130.753 50.9755 130.796 51.3373 130.701 51.6754C130.653 51.8456 130.572 52.0045 130.462 52.1428C130.352 52.2812 130.215 52.3962 130.06 52.4812C129.905 52.5663 129.735 52.6195 129.559 52.638C129.383 52.6564 129.206 52.6396 129.036 52.5886Z" fill="#433839"/>
<path d="M127.076 56.0355L119.57 53.9029C119.232 53.8044 118.947 53.5767 118.776 53.2692C118.605 52.9616 118.562 52.5991 118.657 52.2602C118.754 51.9228 118.981 51.6375 119.287 51.4665C119.594 51.2954 119.956 51.2525 120.294 51.347L127.8 53.4852C128.138 53.5825 128.423 53.8091 128.594 54.1157C128.765 54.4224 128.808 54.7842 128.713 55.1223C128.616 55.4597 128.39 55.745 128.083 55.9161C127.776 56.0871 127.414 56.1301 127.076 56.0355Z" fill="#433839"/>
<path d="M128.323 48.435H128.273C128.201 48.4214 128.136 48.3801 128.094 48.3198C128.051 48.2595 128.034 48.185 128.045 48.112C128.134 47.5552 129.588 39.0023 132.349 32.5485C131.581 32.4038 130.751 32.2089 129.86 31.9583C128.969 31.7077 128.156 31.4349 127.427 31.1509C126.386 38.089 123.112 46.1353 122.906 46.6531C122.877 46.7218 122.823 46.7765 122.755 46.8052C122.686 46.834 122.609 46.8343 122.541 46.8063C122.472 46.7782 122.417 46.724 122.389 46.6556C122.36 46.5872 122.36 46.5102 122.388 46.4415C122.438 46.3135 125.846 37.9331 126.892 30.9337C121.486 28.7064 120.684 25.7886 120.611 24.5246C120.551 23.8267 120.709 23.1274 121.063 22.5231C121.417 21.9187 121.95 21.439 122.588 21.1502C123.858 20.6267 125.266 21.0499 126.358 22.2638C127.828 23.9343 127.978 27.0749 127.511 30.5829C128.251 30.878 129.086 31.1398 130.011 31.4237C130.935 31.7077 131.793 31.8803 132.583 32.0251C134.031 28.7955 135.818 26.1895 137.94 25.5547C139.516 25.0814 140.936 25.4656 141.738 26.5737C142.124 27.1548 142.322 27.8409 142.304 28.5385C142.286 29.2361 142.053 29.9111 141.637 30.4716C140.908 31.5128 138.703 33.5508 132.917 32.6209C130.133 39.1248 128.619 48.0397 128.596 48.1789C128.592 48.2483 128.561 48.3135 128.511 48.3611C128.46 48.4087 128.393 48.4351 128.323 48.435ZM133.151 32.1198C138.692 32.955 140.663 30.917 141.181 30.182C141.536 29.7138 141.738 29.1466 141.757 28.559C141.776 27.9714 141.611 27.3924 141.287 26.9023C140.63 25.9891 139.438 25.6828 138.096 26.0893C136.175 26.6795 134.515 29.0962 133.129 32.1365L133.151 32.1198ZM123.663 21.4898C123.361 21.4895 123.062 21.5482 122.783 21.6625C122.249 21.9089 121.805 22.315 121.512 22.8247C121.218 23.3343 121.091 23.9225 121.146 24.5079C121.202 25.4099 121.803 28.1774 126.959 30.3769C127.394 27.0749 127.254 24.1515 125.924 22.6481C125.65 22.3058 125.307 22.0256 124.918 21.8259C124.528 21.6263 124.1 21.5117 123.663 21.4898Z" fill="white"/>
<path opacity="0.3" d="M70.7217 126.524C83.86 119.999 84.1204 93.788 71.3035 67.9797C58.4866 42.1715 37.4457 26.5391 24.3075 33.0638C11.1692 39.5886 10.9087 65.7997 23.7257 91.6079C36.5426 117.416 57.5835 133.049 70.7217 126.524Z" fill="#433839"/>
<path d="M36.084 196.362L40.2045 196.295L41.1512 186.74L37.0306 186.801L36.084 196.362Z" fill="#B55B52"/>
<path d="M8.39819 188.84L12.3239 190.088L16.7507 181.485L12.825 180.237L8.39819 188.84Z" fill="#B55B52"/>
<path opacity="0.2" d="M41.1511 186.74L40.6611 191.668L36.5405 191.735L37.0305 186.807L41.1511 186.74Z" fill="black"/>
<path opacity="0.2" d="M12.8192 180.237L16.7504 181.485L14.4674 185.917L10.5361 184.675L12.8192 180.237Z" fill="black"/>
<path d="M42.1922 190.694L35.2151 190.8C35.2151 190.8 37.9993 163.699 38.8735 150.892C39.1031 145.783 39.0436 140.665 38.6953 135.562C38.2777 128.089 38.0104 125.099 37.448 115.655C37.0471 108.918 36.5571 104.558 36.5571 104.558L50.9957 105.744C50.9957 105.744 51.5526 138.435 49.9266 150.903C48.2227 163.866 42.1922 190.694 42.1922 190.694Z" fill="#433839"/>
<path opacity="0.2" d="M40.5272 113.611C42.3369 120.338 40.5829 135.389 38.8846 139.482C38.8345 138.201 38.7676 136.893 38.6953 135.584C38.2776 128.111 38.0048 125.121 37.4424 115.677C37.4424 115.488 37.4424 115.304 37.4424 115.12C38.3762 114.444 39.4198 113.933 40.5272 113.611Z" fill="black"/>
<path d="M43.2056 105.103C43.2056 105.103 36.5236 138.691 33.1826 150.29C29.5297 162.997 16.5722 185.588 16.5722 185.588L9.37793 183.311C9.37793 183.311 17.6636 164.183 20.7206 151.666C24.2064 137.4 29.0286 103.939 29.0286 103.939L43.2056 105.103Z" fill="#433839"/>
<path d="M13.1591 189.814L8.61531 187.676C8.54088 187.641 8.45676 187.632 8.3768 187.652C8.29684 187.671 8.22581 187.717 8.17541 187.782L5.88683 190.75C5.83087 190.822 5.79215 190.907 5.77356 190.997C5.75497 191.087 5.75702 191.18 5.77953 191.269C5.80204 191.358 5.84444 191.44 5.90353 191.51C5.96263 191.581 6.03688 191.637 6.1207 191.674C7.59631 192.331 8.69884 192.749 10.542 193.612C11.6556 194.169 14.3062 195.494 15.8709 196.229C17.4356 196.964 18.3432 195.55 17.7919 195.071C15.3363 192.944 14.1892 191.585 13.6602 190.326C13.5625 190.099 13.3839 189.917 13.1591 189.814Z" fill="#263238"/>
<path d="M40.1712 195.816L35.6719 195.889C35.5899 195.89 35.5107 195.919 35.4478 195.972C35.3849 196.025 35.3421 196.098 35.3267 196.178L34.5694 199.848C34.5499 199.937 34.5508 200.029 34.5722 200.117C34.5936 200.205 34.6349 200.287 34.6929 200.357C34.751 200.427 34.8242 200.483 34.907 200.52C34.9898 200.557 35.0801 200.575 35.1708 200.572C36.7968 200.522 39.1355 200.388 41.179 200.355C43.5623 200.321 43.8351 200.416 46.6304 200.355C48.3009 200.355 48.7631 198.612 48.0559 198.467C44.8207 197.815 43.9799 197.782 41.1679 196.106C40.8678 195.921 40.5234 195.821 40.1712 195.816Z" fill="#263238"/>
<path d="M32.754 67.6057C37.93 67.2266 43.1319 67.4133 48.2674 68.1625C49.7962 68.4057 51.1967 69.1616 52.239 70.3061C53.2812 71.4506 53.9033 72.9155 54.0028 74.4603C54.3536 79.8894 54.2311 90.5583 51.6753 110.571C48.5013 111.963 34.6473 110.621 27.8428 108.483C28.2103 106.194 30.3652 87.7296 28.7838 72.2886C28.7297 71.719 28.7901 71.1444 28.9615 70.5985C29.1329 70.0527 29.4118 69.5466 29.7817 69.1102C30.1517 68.6738 30.6053 68.3158 31.1158 68.0574C31.6263 67.7991 32.1833 67.6454 32.754 67.6057Z" fill="#263238"/>
<path d="M33.8955 75.0015L33.0492 76.7332C32.7707 77.3272 32.4979 77.9286 32.2306 78.5374C31.6738 79.7457 31.2005 80.9652 30.7272 82.1902C30.2539 83.4152 29.8474 84.6514 29.4743 85.882C29.1208 87.0986 28.8309 88.3327 28.6056 89.5794L28.0488 87.6806C28.5245 88.3043 29.1619 88.7857 29.8919 89.0726C30.8278 89.4453 31.8123 89.6816 32.8153 89.7743C33.9248 89.8922 35.0419 89.9238 36.1563 89.8689C37.308 89.8248 38.4566 89.7207 39.5975 89.5571H39.681C40.0141 89.5112 40.3525 89.5878 40.6333 89.7728C40.9141 89.9578 41.118 90.2385 41.2072 90.5627C41.2965 90.8869 41.2648 91.2324 41.1183 91.535C40.9717 91.8376 40.7202 92.0767 40.4105 92.2076C39.759 92.486 39.1743 92.6921 38.5451 92.8925C37.9159 93.093 37.2978 93.2712 36.6574 93.416C35.3529 93.7278 34.0216 93.9143 32.6817 93.9728C31.2287 94.0447 29.7735 93.8831 28.3718 93.4939C26.7436 93.0489 25.2782 92.1442 24.151 90.8879C23.9425 90.6485 23.7855 90.3687 23.6897 90.066C23.5939 89.7633 23.5614 89.4441 23.5941 89.1283V88.9891C23.7371 87.4903 23.9771 86.0023 24.3124 84.5345C24.6521 83.1034 25.0475 81.6946 25.5152 80.3248C25.9829 78.955 26.5008 77.6019 27.0743 76.2822C27.3639 75.6195 27.659 74.9681 27.9708 74.3166C28.2827 73.6651 28.5945 73.0358 28.9787 72.3454C29.3373 71.7282 29.9193 71.2723 30.6044 71.0719C31.2895 70.8715 32.0253 70.9419 32.66 71.2686C33.2947 71.5952 33.7797 72.1531 34.0148 72.8271C34.2499 73.501 34.2172 74.2396 33.9234 74.8901L33.8955 75.0015Z" fill="#B55B52"/>
<path d="M38.2388 89.8351L40.4661 87.335L44.1134 90.676C44.1134 90.676 41.6355 93.4267 39.0072 91.9845L38.2388 89.8351Z" fill="#B55B52"/>
<path d="M44.1023 86.3712L45.5668 87.9025C45.6864 88.0284 45.7777 88.1784 45.8347 88.3424C45.8917 88.5064 45.913 88.6807 45.8972 88.8536C45.8814 89.0265 45.8288 89.194 45.743 89.345C45.6572 89.496 45.5402 89.6269 45.3998 89.7289L44.1023 90.67L40.4551 87.329L42.6379 86.1374C42.874 86.0109 43.145 85.9653 43.4095 86.0075C43.674 86.0498 43.9174 86.1775 44.1023 86.3712Z" fill="#B55B52"/>
<path d="M30.7716 68.2516C27.4306 70.3007 24.0896 81.1757 24.0896 81.1757L32.8876 84.4053C34.5168 81.8233 35.7394 79.0063 36.5126 76.0528C37.8434 71.0135 34.4634 65.9964 30.7716 68.2516Z" fill="#263238"/>
<path d="M49.7094 68.4193C49.637 68.4193 49.8097 68.4193 49.8932 68.4193L50.2329 68.4471C50.4779 68.4471 50.7229 68.4805 50.9846 68.4805C51.5024 68.4805 52.0426 68.4805 52.5827 68.4805C53.6964 68.4471 54.81 68.3246 55.9237 68.191C56.4805 68.1186 57.0374 68.0351 57.5942 67.9293C58.151 67.8235 58.7079 67.7232 59.2981 67.6174L61.0132 67.2388L62.7226 66.8156L60.6623 69.3213C60.8371 68.316 60.908 67.2953 60.8739 66.2755C60.834 65.1671 60.7243 64.0624 60.5454 62.9679C60.3672 61.8542 60.1352 60.7183 59.8494 59.5601C59.5765 58.4464 59.2313 57.2548 58.9139 56.1801L58.8805 56.0798C58.7726 55.7025 58.801 55.2991 58.9608 54.9406C59.1206 54.5821 59.4015 54.2913 59.7543 54.1193C60.1071 53.9472 60.5092 53.9049 60.8901 53.9996C61.2709 54.0944 61.6063 54.3203 61.8373 54.6377C62.5959 55.7241 63.2733 56.865 63.8641 58.051C64.4603 59.2369 64.9775 60.4609 65.4121 61.715C65.8638 63.0094 66.2065 64.3393 66.4367 65.6908C66.6846 67.1282 66.7575 68.5903 66.6539 70.0452C66.6109 70.5868 66.4125 71.1044 66.0826 71.536C65.7527 71.9677 65.3053 72.2949 64.794 72.4786L64.5936 72.551L62.7338 73.2192C62.1045 73.4252 61.4753 73.6201 60.835 73.776C59.553 74.153 58.2519 74.4616 56.9371 74.7004C55.5867 74.9507 54.2215 75.1125 52.85 75.1848C52.1484 75.1848 51.4467 75.2349 50.7173 75.1848C50.3554 75.1848 49.9823 75.1458 49.6036 75.1068L49.0134 75.0345C48.7907 75.0011 48.6514 74.9843 48.2728 74.9008C47.4346 74.687 46.7119 74.1564 46.257 73.4206C45.802 72.6848 45.6502 71.8013 45.8334 70.9558C46.0166 70.1104 46.5206 69.369 47.2394 68.8876C47.9581 68.4062 48.8356 68.2223 49.6872 68.3747L49.7094 68.4193Z" fill="#B55B52"/>
<path d="M58.3628 56.0798L56.7424 53.3625L61.4755 51.9648C61.4755 51.9648 62.4444 54.1476 62.0324 55.6455C61.9468 55.9325 61.7787 56.1879 61.549 56.38C61.3192 56.5721 61.0381 56.6924 60.7405 56.7258L59.8941 56.8316C59.5935 56.8679 59.2888 56.8162 59.017 56.6827C58.7452 56.5493 58.5179 56.3399 58.3628 56.0798Z" fill="#B55B52"/>
<path d="M57.9005 49.0301L59.209 48.8797C59.6031 48.8395 59.9985 48.9407 60.3249 49.165C60.6513 49.3894 60.8873 49.7225 60.9909 50.1048L61.4753 51.9646L56.7423 53.3622L56.4471 50.862C56.4015 50.4272 56.5281 49.9919 56.7998 49.6493C57.0715 49.3068 57.4667 49.0845 57.9005 49.0301Z" fill="#B55B52"/>
<path d="M44.6424 67.4219C48.5402 67.7616 57.0152 66.7871 57.0152 66.7871L57.5052 77.4338C54.6226 78.3734 51.5315 78.4699 48.5959 77.7122C43.5176 76.4203 40.338 67.0488 44.6424 67.4219Z" fill="#263238"/>
<path d="M38.133 56.9922C38.5896 60.0325 38.9292 65.573 36.7297 67.4885C38.2944 69.1868 40.5607 71.3863 44.1356 71.6815C46.4019 70.6847 46.9755 69.2537 46.0901 67.9117C42.7491 66.9595 42.9663 64.4705 43.6567 62.1596L38.133 56.9922Z" fill="#B55B52"/>
<path opacity="0.2" d="M40.3881 59.1035L43.6567 62.155C43.4867 62.7002 43.3637 63.2591 43.2892 63.8255C42.0197 63.586 40.3213 62.0937 40.2434 60.7462C40.1865 60.1944 40.2357 59.6368 40.3881 59.1035Z" fill="black"/>
<path d="M44.7037 46.7637C48.8688 49.5478 45.3051 54.0025 45.3051 54.0025C45.3051 54.0025 43.2392 50.3497 44.7037 46.7637Z" fill="white"/>
<path d="M35.9334 53.7464C36.9245 57.7111 37.3032 60.0832 39.7087 61.7649C43.3337 64.2984 47.9443 61.5421 48.1614 57.3603C48.3508 53.5961 46.697 47.7382 42.4762 46.8696C41.5449 46.6709 40.5783 46.7144 39.6687 46.9959C38.7591 47.2774 37.9368 47.7874 37.2805 48.4772C36.6242 49.1671 36.1557 50.0137 35.9199 50.9362C35.684 51.8587 35.6887 52.8262 35.9334 53.7464Z" fill="#B55B52"/>
<path opacity="0.2" d="M42.5099 53.5735C42.2084 53.5514 41.9056 53.5893 41.6189 53.6848C41.3322 53.7804 41.0672 53.9318 40.8394 54.1303C41.4274 54.0563 41.995 53.8671 42.5099 53.5735Z" fill="black"/>
<path opacity="0.2" d="M42.6155 54.002C42.3446 54.0393 42.0851 54.1354 41.8552 54.2835C41.6253 54.4316 41.4306 54.6282 41.2847 54.8595C41.7847 54.6724 42.2386 54.38 42.6155 54.002Z" fill="black"/>
<path opacity="0.2" d="M42.7271 56.5634C42.6366 56.5251 42.5386 56.5076 42.4405 56.5125C42.3423 56.5174 42.2465 56.5444 42.1603 56.5915C42.074 56.6387 41.9996 56.7047 41.9425 56.7847C41.8854 56.8647 41.8471 56.9566 41.8306 57.0534C42.0822 56.8156 42.391 56.6468 42.7271 56.5634Z" fill="black"/>
<path opacity="0.2" d="M45.0877 49.3359C43.6467 49.4843 42.2226 49.7658 40.8335 50.1768C43.2223 49.7814 45.0877 49.3359 45.0877 49.3359Z" fill="black"/>
<path opacity="0.2" d="M45.8008 49.6094C45.8008 49.6094 42.56 50.2776 41.1345 51.0683C42.7172 50.6738 44.2753 50.1866 45.8008 49.6094Z" fill="black"/>
<path d="M37.0584 56.5137C38.7289 56.3467 37.9828 53.7908 37.3368 53.2117C38.6343 52.6548 39.7257 50.4776 38.818 49.3138C43.6235 49.6869 46.3687 49.1746 46.7362 44.8592C45.3608 45.1376 43.9131 43.7455 42.0644 45.0429C42.1989 44.7754 42.2768 44.4829 42.2931 44.1839C42.3095 43.8849 42.264 43.5857 42.1595 43.305C42.0549 43.0244 41.8936 42.7683 41.6857 42.5528C41.4777 42.3374 41.2275 42.1671 40.9507 42.0527C40.9507 42.0527 40.65 44.8369 38.5396 45.2545C36.4292 45.6722 34.1963 47.1533 34.0571 48.7125C33.5559 47.4262 33.0381 47.3427 33.0381 47.3427C33.2753 47.8242 33.3987 48.3538 33.3987 48.8907C33.3987 49.4275 33.2753 49.9571 33.0381 50.4387C32.2474 52.215 33.5949 52.7996 33.5949 52.7996C33.5949 52.7996 31.8687 52.7996 32.9546 55.1272C33.7564 56.7531 36.6853 58.8413 37.0584 56.5137Z" fill="white"/>
<path d="M34.8534 57.4717C35.3783 58.2842 36.2028 58.8566 37.1476 59.0643C38.4004 59.326 38.9406 58.1845 38.523 57.043C38.1443 56.0184 37.0418 54.6486 35.8167 54.8992C35.5501 54.958 35.3025 55.0825 35.0963 55.2615C34.8901 55.4404 34.7319 55.6681 34.6362 55.9238C34.5404 56.1794 34.5102 56.455 34.5481 56.7254C34.5861 56.9957 34.691 57.2523 34.8534 57.4717Z" fill="#B55B52"/>
<path d="M17.3908 186.016L8.92139 183.332L9.72322 180.804L19.2395 182.925L17.3908 186.016Z" fill="#433839"/>
<path opacity="0.3" d="M17.3908 186.016L8.92139 183.332L9.72322 180.804L19.2395 182.925L17.3908 186.016Z" fill="black"/>
<path d="M43.0722 190.838L34.7587 190.972L34.7141 188.282L43.6067 187.998L43.0722 190.838Z" fill="#433839"/>
<path opacity="0.3" d="M43.0722 190.838L34.7587 190.972L34.7141 188.282L43.6067 187.998L43.0722 190.838Z" fill="black"/>
<path d="M42.8494 53.6183C42.8995 53.9468 43.1111 54.1751 43.3283 54.1751C43.5454 54.1751 43.6791 53.8522 43.629 53.5236C43.5788 53.1951 43.3672 52.9668 43.1501 52.9668C42.9329 52.9668 42.7993 53.2898 42.8494 53.6183Z" fill="#263238"/>
<path d="M46.5635 53.0665C46.6136 53.3951 46.8252 53.6234 47.0424 53.6234C47.2595 53.6234 47.3932 53.3004 47.3431 52.9719C47.293 52.6433 47.0814 52.415 46.8642 52.415C46.647 52.415 46.5134 52.738 46.5635 53.0665Z" fill="#263238"/>
<path d="M45.4109 53.4014C45.9501 54.3492 46.6192 55.217 47.3988 55.9795C47.1983 56.1734 46.9579 56.3213 46.6944 56.4126C46.4309 56.504 46.1506 56.5367 45.8731 56.5085L45.4109 53.4014Z" fill="#A02724"/>
<path d="M44.6648 57.7718C44.2954 57.8286 43.9183 57.8085 43.557 57.7127C43.1958 57.6169 42.8582 57.4474 42.5656 57.2149C42.5561 57.2065 42.5483 57.1963 42.5427 57.1849C42.5372 57.1735 42.5339 57.1611 42.5331 57.1484C42.5324 57.1358 42.5341 57.1231 42.5382 57.1111C42.5424 57.0991 42.5488 57.088 42.5572 57.0785C42.5656 57.069 42.5758 57.0612 42.5872 57.0557C42.5986 57.0501 42.611 57.0469 42.6237 57.0461C42.6364 57.0453 42.6491 57.047 42.6611 57.0512C42.6731 57.0553 42.6841 57.0617 42.6936 57.0702C43.0254 57.3166 43.4105 57.4813 43.8178 57.5509C44.2252 57.6206 44.6432 57.5932 45.0379 57.4711C45.05 57.4677 45.0626 57.4668 45.075 57.4683C45.0875 57.4699 45.0995 57.4738 45.1103 57.4801C45.1212 57.4863 45.1307 57.4946 45.1384 57.5045C45.146 57.5144 45.1516 57.5258 45.1548 57.5379C45.1591 57.5503 45.1607 57.5635 45.1596 57.5765C45.1585 57.5896 45.1547 57.6023 45.1484 57.6138C45.1421 57.6254 45.1335 57.6354 45.1231 57.6435C45.1127 57.6515 45.1008 57.6572 45.088 57.6604C44.9498 57.7077 44.8084 57.7449 44.6648 57.7718Z" fill="#263238"/>
<path d="M40.8672 52.7549C40.8362 52.7632 40.8035 52.7632 40.7725 52.7549C40.7489 52.7443 40.7277 52.7289 40.7103 52.7097C40.6929 52.6905 40.6796 52.6679 40.6712 52.6434C40.6629 52.6189 40.6597 52.5929 40.6618 52.567C40.6639 52.5412 40.6712 52.5161 40.6834 52.4932C40.8161 52.2135 41.0137 51.9696 41.2597 51.7817C41.5057 51.5938 41.7931 51.4674 42.0978 51.413C42.1493 51.4082 42.2006 51.4235 42.2411 51.4556C42.2815 51.4878 42.308 51.5344 42.315 51.5856C42.3197 51.6371 42.3045 51.6884 42.2723 51.7288C42.2401 51.7693 42.1936 51.7958 42.1423 51.8028C41.9003 51.8466 41.6725 51.9486 41.4785 52.0999C41.2845 52.2512 41.1302 52.4473 41.0287 52.6714C41.0097 52.6965 40.9853 52.7169 40.9574 52.7314C40.9294 52.7458 40.8986 52.7539 40.8672 52.7549Z" fill="white"/>
<path d="M47.2763 51.4865C47.2442 51.4883 47.2121 51.4821 47.183 51.4685C47.1538 51.4549 47.1285 51.4343 47.1092 51.4086C46.97 51.2068 46.7848 51.041 46.5689 50.9249C46.353 50.8087 46.1126 50.7455 45.8675 50.7404C45.8158 50.7404 45.7662 50.7198 45.7297 50.6833C45.6931 50.6467 45.6726 50.5972 45.6726 50.5455C45.6726 50.4938 45.6931 50.4442 45.7297 50.4077C45.7662 50.3711 45.8158 50.3506 45.8675 50.3506C46.1769 50.3522 46.4814 50.4278 46.7555 50.5712C47.0297 50.7146 47.2655 50.9215 47.4433 51.1747C47.4587 51.1952 47.4699 51.2185 47.4762 51.2433C47.4826 51.2681 47.484 51.2939 47.4804 51.3192C47.4767 51.3445 47.4682 51.3689 47.4551 51.3909C47.4421 51.4129 47.4248 51.4322 47.4044 51.4475C47.3672 51.4744 47.3221 51.4881 47.2763 51.4865Z" fill="white"/>
<path d="M14.0889 191.045C13.7628 190.881 13.4565 190.681 13.1757 190.449C13.1601 190.438 13.1485 190.422 13.1425 190.404C13.1365 190.386 13.1364 190.367 13.1423 190.349C13.1476 190.33 13.1583 190.313 13.1732 190.3C13.188 190.287 13.2063 190.279 13.2258 190.276C13.3984 190.276 14.952 190.081 15.2638 190.488C15.2991 190.533 15.3209 190.587 15.3268 190.644C15.3327 190.702 15.3225 190.759 15.2972 190.811C15.2663 190.902 15.2136 190.984 15.1437 191.05C15.0738 191.116 14.9889 191.164 14.8963 191.189C14.6185 191.233 14.3342 191.182 14.0889 191.045ZM13.4875 190.427C13.8524 190.779 14.3387 190.979 14.8462 190.983C14.9091 190.966 14.9666 190.932 15.0133 190.887C15.06 190.841 15.0944 190.784 15.1135 190.722C15.1135 190.649 15.1135 190.616 15.1135 190.594C14.9464 190.427 14.1112 190.393 13.4875 190.427Z" fill="#433839"/>
<path d="M13.1925 190.465C13.1768 190.455 13.1635 190.442 13.1535 190.426C13.1452 190.411 13.1409 190.394 13.1409 190.376C13.1409 190.359 13.1452 190.342 13.1535 190.326C13.1535 190.282 13.7716 189.251 14.373 189.096C14.445 189.075 14.5206 189.071 14.5946 189.082C14.6686 189.094 14.7392 189.121 14.8017 189.162C14.8664 189.195 14.9184 189.248 14.9497 189.314C14.9809 189.379 14.9896 189.453 14.9743 189.524C14.8574 189.975 13.727 190.443 13.2426 190.471L13.1925 190.465ZM14.6569 189.307C14.5796 189.279 14.4948 189.279 14.4175 189.307C14.0333 189.407 13.6212 189.975 13.4319 190.27C13.9498 190.159 14.7126 189.764 14.785 189.496C14.785 189.496 14.785 189.418 14.6959 189.346L14.6569 189.307Z" fill="#433839"/>
<path d="M40.5829 196.379C40.5665 196.374 40.5517 196.365 40.54 196.352C40.5283 196.339 40.52 196.324 40.5161 196.307C40.5138 196.287 40.5173 196.266 40.5261 196.247C40.535 196.228 40.5488 196.213 40.5662 196.201C40.7499 196.107 42.3982 195.238 42.8993 195.511C42.9475 195.535 42.9885 195.571 43.0178 195.616C43.0472 195.661 43.064 195.713 43.0664 195.767C43.077 195.855 43.0664 195.945 43.0354 196.028C43.0044 196.111 42.954 196.186 42.8882 196.246C42.4427 196.652 41.2622 196.508 40.594 196.385L40.5829 196.379ZM42.7712 195.667C42.4594 195.561 41.5685 195.917 40.917 196.224C41.8302 196.363 42.5095 196.313 42.7601 196.084C42.8022 196.044 42.8342 195.994 42.8536 195.939C42.8729 195.884 42.8791 195.825 42.8715 195.767C42.8723 195.746 42.8669 195.725 42.856 195.708C42.8451 195.69 42.8292 195.676 42.8102 195.667H42.7712Z" fill="#433839"/>
<path d="M40.5829 196.379H40.5551C40.5407 196.369 40.5293 196.356 40.5224 196.34C40.5154 196.324 40.5133 196.306 40.5161 196.289C40.5161 196.245 40.6108 195.131 41.1286 194.697C41.2039 194.63 41.2924 194.58 41.3883 194.549C41.4841 194.518 41.5854 194.508 41.6855 194.519C41.9527 194.519 42.0363 194.675 42.053 194.786C42.1365 195.254 41.1676 196.156 40.672 196.39C40.6577 196.396 40.6416 196.399 40.6259 196.397C40.6101 196.395 40.5952 196.389 40.5829 196.379ZM41.7523 194.708H41.652C41.5809 194.701 41.5091 194.709 41.4411 194.731C41.3731 194.753 41.3104 194.789 41.2567 194.836C40.9539 195.199 40.7711 195.646 40.7333 196.117C41.2344 195.805 41.8915 195.092 41.8469 194.814C41.8414 194.792 41.8358 194.747 41.7523 194.719V194.708Z" fill="#433839"/>
<path d="M4.86222 58.6021C4.20266 52.6955 4.50542 46.7211 5.75872 40.9115L6.31555 41.0396C5.07709 46.791 4.7781 52.705 5.43019 58.552L4.86222 58.6021ZM7.64638 36.5403L7.12853 36.351C7.64217 34.9553 8.25245 33.597 8.95494 32.2861L9.45052 32.5478C8.755 33.8357 8.14848 35.1696 7.63525 36.5403H7.64638Z" fill="#433839"/>
<path d="M24.4963 22.4852C43.0277 18.7822 68.0462 40.0477 80.3857 69.9775C92.7251 99.9073 87.708 127.175 69.1878 130.873C50.6675 134.57 25.6601 113.31 13.2984 83.3805C0.936666 53.4507 5.97601 26.1603 24.4963 22.4852ZM23.0374 81.4371C33.9402 107.892 54.7769 126.947 69.5107 123.996C84.2445 121.045 87.3962 97.2122 76.4934 70.7571C65.5906 44.3019 44.7539 25.2415 30.0145 28.1927C15.2751 31.1439 12.129 54.9764 23.0374 81.4371ZM8.1755 67.0319C9.33371 64.9994 16.1883 62.2932 17.7029 63.8022L8.1755 67.0319ZM77.2841 119.525C79.027 119.313 80.7421 123.511 79.5783 125.065L77.2841 119.525ZM51.4415 35.6654C52.6108 35.348 53.6354 33.7388 53.7746 32.7977L51.4415 35.6654Z" fill="white"/>
<path d="M64.8888 131.569C46.8641 131.569 24.4683 111.206 13.042 83.4864C5.09047 64.2088 4.0826 44.8923 10.4027 33.0763C13.5599 27.1738 18.4155 23.4152 24.4404 22.2124C43.061 18.4928 68.2744 39.8696 80.6417 69.8718C88.5877 89.155 89.6011 108.472 83.2755 120.282C82.3331 122.068 81.1653 123.726 79.8008 125.216C77.0107 128.264 73.316 130.337 69.26 131.129C67.8211 131.42 66.3569 131.568 64.8888 131.569ZM8.48715 67.0598C9.68475 72.6063 11.3807 78.0333 13.5543 83.2748C25.8047 113.038 50.7564 134.27 69.1319 130.606C73.0708 129.835 76.6593 127.823 79.3721 124.865C79.9289 124.013 79.6004 122.253 78.921 121.084C78.4533 120.271 77.8909 119.803 77.3897 119.803C75.3349 122.098 72.5887 123.662 69.5662 124.258C54.7043 127.237 33.7173 108.059 22.7922 81.5319C20.4307 75.86 18.6454 69.965 17.4633 63.936C17.1069 63.6464 16.3886 63.5629 15.4197 63.691C12.8527 64.0251 9.37809 65.7401 8.48715 67.0598ZM23.2934 81.3314C34.1349 107.625 54.8436 126.647 69.4604 123.723C73.7592 122.866 77.1113 120.237 79.4278 115.928C84.7845 105.905 83.5595 88.6427 76.2315 70.8853C65.39 44.586 44.6869 25.5701 30.07 28.4879C25.7657 29.3455 22.408 31.9793 20.0916 36.2836C14.7404 46.2955 15.9654 63.5518 23.2934 81.3314ZM77.8185 119.307C78.5137 119.592 79.079 120.123 79.4055 120.8C79.9571 121.733 80.2421 122.8 80.2296 123.885C81.2124 122.686 82.0723 121.391 82.7966 120.02C89.0443 108.355 88.0253 89.2162 80.1405 70.0834C73.865 54.8596 64.2707 41.8687 53.9693 33.299C53.6115 34.3214 52.9137 35.1902 51.9926 35.7602C61.5088 43.4166 70.6966 55.8953 76.7828 70.6514C84.172 88.5759 85.3859 106.016 79.9567 116.167C79.3517 117.283 78.6353 118.335 77.8185 119.307ZM24.5462 22.7581C18.6883 23.9275 13.9664 27.5859 10.8871 33.338C6.50483 41.529 5.69742 53.384 8.33681 66.3526C9.69548 64.9049 13.0421 63.4515 15.3251 63.1453C15.9864 63.0227 16.6673 63.057 17.313 63.2455C15.3418 52.3316 16.0601 42.6427 19.596 36.0163C21.9625 31.5951 25.543 28.7775 29.9531 27.9144C36.4068 26.6281 44.0187 29.5125 51.458 35.3648C52.3935 35.0363 53.2566 33.7445 53.4626 32.9092C43.7347 24.9855 33.3832 20.993 24.5462 22.7581Z" fill="#433839"/>
<path d="M49.6484 54.1419L67.0049 52.3489L66.5929 49.1973L49.3589 51.9146L49.6484 54.1419Z" fill="#433839"/>
<path opacity="0.2" d="M59.3818 50.3332L59.7438 53.0951L66.9993 52.3489L66.5873 49.1973L59.3818 50.3332Z" fill="black"/>
<path d="M60.6791 52.934C60.7017 53.0647 60.7701 53.1831 60.8722 53.2678C60.9743 53.3526 61.1033 53.3981 61.236 53.3961L81.3655 51.5363C82.1673 51.4305 81.4824 46.1907 80.6862 46.2965L60.7459 49.6375C60.6123 49.6656 60.4937 49.7418 60.4126 49.8517C60.3315 49.9615 60.2936 50.0973 60.306 50.2333L60.6791 52.934Z" fill="#433839"/>
<path d="M49.7096 54.5979C49.8004 54.5867 49.883 54.54 49.9394 54.468C49.9958 54.3959 50.0213 54.3045 50.0103 54.2137L49.6873 51.7525C49.6748 51.6612 49.6269 51.5785 49.554 51.5223C49.4811 51.466 49.389 51.4407 49.2975 51.4518C49.2073 51.4656 49.126 51.514 49.0709 51.5868C49.0158 51.6596 48.9912 51.751 49.0024 51.8416L49.3254 54.3028C49.3308 54.3475 49.3452 54.3907 49.3675 54.4299C49.3899 54.4691 49.4198 54.5034 49.4556 54.5309C49.4914 54.5583 49.5323 54.5784 49.5759 54.5899C49.6195 54.6014 49.6649 54.6041 49.7096 54.5979Z" fill="#433839"/>
</svg>
