<svg width="76" height="76" viewBox="0 0 76 76" fill="none" xmlns="http://www.w3.org/2000/svg">
<path d="M45.0252 10.2977C45.0252 11.4033 44.1717 12.2996 43.1188 12.2996H34.0355C32.9826 12.2996 32.1292 11.4033 32.1292 10.2977C32.1292 9.19212 32.9826 8.2959 34.0355 8.2959H43.1188C44.1716 8.2959 45.0252 9.1922 45.0252 10.2977Z" fill="#67DDE0"/>
<path d="M43.1186 13.0355H34.0356C32.5785 13.0355 31.3933 11.8076 31.3933 10.298C31.3933 8.78846 32.5785 7.56055 34.0356 7.56055H43.1186C44.5758 7.56055 45.761 8.78846 45.761 10.298C45.761 11.8076 44.5757 13.0355 43.1186 13.0355ZM34.0356 9.03196C33.39 9.03196 32.8648 9.59994 32.8648 10.298C32.8648 10.996 33.39 11.564 34.0356 11.564H43.1186C43.7642 11.564 44.2894 10.996 44.2894 10.298C44.2894 9.59994 43.7641 9.03196 43.1186 9.03196H34.0356Z" fill="#4D5152"/>
<path d="M33.482 12.2998C33.482 12.2998 34.7828 18.1536 27.1172 31.6266H48.8221C48.8221 31.6266 45.0252 25.9085 43.2762 12.2998H33.482Z" fill="white"/>
<path d="M48.8221 32.3617H25.8518L26.4776 31.262C33.8516 18.302 32.7743 12.5101 32.7624 12.4533L32.5802 11.5689L33.4819 11.5635H43.9236L44.0058 12.2055C45.7066 25.4382 49.3986 31.1637 49.4356 31.22L50.1872 32.3607L48.8221 32.3617ZM28.372 30.8902H47.5608C46.4021 28.6471 43.984 23.0139 42.6314 13.035H34.2938C34.3772 15.1014 33.9275 20.7909 28.372 30.8902Z" fill="#4D5152"/>
<path d="M46.6709 67.9137L29.2084 67.8339C25.4869 68.5496 25.4869 64.2556 26.2026 62.6811C26.9183 61.1067 28.9222 56.9557 27.634 49.9421C26.3458 42.9285 26.5534 33.0405 26.5534 33.0405L49.3846 33.0166C49.3846 33.0166 49.5932 42.9286 48.305 49.9422C47.0168 56.9558 49.0206 61.1067 49.7363 62.6812C50.452 64.2556 50.452 68.5497 46.7305 67.834L29.2681 67.9138" fill="#FFB957"/>
<path d="M47.5194 68.6504C47.2575 68.6504 46.9744 68.6256 46.6679 68.571L46.6675 68.6496L37.9693 68.6097L29.2714 68.6496L29.271 68.571C27.4683 68.8936 26.4685 68.1755 25.9457 67.5116C24.8094 66.0688 24.9757 63.6025 25.533 62.3771L25.5865 62.2589C26.3467 60.5934 28.1261 56.6937 26.9103 50.0756C25.6231 43.0687 25.8092 33.4321 25.8175 33.0254L25.8329 32.3058L50.1048 32.2803L50.1202 33.0013C50.1285 33.409 50.3157 43.0686 49.0284 50.0756C47.8127 56.6937 49.5924 60.5934 50.3523 62.2589L50.4058 62.3767C50.963 63.6025 51.1293 66.0688 49.9931 67.5116C49.5592 68.0627 48.7966 68.6501 47.5194 68.6504ZM46.7991 67.098L46.8695 67.1117C47.7845 67.2874 48.4283 67.1211 48.8371 66.6009C49.5621 65.6808 49.4572 63.8454 49.0667 62.9857L49.0135 62.8696C48.2666 61.2325 46.2821 56.8834 47.5815 49.8097C48.6431 44.03 48.6751 36.1516 48.6575 33.7533L27.2805 33.7759C27.2632 36.1696 27.2967 44.033 28.3575 49.8097C29.657 56.8834 27.6724 61.2325 26.9256 62.8696L26.8724 62.986C26.4819 63.8454 26.377 65.6808 27.1019 66.6009C27.5111 67.1203 28.1545 67.287 29.0696 67.1117L29.14 67.098L37.9693 67.1382L46.7991 67.098Z" fill="#4D5152"/>
<path d="M40.5132 21.4307C40.5132 21.4307 43.0054 25.5686 42.253 29.3304L40.5132 21.4307Z" fill="#67DDE0"/>
<path d="M42.9743 29.4746L41.5315 29.1857C42.2203 25.7434 39.9066 21.8491 39.8833 21.8102L41.1435 21.0508C41.2513 21.2297 43.7736 25.479 42.9743 29.4746Z" fill="#4D5152"/>
</svg>
