<svg width="150" height="151" viewBox="0 0 150 151" fill="none" xmlns="http://www.w3.org/2000/svg">
<g clip-path="url(#clip0_1012_2049)">
<path fill-rule="evenodd" clip-rule="evenodd" d="M118.787 75.5606C118.787 87.67 114.526 98.0094 105.994 106.542C97.4487 115.087 87.1216 119.359 75.0122 119.359C62.9517 119.359 52.6245 115.099 44.0674 106.542C35.5225 98.0094 31.2256 87.67 31.2256 75.5606C31.2256 63.4879 35.5103 53.1974 44.0674 44.628C52.6489 36.0831 62.9639 31.7862 75.0122 31.7862C87.1216 31.7862 97.4487 36.0709 105.994 44.628C114.514 53.1974 118.787 63.4879 118.787 75.5606ZM19.9829 67.4918C23.8281 64.8673 25.7568 61.4371 25.4272 53.588V33.4098C25.3906 30.5899 20.2759 30.2481 20.0195 33.4098L19.8242 49.7794C19.812 52.8434 15.21 52.941 15.2222 49.7794L15.4175 32.8482C15.3564 29.8209 10.4736 29.5157 10.4126 32.8482C10.4126 37.5479 10.2173 45.0797 10.2173 49.7794C10.4614 52.7457 6.18897 53.1363 6.29883 49.7794L6.49414 32.9581C6.38428 30.6754 3.86963 29.8575 2.16064 30.9317C0.341797 32.0914 0.708008 34.4229 0.634766 36.3883L0 55.6998C0.0976563 61.315 1.57471 65.8805 5.96924 67.8214C6.64063 68.1143 7.56836 68.3463 8.64258 68.505L7.12891 115.6C7.04346 118.395 9.32617 120.678 11.9995 120.678H12.6099C15.625 120.678 18.1763 118.102 18.0908 114.965L16.7603 68.4928C18.1641 68.273 19.3237 67.9434 19.9829 67.4918ZM130.298 114.184L130.225 71.8863C115.393 63.317 120.117 30.297 134.961 30.4801C153.003 30.6876 155.139 67.6871 139.624 71.752L140.771 114.355C140.991 122.411 130.31 123.156 130.298 114.184ZM100.501 75.524C100.501 82.5797 98.0225 88.5977 93.0298 93.5904C88.0493 98.5587 82.0313 101.061 74.9756 101.061C67.9688 101.061 61.9507 98.5587 56.9702 93.5904C51.9897 88.5977 49.4995 82.5797 49.4995 75.524C49.4995 68.5172 51.9897 62.4991 56.9702 57.5309C61.9629 52.5626 67.9688 50.0601 74.9756 50.0601C89.148 50.0724 100.501 61.3394 100.501 75.524ZM106.47 75.524C106.47 66.857 103.418 59.4474 97.2778 53.3072C91.1377 47.1671 83.7036 44.1153 74.9756 44.1153C66.272 44.1153 58.8623 47.1671 52.7588 53.3072C46.6187 59.4474 43.5303 66.857 43.5303 75.524C43.5303 84.2154 46.6187 91.6251 52.7588 97.7896C58.8623 103.942 66.272 107.03 74.9756 107.03C83.6914 107.03 91.1255 103.942 97.2778 97.7896C103.406 91.6129 106.47 84.2032 106.47 75.524Z" fill="#433839"/>
</g>
<defs>
<clipPath id="clip0_1012_2049">
<rect width="150" height="150" fill="white" transform="translate(0 0.573242)"/>
</clipPath>
</defs>
</svg>
