<svg width="154" height="201" viewBox="0 0 154 201" fill="none" xmlns="http://www.w3.org/2000/svg">
<path d="M140.311 9.58008H0.0666504L10.9644 200.572H151.201L140.311 9.58008Z" fill="#263238"/>
<path d="M143.036 9.58008H2.79126L13.689 200.572H153.933L143.036 9.58008Z" fill="#433839"/>
<path opacity="0.5" d="M133.375 16.001H9.20386L18.1057 188.886H145.502L133.375 16.001Z" fill="black"/>
<path d="M9.20386 16.001C18.4321 73.6317 12.1028 131.262 21.3462 188.886H148.727C139.499 131.262 145.828 73.6317 136.585 16.001H9.20386Z" fill="white"/>
<g opacity="0.3">
<path d="M35.2491 67.8032C38.0622 67.8257 40.7593 68.927 42.7842 70.8799C44.8091 72.8328 46.0073 75.4883 46.1317 78.2988C46.1884 79.6507 45.9693 81 45.4879 82.2646C45.0065 83.5292 44.2727 84.6825 43.3313 85.6545C42.3899 86.6264 41.2605 87.3966 40.0119 87.9181C38.7634 88.4397 37.4217 88.7016 36.0687 88.6881C33.2729 88.6649 30.5933 87.5667 28.5855 85.6211C26.5777 83.6754 25.3958 81.0317 25.2847 78.238C25.2262 76.8901 25.44 75.5442 25.9134 74.2807C26.3867 73.0172 27.1098 71.8621 28.0395 70.8843C28.9722 69.9153 30.0924 69.1464 31.3319 68.6245C32.5714 68.1026 33.9042 67.8387 35.2491 67.8487M35.1732 65.6555C33.5374 65.6453 31.9167 65.9688 30.4102 66.6063C28.9037 67.2438 27.5431 68.1818 26.4116 69.3631C25.28 70.5444 24.4013 71.9441 23.8291 73.4766C23.257 75.0091 23.0034 76.6422 23.0839 78.276C23.2164 81.6489 24.6422 84.8414 27.0655 87.1912C29.4888 89.541 32.7236 90.8679 36.099 90.8965C37.7423 90.9101 39.3712 90.59 40.8871 89.9556C42.403 89.3212 43.7744 88.3857 44.9181 87.2057C46.0619 86.0258 46.9542 84.626 47.5411 83.091C48.128 81.5561 48.3972 79.918 48.3325 78.276C48.1695 74.8884 46.7144 71.6921 44.2667 69.3446C41.8189 66.997 38.5646 65.6768 35.1732 65.6555Z" fill="#433839"/>
</g>
<path d="M105.682 162.476H65.4609C65.1599 162.471 64.8614 162.53 64.5851 162.649C64.3089 162.769 64.0612 162.946 63.8587 163.168C63.6562 163.391 63.5035 163.654 63.4107 163.94C63.3179 164.227 63.2873 164.529 63.3208 164.828C63.394 165.468 63.6965 166.06 64.1722 166.494C64.648 166.928 65.2648 167.174 65.9086 167.189H106.13C106.431 167.194 106.73 167.135 107.006 167.015C107.282 166.895 107.53 166.717 107.731 166.493C107.933 166.27 108.084 166.005 108.174 165.718C108.265 165.431 108.292 165.127 108.255 164.828C108.184 164.191 107.884 163.602 107.41 163.169C106.937 162.737 106.323 162.49 105.682 162.476Z" fill="#E0E0E0"/>
<path d="M127.197 152.572H64.6488C64.3461 152.566 64.0457 152.624 63.7671 152.743C63.4886 152.862 63.2383 153.038 63.0326 153.26C62.827 153.482 62.6706 153.745 62.5738 154.032C62.4769 154.319 62.4418 154.623 62.4708 154.924C62.5253 155.562 62.8149 156.157 63.2833 156.593C63.7517 157.029 64.3655 157.275 65.0055 157.284H127.524C127.827 157.293 128.128 157.238 128.408 157.121C128.689 157.005 128.941 156.831 129.149 156.61C129.357 156.389 129.515 156.127 129.615 155.84C129.714 155.553 129.751 155.249 129.724 154.947C129.675 154.307 129.389 153.709 128.921 153.269C128.454 152.83 127.839 152.581 127.197 152.572Z" fill="#E0E0E0"/>
<g opacity="0.3">
<path d="M36.5317 108.654C39.3241 108.674 42.0007 109.773 44.002 111.72C46.0033 113.668 47.1742 116.313 47.2701 119.104C47.3213 120.455 47.0997 121.803 46.6185 123.066C46.1374 124.33 45.4066 125.483 44.4698 126.458C43.5323 127.429 42.4069 128.199 41.1622 128.721C39.9175 129.242 38.5795 129.505 37.2299 129.493C34.4308 129.474 31.7465 128.378 29.7342 126.432C27.722 124.486 26.5363 121.84 26.4232 119.043C26.3771 117.69 26.605 116.342 27.0931 115.079C27.5813 113.816 28.3195 112.665 29.2637 111.695C30.2078 110.725 31.3383 109.955 32.5872 109.432C33.8362 108.91 35.1779 108.645 36.5317 108.654ZM36.5317 106.453C34.8874 106.443 33.2579 106.765 31.7411 107.4C30.2243 108.035 28.8514 108.97 27.7047 110.149C26.558 111.327 25.6612 112.725 25.068 114.259C24.4748 115.793 24.1975 117.43 24.2527 119.074C24.3875 122.456 25.821 125.656 28.255 128.008C30.6891 130.36 33.9362 131.683 37.321 131.702C38.9604 131.708 40.5842 131.383 42.0944 130.745C43.6046 130.107 44.97 129.169 46.1081 127.989C47.2463 126.809 48.1337 125.411 48.7169 123.879C49.3 122.346 49.5669 120.712 49.5013 119.074C49.3877 115.702 47.9741 112.506 45.5565 110.153C43.1389 107.801 39.9049 106.475 36.5317 106.453Z" fill="#433839"/>
</g>
<path d="M83.3557 75.6346H61.8409C61.2087 75.6294 60.6027 75.3816 60.1479 74.9424C59.6932 74.5032 59.4245 73.9061 59.3973 73.2745C59.3871 72.9692 59.4384 72.6649 59.5483 72.3799C59.6581 72.0948 59.8242 71.8348 60.0367 71.6153C60.2491 71.3958 60.5035 71.2213 60.7848 71.1021C61.0661 70.983 61.3685 70.9217 61.674 70.9219H83.1811C83.8136 70.9268 84.4203 71.1731 84.8773 71.6103C85.3343 72.0476 85.6071 72.6428 85.64 73.2745C85.6512 73.581 85.6004 73.8867 85.4905 74.1732C85.3807 74.4596 85.2141 74.7209 85.0007 74.9413C84.7874 75.1617 84.5317 75.3368 84.249 75.4559C83.9663 75.5751 83.6625 75.6359 83.3557 75.6346Z" fill="#E0E0E0"/>
<path d="M108.187 75.6346H93.6161C92.9831 75.6295 92.3762 75.3819 91.9203 74.9429C91.4643 74.5039 91.1939 73.9068 91.1648 73.2745C91.1547 72.9692 91.206 72.6649 91.3159 72.3799C91.4257 72.0948 91.5918 71.8348 91.8042 71.6153C92.0167 71.3958 92.2711 71.2213 92.5524 71.1021C92.8337 70.983 93.1361 70.9217 93.4415 70.9219H108.02C108.652 70.9269 109.258 71.1734 109.713 71.6109C110.169 72.0483 110.44 72.6435 110.471 73.2745C110.482 73.581 110.432 73.8867 110.322 74.1732C110.212 74.4596 110.045 74.7209 109.832 74.9413C109.619 75.1617 109.363 75.3368 109.08 75.4559C108.798 75.5751 108.494 75.6359 108.187 75.6346Z" fill="#E0E0E0"/>
<path d="M119.935 85.5379H62.1824C61.5504 85.5345 60.9442 85.287 60.4903 84.8472C60.0364 84.4075 59.7699 83.8094 59.7464 83.1778C59.7362 82.8725 59.7876 82.5682 59.8974 82.2832C60.0073 81.9982 60.1733 81.7381 60.3858 81.5186C60.5982 81.2991 60.8526 81.1246 61.1339 81.0055C61.4152 80.8863 61.7176 80.825 62.0231 80.8252H119.768C120.398 80.8287 121.002 81.0753 121.454 81.5137C121.907 81.952 122.173 82.5482 122.196 83.1778C122.207 83.4824 122.157 83.7862 122.049 84.0712C121.94 84.3561 121.776 84.6163 121.565 84.8364C121.354 85.0566 121.101 85.2321 120.821 85.3526C120.541 85.4731 120.239 85.5361 119.935 85.5379Z" fill="#E0E0E0"/>
<g opacity="0.3">
<path d="M38.1785 149.453C41.0094 149.509 43.7204 150.606 45.7927 152.536C47.865 154.465 49.153 157.091 49.4102 159.911C49.5463 161.232 49.4068 162.567 49.0006 163.831C48.5943 165.096 47.9301 166.262 47.05 167.257C46.1625 168.234 45.0764 169.011 43.8644 169.534C42.6524 170.058 41.3426 170.316 40.0226 170.293C37.1671 170.246 34.4268 169.159 32.3167 167.235C30.2065 165.31 28.8717 162.682 28.5632 159.843C28.4331 158.512 28.5862 157.168 29.0126 155.901C29.4391 154.633 30.1291 153.47 31.0372 152.489C31.951 151.514 33.0581 150.741 34.2877 150.218C35.5174 149.695 36.8425 149.435 38.1785 149.453ZM38.0722 147.26C36.447 147.228 34.8333 147.54 33.3371 148.176C31.8409 148.811 30.4959 149.756 29.3903 150.947C28.2846 152.139 27.4433 153.551 26.9215 155.09C26.3997 156.63 26.2092 158.262 26.3624 159.881C26.9468 166.847 33.2684 172.501 40.2351 172.501C47.2017 172.501 52.1953 166.847 51.6185 159.881C51.3175 156.477 49.7681 153.305 47.2687 150.975C44.7692 148.645 41.4963 147.322 38.0798 147.26H38.0722Z" fill="#433839"/>
</g>
<path d="M129.8 121.654H63.1615C62.856 121.654 62.5536 121.716 62.2724 121.835C61.9911 121.954 61.7366 122.128 61.5242 122.348C61.3118 122.567 61.1457 122.827 61.0358 123.112C60.926 123.397 60.8746 123.702 60.8848 124.007C60.912 124.637 61.1799 125.232 61.6333 125.67C62.0866 126.107 62.6907 126.354 63.3209 126.36H129.99C130.296 126.36 130.598 126.298 130.879 126.179C131.161 126.06 131.415 125.886 131.627 125.666C131.84 125.447 132.006 125.187 132.116 124.902C132.226 124.617 132.277 124.312 132.267 124.007C132.243 123.371 131.972 122.769 131.511 122.33C131.051 121.89 130.437 121.648 129.8 121.654Z" fill="#E0E0E0"/>
<path d="M114.008 111.743H62.8732C62.5671 111.743 62.264 111.804 61.9822 111.924C61.7004 112.044 61.4456 112.219 61.2331 112.439C61.0205 112.66 60.8546 112.92 60.7452 113.206C60.6359 113.492 60.5853 113.797 60.5965 114.103C60.6181 114.732 60.8821 115.328 61.3334 115.767C61.7847 116.205 62.3881 116.452 63.0174 116.456H114.16C114.465 116.456 114.767 116.395 115.049 116.276C115.33 116.157 115.584 115.982 115.797 115.762C116.009 115.543 116.175 115.283 116.285 114.998C116.395 114.713 116.446 114.409 116.436 114.103C116.418 113.471 116.155 112.871 115.701 112.43C115.248 111.989 114.64 111.743 114.008 111.743Z" fill="#E0E0E0"/>
<path d="M36.4026 85.6743L35.5071 84.2021C33.5416 80.9919 29.436 78.1309 28.0244 77.2885L29.0869 75.4064C31.8744 77.0938 34.3578 79.2386 36.433 81.7508C39.6583 77.4175 44.3711 72.9628 50.7534 68.1514L52.127 69.9272C45.2969 75.0649 40.4552 79.7929 37.3513 84.2931C37.0401 84.7561 36.7214 85.219 36.4026 85.6743Z" fill="#433839"/>
<path d="M37.5411 126.503C37.2451 126.01 36.9415 125.517 36.638 125.031C34.6648 121.821 30.5668 118.96 29.1704 118.11L30.2481 116.228C33.0212 117.92 35.4914 120.064 37.5562 122.572C40.7891 118.246 45.5398 113.784 52.0208 108.973L53.3641 110.748C46.4429 115.886 41.5708 120.614 38.4821 125.114L37.5411 126.503Z" fill="#433839"/>
<path d="M40.1442 167.423L39.1425 165.951C36.9569 162.741 32.7222 159.88 31.2651 159.038L32.2517 157.155C35.1194 158.855 37.7032 160.993 39.909 163.492C42.8839 159.167 47.4069 154.704 53.6906 149.9L55.1097 151.676C48.4011 156.814 43.7945 161.542 40.9942 166.042L40.1442 167.423Z" fill="#433839"/>
<path d="M88.1366 30.4883C86.801 33.4025 85.4324 36.3141 84.031 39.2232C86.92 40.6602 89.3901 42.8172 91.2032 45.4863C93.0163 48.1554 94.1112 51.2466 94.3824 54.4619H104.468C103.8 44.1484 97.1675 35.1707 88.1366 30.4883Z" fill="#433839"/>
<path d="M49.7138 54.4765H59.7995C59.5523 51.6237 60.072 48.7567 61.3048 46.1722C62.5377 43.5877 64.439 41.3797 66.8117 39.7767C64.8487 36.8625 62.8553 33.9483 60.8316 31.0342C53.4703 35.8001 49.0687 44.535 49.7138 54.4765Z" fill="#263238"/>
<path d="M74.492 27.1028C69.6529 27.0549 64.9052 28.4212 60.8318 31.0339C62.8555 33.948 64.8489 36.8622 66.8119 39.7764C69.4413 38.0581 72.5198 37.1552 75.6607 37.181C78.5666 37.1978 81.4273 37.9025 84.0085 39.2376C85.4049 36.3234 86.7735 33.4118 88.1142 30.5026C83.9097 28.2987 79.2389 27.133 74.492 27.1028Z" fill="#433839"/>
<path opacity="0.5" d="M74.492 27.1028C69.6529 27.0549 64.9052 28.4212 60.8318 31.0339C62.8555 33.948 64.8489 36.8622 66.8119 39.7764C69.4413 38.0581 72.5198 37.1552 75.6607 37.181C78.5666 37.1978 81.4273 37.9025 84.0085 39.2376C85.4049 36.3234 86.7735 33.4118 88.1142 30.5026C83.9097 28.2987 79.2389 27.133 74.492 27.1028Z" fill="#263238"/>
<path d="M86.8162 47.5703C86.8162 47.5703 76.6318 51.7367 75.5542 52.4956C75.2968 52.6905 75.081 52.9349 74.9195 53.2144C74.7579 53.494 74.654 53.803 74.6137 54.1233C74.5734 54.4437 74.5975 54.7688 74.6848 55.0797C74.772 55.3905 74.9205 55.6808 75.1216 55.9334C75.5018 56.4732 76.0771 56.844 76.7258 56.9673C77.3745 57.0905 78.0457 56.9565 78.5974 56.5936C79.713 55.7892 86.8314 47.5703 86.8162 47.5703ZM76.1158 55.1593C76.0167 55.035 75.9435 54.8921 75.9005 54.7391C75.8576 54.5861 75.8456 54.426 75.8654 54.2684C75.8852 54.1107 75.9364 53.9585 76.0158 53.8209C76.0953 53.6833 76.2016 53.5629 76.3283 53.467C76.6015 53.2911 76.9318 53.227 77.251 53.2877C77.5701 53.3484 77.8538 53.5294 78.0434 53.7933C78.1424 53.9176 78.2156 54.0604 78.2586 54.2135C78.3016 54.3665 78.3135 54.5265 78.2937 54.6842C78.2739 54.8419 78.2228 54.9941 78.1433 55.1317C78.0638 55.2693 77.9576 55.3897 77.8309 55.4856C77.5613 55.6646 77.2334 55.7336 76.9145 55.6786C76.5956 55.6236 76.3098 55.4486 76.1158 55.1897V55.1593Z" fill="#263238"/>
<path d="M98.8904 42.7517C98.9401 43.2085 98.8918 43.6706 98.7489 44.1073C98.6059 44.544 98.3715 44.9452 98.0613 45.2842C97.751 45.6231 97.3721 45.8921 96.9498 46.073C96.5274 46.254 96.0713 46.3429 95.6119 46.3337C94.6384 46.3146 93.7057 45.9396 92.9898 45.2796C92.2739 44.6197 91.8245 43.7204 91.7264 42.7517C91.6744 42.2974 91.7201 41.8372 91.8604 41.4019C92.0007 40.9667 92.2324 40.5665 92.5399 40.228C92.8475 39.8896 93.2238 39.6208 93.6436 39.4396C94.0635 39.2583 94.5172 39.1689 94.9744 39.1773C95.9506 39.1938 96.8871 39.5661 97.6081 40.2242C98.3292 40.8824 98.7851 41.7811 98.8904 42.7517Z" fill="white"/>
<path d="M94.4508 41.9316C94.4583 42.0037 94.4505 42.0766 94.4279 42.1454C94.4053 42.2143 94.3685 42.2777 94.3198 42.3314C94.2711 42.385 94.2117 42.4279 94.1454 42.4571C94.079 42.4863 94.0073 42.5012 93.9348 42.5008C93.7791 42.4996 93.6293 42.4408 93.5143 42.3357C93.3994 42.2306 93.3275 42.0866 93.3125 41.9316C93.3038 41.8593 93.3107 41.7859 93.3328 41.7165C93.3549 41.6471 93.3917 41.5832 93.4406 41.5292C93.4895 41.4753 93.5495 41.4324 93.6164 41.4037C93.6834 41.3749 93.7557 41.3608 93.8285 41.3624C93.9843 41.3636 94.1341 41.4224 94.249 41.5275C94.3639 41.6326 94.4358 41.7766 94.4508 41.9316Z" fill="#263238"/>
<path d="M97.1677 41.9318C97.1752 42.0046 97.1672 42.0781 97.1442 42.1475C97.1212 42.2169 97.0837 42.2806 97.0342 42.3344C96.9846 42.3883 96.9243 42.4309 96.857 42.4597C96.7897 42.4884 96.7172 42.5025 96.644 42.501C96.4893 42.4966 96.3412 42.4367 96.227 42.3322C96.1127 42.2277 96.0399 42.0856 96.0217 41.9318C96.0129 41.8588 96.02 41.7848 96.0426 41.7148C96.0651 41.6449 96.1026 41.5806 96.1523 41.5265C96.2021 41.4724 96.263 41.4297 96.3309 41.4014C96.3987 41.3732 96.4719 41.3599 96.5454 41.3627C96.7011 41.3638 96.8509 41.4226 96.9658 41.5277C97.0808 41.6328 97.1527 41.7768 97.1677 41.9318Z" fill="#263238"/>
<path d="M95.4754 44.9075C94.7247 44.9016 94.0028 44.6177 93.4492 44.1107C93.3973 44.0581 93.3682 43.9873 93.3682 43.9134C93.3682 43.8395 93.3973 43.7686 93.4492 43.7161C93.4747 43.6894 93.5053 43.6683 93.5392 43.6538C93.5731 43.6393 93.6096 43.6318 93.6465 43.6318C93.6834 43.6318 93.7199 43.6393 93.7538 43.6538C93.7877 43.6683 93.8183 43.6894 93.8438 43.7161C94.293 44.13 94.8798 44.3626 95.4906 44.3687C95.7742 44.3751 96.0559 44.3216 96.3174 44.2117C96.579 44.1019 96.8144 43.9382 97.0084 43.7312C97.0597 43.6769 97.1305 43.6452 97.2053 43.643C97.2423 43.642 97.2791 43.6482 97.3137 43.6614C97.3483 43.6746 97.3799 43.6945 97.4068 43.7199C97.4337 43.7453 97.4554 43.7757 97.4705 43.8095C97.4856 43.8433 97.494 43.8797 97.495 43.9167C97.4961 43.9537 97.4898 43.9906 97.4767 44.0251C97.4635 44.0597 97.4436 44.0914 97.4182 44.1183C97.1682 44.3793 96.866 44.5845 96.5312 44.7205C96.1964 44.8565 95.8366 44.9203 95.4754 44.9075Z" fill="#263238"/>
<path d="M78.6658 32.0823C78.7286 32.5339 78.6925 32.9937 78.5601 33.43C78.4278 33.8662 78.2022 34.2686 77.8992 34.6092C77.5961 34.9498 77.2227 35.2205 76.8047 35.4027C76.3868 35.5849 75.9343 35.6741 75.4785 35.6643C74.4968 35.6414 73.5559 35.2675 72.8263 34.6103C72.0967 33.9531 71.6268 33.0562 71.5018 32.0823C71.434 31.6328 71.4656 31.1739 71.5942 30.7378C71.7229 30.3018 71.9455 29.8993 72.2464 29.5585C72.5474 29.2178 72.9193 28.9472 73.3361 28.7657C73.7529 28.5841 74.2044 28.4961 74.6588 28.5079C75.6423 28.531 76.5855 28.9033 77.3197 29.5582C78.0538 30.2131 78.531 31.1078 78.6658 32.0823Z" fill="white"/>
<path d="M74.2033 31.2471C74.2131 31.3184 74.2075 31.3909 74.1868 31.4598C74.166 31.5287 74.1307 31.5923 74.0831 31.6463C74.0356 31.7003 73.977 31.7434 73.9113 31.7728C73.8456 31.8021 73.7744 31.8169 73.7025 31.8163C73.546 31.8124 73.396 31.753 73.2792 31.6487C73.1625 31.5445 73.0865 31.4021 73.065 31.2471C73.0538 31.1756 73.0585 31.1025 73.0788 31.0331C73.099 30.9636 73.1343 30.8995 73.182 30.8451C73.2298 30.7908 73.289 30.7477 73.3553 30.7188C73.4217 30.6899 73.4935 30.6759 73.5658 30.6779C73.7228 30.6803 73.8736 30.7391 73.9907 30.8437C74.1078 30.9482 74.1833 31.0914 74.2033 31.2471Z" fill="#263238"/>
<path d="M76.9128 31.2471C76.9228 31.319 76.9169 31.3922 76.8958 31.4616C76.8746 31.5311 76.8386 31.5951 76.7902 31.6492C76.7418 31.7033 76.6823 31.7463 76.6157 31.7752C76.549 31.804 76.477 31.818 76.4044 31.8162C76.2483 31.8108 76.0991 31.7509 75.9827 31.647C75.8662 31.543 75.7899 31.4015 75.7669 31.2471C75.757 31.1751 75.7628 31.1019 75.784 31.0325C75.8052 30.9631 75.8412 30.8991 75.8896 30.8449C75.9379 30.7908 75.9975 30.7478 76.0641 30.719C76.1307 30.6901 76.2028 30.6761 76.2754 30.6779C76.4318 30.6818 76.5819 30.7412 76.6986 30.8454C76.8154 30.9497 76.8913 31.092 76.9128 31.2471Z" fill="#263238"/>
<path d="M76.9885 33.5233H73.4368C73.3693 33.5122 73.308 33.4775 73.2637 33.4254C73.2194 33.3733 73.1951 33.3071 73.1951 33.2387C73.1951 33.1703 73.2194 33.1041 73.2637 33.052C73.308 32.9999 73.3693 32.9652 73.4368 32.9541H76.9885C77.056 32.9652 77.1173 32.9999 77.1616 33.052C77.2059 33.1041 77.2302 33.1703 77.2302 33.2387C77.2302 33.3071 77.2059 33.3733 77.1616 33.4254C77.1173 33.4775 77.056 33.5122 76.9885 33.5233Z" fill="#263238"/>
<path d="M60.6418 42.7517C60.6915 43.2085 60.6433 43.6706 60.5003 44.1073C60.3574 44.544 60.123 44.9452 59.8127 45.2842C59.5025 45.6231 59.1236 45.8921 58.7012 46.073C58.2789 46.254 57.8228 46.3429 57.3634 46.3337C56.3899 46.3146 55.4571 45.9396 54.7413 45.2796C54.0254 44.6197 53.5759 43.7204 53.4778 42.7517C53.4259 42.2974 53.4716 41.8372 53.6119 41.4019C53.7522 40.9667 53.9839 40.5665 54.2914 40.228C54.5989 39.8896 54.9752 39.6208 55.3951 39.4396C55.815 39.2583 56.2687 39.1689 56.7259 39.1773C57.7016 39.1954 58.6372 39.5682 59.3579 40.2261C60.0786 40.8839 60.535 41.7818 60.6418 42.7517Z" fill="white"/>
<path d="M56.1872 41.9316C56.1946 42.0037 56.1868 42.0766 56.1642 42.1454C56.1417 42.2143 56.1048 42.2777 56.0562 42.3314C56.0075 42.385 55.948 42.4279 55.8817 42.4571C55.8153 42.4863 55.7436 42.5012 55.6711 42.5008C55.5154 42.4996 55.3656 42.4408 55.2507 42.3357C55.1357 42.2306 55.0638 42.0866 55.0488 41.9316C55.0401 41.8593 55.047 41.7859 55.0691 41.7165C55.0912 41.6471 55.128 41.5832 55.1769 41.5292C55.2259 41.4753 55.2858 41.4324 55.3528 41.4037C55.4197 41.3749 55.492 41.3608 55.5649 41.3624C55.7206 41.3636 55.8704 41.4224 55.9853 41.5275C56.1003 41.6326 56.1722 41.7766 56.1872 41.9316Z" fill="#263238"/>
<path d="M58.904 41.9316C58.9127 42.0039 58.9057 42.0773 58.8836 42.1467C58.8615 42.2161 58.8248 42.28 58.7758 42.334C58.7269 42.3879 58.6669 42.4308 58.6 42.4595C58.5331 42.4883 58.4607 42.5024 58.3879 42.5008C58.2331 42.4964 58.0851 42.4365 57.9709 42.332C57.8566 42.2275 57.7838 42.0854 57.7656 41.9316C57.7569 41.8593 57.7638 41.7859 57.7859 41.7165C57.808 41.6471 57.8448 41.5832 57.8937 41.5292C57.9427 41.4753 58.0026 41.4324 58.0696 41.4037C58.1365 41.3749 58.2088 41.3608 58.2817 41.3624C58.4379 41.3619 58.5886 41.4201 58.7039 41.5255C58.8192 41.631 58.8906 41.7759 58.904 41.9316Z" fill="#263238"/>
<path d="M55.4282 44.9064C55.3931 44.9069 55.3583 44.9005 55.3258 44.8875C55.2932 44.8745 55.2635 44.8551 55.2385 44.8305C55.1866 44.778 55.1575 44.7071 55.1575 44.6332C55.1575 44.5594 55.1866 44.4885 55.2385 44.4359C55.4846 44.1742 55.7823 43.9663 56.1127 43.8252C56.4432 43.6842 56.7992 43.613 57.1585 43.6163C57.9102 43.6243 58.6322 43.911 59.1848 44.4208C59.2114 44.4463 59.2326 44.4769 59.2471 44.5108C59.2615 44.5447 59.269 44.5812 59.269 44.6181C59.269 44.6549 59.2615 44.6914 59.2471 44.7253C59.2326 44.7592 59.2114 44.7899 59.1848 44.8154C59.13 44.8661 59.0582 44.8942 58.9836 44.8942C58.9091 44.8942 58.8372 44.8661 58.7825 44.8154C58.3334 44.3965 57.7423 44.1633 57.1281 44.1627C56.8453 44.1564 56.5641 44.2091 56.3028 44.3176C56.0414 44.426 55.8056 44.5878 55.6103 44.7926C55.566 44.852 55.501 44.8926 55.4282 44.9064Z" fill="#263238"/>
<path d="M112.907 16.4939C110.539 11.508 105.015 8.20678 99.0573 8.20678H86.915C86.0813 8.2436 85.2526 8.05944 84.513 7.67296C83.7733 7.28648 83.149 6.7114 82.7031 6.00597C81.0107 2.83378 76.9734 0.572266 72.3897 0.572266C67.8059 0.572266 64.0418 2.84896 62.7061 6.00597C62.1521 7.34163 60.566 8.20678 58.7447 8.20678H46.6023C40.6449 8.20678 35.492 11.508 33.701 16.4939C33.6347 16.668 33.6087 16.8548 33.6251 17.0404C33.6446 17.4296 33.8131 17.7964 34.0957 18.0649C34.3782 18.3333 34.7532 18.4827 35.1429 18.4823H111.701C111.935 18.4828 112.165 18.4229 112.369 18.3084C112.573 18.1939 112.744 18.0286 112.865 17.8286C112.986 17.6286 113.054 17.4007 113.061 17.1668C113.069 16.933 113.016 16.7012 112.907 16.4939ZM72.8829 9.58038C71.9772 9.56168 71.1112 9.20475 70.4554 8.57979C69.7995 7.95483 69.4012 7.10708 69.3389 6.20329C69.3084 5.768 69.3685 5.33113 69.5154 4.92025C69.6623 4.50936 69.8928 4.13338 70.1923 3.81605C70.4918 3.49872 70.8538 3.24692 71.2556 3.07655C71.6573 2.90618 72.0899 2.82093 72.5263 2.82619C73.4378 2.83561 74.3123 3.18861 74.9749 3.81466C75.6375 4.44072 76.0396 5.29373 76.1007 6.20329C76.1314 6.64117 76.0704 7.08064 75.9217 7.49363C75.773 7.90663 75.5398 8.28408 75.237 8.60188C74.9342 8.91967 74.5685 9.17083 74.1631 9.33931C73.7578 9.5078 73.3218 9.5899 72.8829 9.58038Z" fill="#263238"/>
</svg>
