<svg width="150" height="151" viewBox="0 0 150 151" fill="none" xmlns="http://www.w3.org/2000/svg">
<g clip-path="url(#clip0_898_1888)">
<path d="M74.9978 0.573242C46.2957 0.573242 22.9453 23.9271 22.9453 52.6299C22.9453 80.2589 70.1735 144.81 72.1844 147.543L74.0612 150.098C74.2806 150.398 74.6301 150.573 74.9978 150.573C75.3712 150.573 75.7184 150.398 75.9402 150.098L77.8158 147.543C79.8279 144.81 127.055 80.2589 127.055 52.6299C127.055 23.9271 103.701 0.573242 74.9978 0.573242ZM74.9978 33.9833C85.2819 33.9833 93.6444 42.3463 93.6444 52.6299C93.6444 62.9083 85.2815 71.2765 74.9978 71.2765C64.7198 71.2765 56.3512 62.9083 56.3512 52.6299C56.3512 42.3463 64.7195 33.9833 74.9978 33.9833Z" fill="#433839"/>
</g>
<defs>
<clipPath id="clip0_898_1888">
<rect width="150" height="150" fill="white" transform="translate(0 0.573242)"/>
</clipPath>
</defs>
</svg>
