<svg width="76" height="76" viewBox="0 0 76 76" fill="none" xmlns="http://www.w3.org/2000/svg">
<path d="M35.2057 10.9277C20.2768 10.9277 8.17456 23.0301 8.17456 37.9591C8.17456 52.888 20.2769 64.9902 35.2057 64.9902C42.9304 64.9902 49.8799 61.7331 54.806 56.5378L43.4961 38.5786L60.6231 28.8318C56.8756 18.4012 46.9263 10.9277 35.2057 10.9277Z" fill="#FFB957"/>
<path d="M35.2057 65.6545C19.9333 65.6545 7.50854 53.2297 7.50854 37.9573C7.50854 22.685 19.9334 10.2598 35.2057 10.2598C46.8413 10.2598 57.3073 17.632 61.2496 28.6048L61.4391 29.1316L44.4307 38.8113L55.6454 56.6187L55.2893 56.9941C49.9938 62.579 42.8612 65.6545 35.2057 65.6545ZM35.2057 11.5918C20.668 11.5918 8.84062 23.4192 8.84062 37.9573C8.84062 52.495 20.668 64.3224 35.2057 64.3224C42.3208 64.3224 48.9617 61.5308 53.9641 56.4487L42.5614 38.3424L59.8014 28.531C55.9075 18.3762 46.0942 11.5918 35.2057 11.5918Z" fill="#4D5152"/>
<path d="M35.931 13.4082C22.3719 13.4082 11.3801 24.4 11.3801 37.9591C11.3801 51.5182 22.3719 62.5099 35.931 62.5099C42.9468 62.5099 49.2587 59.5517 53.7327 54.8331L43.4606 38.5218L59.0159 29.6693C55.6124 20.196 46.576 13.4082 35.931 13.4082Z" fill="#FFB957"/>
<path d="M35.9309 63.1742C22.0264 63.1742 10.7141 51.8619 10.7141 37.9574C10.7141 24.0525 22.0264 12.7402 35.9309 12.7402C46.5245 12.7402 56.0532 19.4524 59.6426 29.4423L59.8322 29.9691L44.3952 38.7544L54.5718 54.914L54.2157 55.2893C49.3948 60.3741 42.9009 63.1742 35.9309 63.1742ZM35.9309 14.0723C22.7608 14.0723 12.0462 24.7871 12.0462 37.9574C12.0462 51.1276 22.7607 61.8421 35.9309 61.8421C42.3607 61.8421 48.3626 59.3256 52.8902 54.7436L42.5259 38.2855L58.1941 29.3688C54.6538 20.1961 45.7777 14.0723 35.9309 14.0723Z" fill="#4D5152"/>
<path d="M23.2566 30.7004C23.2566 32.38 23.9238 33.9909 25.1115 35.1786C26.2992 36.3663 27.9101 37.0336 29.5898 37.0336C31.2695 37.0336 32.8803 36.3663 34.068 35.1786C35.2557 33.9909 35.923 32.38 35.923 30.7004C35.923 29.0207 35.2557 27.4098 34.068 26.2221C32.8803 25.0344 31.2695 24.3672 29.5898 24.3672C27.9101 24.3672 26.2992 25.0344 25.1115 26.2221C23.9238 27.4098 23.2566 29.0207 23.2566 30.7004Z" fill="#67DDE0"/>
<path d="M29.5898 37.4872C25.8483 37.4872 22.8042 34.4433 22.8042 30.7016C22.8042 26.96 25.8482 23.916 29.5898 23.916C33.3314 23.916 36.3754 26.96 36.3754 30.7016C36.3754 34.4433 33.3314 37.4872 29.5898 37.4872ZM29.5898 24.8208C26.3471 24.8208 23.709 27.4589 23.709 30.7016C23.709 33.9443 26.3471 36.5825 29.5898 36.5825C32.8325 36.5825 35.4707 33.9443 35.4707 30.7016C35.4707 27.4589 32.8325 24.8208 29.5898 24.8208Z" fill="#4D5152"/>
<path d="M43.9958 20.6105C43.9958 22.2902 44.6631 23.9011 45.8508 25.0888C47.0385 26.2765 48.6494 26.9437 50.329 26.9437C52.0087 26.9437 53.6196 26.2765 54.8073 25.0888C55.995 23.9011 56.6622 22.2902 56.6622 20.6105C56.6622 18.9309 55.995 17.32 54.8073 16.1323C53.6196 14.9446 52.0087 14.2773 50.329 14.2773C48.6494 14.2773 47.0385 14.9446 45.8508 16.1323C44.6631 17.32 43.9958 18.9309 43.9958 20.6105Z" fill="#67DDE0"/>
<path d="M50.3288 27.3954C46.5873 27.3954 43.5432 24.3515 43.5432 20.6098C43.5432 16.8682 46.5872 13.8242 50.3288 13.8242C54.0704 13.8242 57.1144 16.8682 57.1144 20.6098C57.1144 24.3515 54.0704 27.3954 50.3288 27.3954ZM50.3288 14.729C47.0861 14.729 44.448 17.3671 44.448 20.6098C44.448 23.8525 47.0861 26.4907 50.3288 26.4907C53.5715 26.4907 56.2097 23.8525 56.2097 20.6098C56.2097 17.3671 53.5715 14.729 50.3288 14.729Z" fill="#4D5152"/>
<path d="M18.6733 44.9518C18.6733 45.6275 18.9417 46.2755 19.4195 46.7532C19.8973 47.231 20.5452 47.4994 21.2209 47.4994C21.8965 47.4994 22.5445 47.231 23.0223 46.7532C23.5 46.2755 23.7684 45.6275 23.7684 44.9518C23.7684 44.2762 23.5 43.6282 23.0223 43.1505C22.5445 42.6727 21.8965 42.4043 21.2209 42.4043C20.5452 42.4043 19.8973 42.6727 19.4195 43.1505C18.9417 43.6282 18.6733 44.2762 18.6733 44.9518Z" fill="#67DDE0"/>
<path d="M21.2208 47.9511C19.5664 47.9511 18.2207 46.6054 18.2207 44.9513C18.2207 43.2969 19.5664 41.9512 21.2208 41.9512C22.8748 41.9512 24.2206 43.2969 24.2206 44.9513C24.2206 46.6054 22.8748 47.9511 21.2208 47.9511ZM21.2208 42.8559C20.0653 42.8559 19.1255 43.7958 19.1255 44.9513C19.1255 46.1065 20.0653 47.0463 21.2208 47.0463C22.376 47.0463 23.3159 46.1065 23.3159 44.9513C23.3159 43.7958 22.376 42.8559 21.2208 42.8559Z" fill="#4D5152"/>
<path d="M17.709 37.034C17.709 37.2872 17.7589 37.538 17.8558 37.772C17.9527 38.0059 18.0947 38.2185 18.2738 38.3976C18.4529 38.5767 18.6655 38.7187 18.8995 38.8156C19.1334 38.9126 19.3842 38.9624 19.6375 38.9624C19.8907 38.9624 20.1415 38.9126 20.3755 38.8156C20.6094 38.7187 20.822 38.5767 21.0011 38.3976C21.1802 38.2185 21.3222 38.0059 21.4192 37.772C21.5161 37.538 21.566 37.2872 21.566 37.034C21.566 36.7807 21.5161 36.5299 21.4192 36.296C21.3222 36.062 21.1802 35.8494 21.0011 35.6703C20.822 35.4912 20.6094 35.3492 20.3755 35.2523C20.1415 35.1554 19.8907 35.1055 19.6375 35.1055C19.3842 35.1055 19.1334 35.1554 18.8995 35.2523C18.6655 35.3492 18.4529 35.4912 18.2738 35.6703C18.0947 35.8494 17.9527 36.062 17.8558 36.296C17.7589 36.5299 17.709 36.7807 17.709 37.034Z" fill="#F2AD7A"/>
<path d="M32.0659 38.9636C32.0659 39.2169 32.1158 39.4677 32.2127 39.7016C32.3096 39.9356 32.4517 40.1482 32.6308 40.3273C32.8098 40.5064 33.0224 40.6484 33.2564 40.7453C33.4904 40.8422 33.7411 40.8921 33.9944 40.8921C34.2477 40.8921 34.4984 40.8422 34.7324 40.7453C34.9664 40.6484 35.179 40.5064 35.358 40.3273C35.5371 40.1482 35.6792 39.9356 35.7761 39.7016C35.873 39.4677 35.9229 39.2169 35.9229 38.9636C35.9229 38.7104 35.873 38.4596 35.7761 38.2256C35.6792 37.9917 35.5371 37.7791 35.358 37.6C35.179 37.4209 34.9664 37.2789 34.7324 37.182C34.4984 37.085 34.2477 37.0352 33.9944 37.0352C33.7411 37.0352 33.4904 37.085 33.2564 37.182C33.0224 37.2789 32.8098 37.4209 32.6308 37.6C32.4517 37.7791 32.3096 37.9917 32.2127 38.2256C32.1158 38.4596 32.0659 38.7104 32.0659 38.9636Z" fill="#F2AD7A"/>
<path d="M36.3157 58.0691C36.3157 58.5806 36.5189 59.0711 36.8805 59.4328C37.2422 59.7944 37.7327 59.9976 38.2442 59.9976C38.7556 59.9976 39.2461 59.7944 39.6078 59.4328C39.9695 59.0711 40.1726 58.5806 40.1726 58.0691C40.1726 57.5576 39.9695 57.0671 39.6078 56.7055C39.2461 56.3438 38.7556 56.1406 38.2442 56.1406C37.7327 56.1406 37.2422 56.3438 36.8805 56.7055C36.5189 57.0671 36.3157 57.5576 36.3157 58.0691Z" fill="white"/>
<path d="M38.9163 23.9841C38.7148 24.4126 38.7543 24.933 39.026 25.4307C39.2976 25.9284 39.7793 26.3627 40.3649 26.638C40.9506 26.9133 41.5923 27.007 42.1488 26.8987C42.7054 26.7903 43.1312 26.4887 43.3327 26.0601C43.5341 25.6316 43.4947 25.1112 43.223 24.6135C42.9514 24.1158 42.4697 23.6816 41.8841 23.4063C41.2984 23.131 40.6567 23.0372 40.1002 23.1455C39.5436 23.2539 39.1177 23.5555 38.9163 23.9841Z" fill="white"/>
<path d="M23.3946 50.1398C23.2948 50.352 23.2381 50.582 23.2278 50.8166C23.2175 51.0511 23.2537 51.2857 23.3345 51.507C23.4153 51.7282 23.539 51.9317 23.6985 52.1059C23.8581 52.28 24.0504 52.4215 24.2644 52.5221C24.4784 52.6227 24.71 52.6805 24.9459 52.6922C25.1819 52.704 25.4175 52.6694 25.6394 52.5904C25.8612 52.5114 26.065 52.3897 26.2391 52.2321C26.4131 52.0745 26.554 51.8841 26.6537 51.6718C26.7535 51.4596 26.8102 51.2297 26.8205 50.9951C26.8308 50.7605 26.7946 50.5259 26.7138 50.3047C26.633 50.0835 26.5093 49.88 26.3498 49.7058C26.1902 49.5316 25.998 49.3902 25.7839 49.2896C25.5699 49.189 25.3383 49.1311 25.1024 49.1194C24.8665 49.1077 24.6308 49.1423 24.409 49.2213C24.1871 49.3002 23.9833 49.422 23.8093 49.5796C23.6352 49.7372 23.4943 49.9276 23.3946 50.1398Z" fill="white"/>
<path d="M39.7793 50.1416C39.6795 50.3538 39.6228 50.5838 39.6125 50.8183C39.6023 51.0529 39.6385 51.2875 39.7193 51.5087C39.8001 51.7299 39.9238 51.9334 40.0833 52.1076C40.2429 52.2817 40.4351 52.4232 40.6492 52.5238C40.8632 52.6244 41.0948 52.6822 41.3307 52.6939C41.5666 52.7056 41.8022 52.671 42.0241 52.5921C42.2459 52.5132 42.4497 52.3914 42.6237 52.2338C42.7978 52.0762 42.9387 51.8859 43.0384 51.6737C43.1382 51.4615 43.1949 51.2315 43.2052 50.9969C43.2155 50.7624 43.1792 50.5278 43.0984 50.3066C43.0176 50.0854 42.8939 49.8819 42.7344 49.7077C42.5749 49.5335 42.3826 49.3921 42.1686 49.2915C41.9545 49.1909 41.723 49.1331 41.4871 49.1214C41.2512 49.1096 41.0155 49.1442 40.7937 49.2232C40.5718 49.3021 40.368 49.4239 40.194 49.5815C40.0199 49.739 39.879 49.9294 39.7793 50.1416Z" fill="#A0CE81"/>
<path d="M30.8872 50.0457C30.8872 51.0213 31.2748 51.9569 31.9646 52.6468C32.6545 53.3366 33.5901 53.7242 34.5657 53.7242C35.5413 53.7242 36.4769 53.3366 37.1668 52.6468C37.8566 51.9569 38.2442 51.0213 38.2442 50.0457C38.2442 49.0701 37.8566 48.1344 37.1668 47.4446C36.4769 46.7547 35.5413 46.3672 34.5657 46.3672C33.5901 46.3672 32.6545 46.7547 31.9646 47.4446C31.2748 48.1344 30.8872 49.0701 30.8872 50.0457Z" fill="#67DDE0"/>
<path d="M34.5657 54.1757C32.2879 54.1757 30.4348 52.3227 30.4348 50.0449C30.4348 47.7671 32.2879 45.9141 34.5657 45.9141C36.8434 45.9141 38.6965 47.7671 38.6965 50.0449C38.6965 52.3227 36.8434 54.1757 34.5657 54.1757ZM34.5657 46.8188C32.7867 46.8188 31.3395 48.266 31.3395 50.0449C31.3395 51.8239 32.7867 53.271 34.5657 53.271C36.3446 53.271 37.7918 51.8239 37.7918 50.0449C37.7918 48.266 36.3446 46.8188 34.5657 46.8188Z" fill="#4D5152"/>
<path d="M60.2301 57.7548C64.8244 52.9094 67.6609 46.3803 67.6609 39.1761C67.6609 35.9678 67.0729 32.904 66.047 30.0488L48.9202 39.7956L60.2301 57.7548Z" fill="#FFB957"/>
<path d="M60.1238 58.8352L47.9858 39.5611L66.4063 29.0781L66.674 29.8238C67.7713 32.8773 68.3274 36.0237 68.3274 39.176C68.3274 46.2745 65.6236 53.035 60.7138 58.2131L60.1238 58.8352ZM49.8552 40.03L60.3297 56.6624C64.6346 51.8217 66.9952 45.6455 66.9952 39.176C66.9952 36.435 66.5526 33.6971 65.6781 31.0251L49.8552 40.03Z" fill="#4D5152"/>
<path d="M58.0835 54.2657C61.8058 50.34 64.104 45.0501 64.104 39.2132C64.104 36.6138 63.6275 34.1316 62.7965 31.8184L48.9202 39.7153L58.0835 54.2657Z" fill="#F9E5A8"/>
<path d="M58.0215 54.8967L48.375 39.5784L63.0061 31.252L63.1625 31.6871C64.0452 34.1444 64.4926 36.6768 64.4926 39.2135C64.4926 44.9255 62.3166 50.3664 58.3656 54.5334L58.0215 54.8967ZM49.4658 39.8523L58.1428 53.6306C61.7403 49.6588 63.7154 44.5591 63.7154 39.2136C63.7154 36.9166 63.3345 34.6225 62.583 32.3873L49.4658 39.8523Z" fill="#4D5152"/>
<path d="M52.1052 40.9951C52.1052 41.2414 52.1536 41.4853 52.2479 41.7129C52.3421 41.9405 52.4803 42.1473 52.6544 42.3215C52.8286 42.4957 53.0354 42.6339 53.2629 42.7282C53.4905 42.8224 53.7344 42.871 53.9808 42.871C54.2271 42.871 54.471 42.8224 54.6986 42.7282C54.9262 42.6339 55.1329 42.4957 55.3071 42.3215C55.4813 42.1473 55.6194 41.9405 55.7136 41.7129C55.8079 41.4853 55.8564 41.2414 55.8563 40.9951C55.8564 40.7487 55.8079 40.5048 55.7136 40.2772C55.6194 40.0496 55.4813 39.8428 55.3071 39.6686C55.1329 39.4944 54.9262 39.3562 54.6986 39.2619C54.471 39.1677 54.2271 39.1191 53.9808 39.1191C53.7344 39.1191 53.4905 39.1677 53.2629 39.2619C53.0354 39.3562 52.8286 39.4944 52.6544 39.6686C52.4803 39.8428 52.3421 40.0496 52.2479 40.2772C52.1536 40.5048 52.1052 40.7487 52.1052 40.9951Z" fill="#67DDE0"/>
<path d="M56.3193 47.7045C56.3193 48.3166 56.5169 48.9037 56.8687 49.3365C57.2204 49.7694 57.6975 50.0125 58.1949 50.0125C58.6923 50.0125 59.1694 49.7694 59.5211 49.3365C59.8728 48.9037 60.0704 48.3166 60.0704 47.7045C60.0704 47.0924 59.8728 46.5053 59.5211 46.0725C59.1694 45.6396 58.6923 45.3965 58.1949 45.3965C57.6975 45.3965 57.2204 45.6396 56.8687 46.0725C56.5169 46.5053 56.3193 47.0924 56.3193 47.7045Z" fill="#E8E2DD"/>
<path d="M58.1948 39.1186C58.1948 39.2781 58.2262 39.436 58.2872 39.5833C58.3481 39.7306 58.4376 39.8645 58.5503 39.9773C58.663 40.0901 58.7969 40.1795 58.9442 40.2405C59.0915 40.3016 59.2494 40.333 59.4089 40.333C59.5683 40.333 59.7262 40.3016 59.8735 40.2405C60.0208 40.1795 60.1547 40.0901 60.2674 39.9773C60.3802 39.8645 60.4696 39.7306 60.5306 39.5833C60.5916 39.436 60.6229 39.2781 60.6229 39.1186C60.6229 38.9592 60.5916 38.8013 60.5306 38.6539C60.4696 38.5066 60.3802 38.3728 60.2674 38.26C60.1547 38.1472 60.0208 38.0578 59.8735 37.9967C59.7262 37.9357 59.5683 37.9043 59.4089 37.9043C59.2494 37.9043 59.0915 37.9357 58.9442 37.9967C58.7969 38.0578 58.663 38.1472 58.5503 38.26C58.4376 38.3728 58.3481 38.5066 58.2872 38.6539C58.2262 38.8013 58.1948 38.9592 58.1948 39.1186Z" fill="white"/>
</svg>
