<svg width="1428" height="1150" viewBox="0 0 1428 1150" fill="none" xmlns="http://www.w3.org/2000/svg">
<path d="M165.047 78.5452L203.252 43.1621L149.594 76.4538L148.248 94.1036L157.187 85.825C158.246 84.8442 159.903 84.9096 160.888 85.9716L164.912 82.2447C163.927 81.182 163.988 79.5262 165.047 78.5452Z" fill="#645443"/>
<path d="M206.785 46.9849L168.581 82.3678C167.521 83.3488 165.864 83.2832 164.879 82.2207C164.879 82.2202 160.855 85.947 160.855 85.947C161.84 87.01 161.78 88.6663 160.72 89.6473L151.782 97.9259L169.491 97.9286L206.785 46.9849Z" fill="#A38C77"/>
<path d="M173.866 100.759L187.99 128.578L217.112 41.6757L173.866 100.759Z" fill="#CDCDCD"/>
<path d="M209.343 33.2575L120.451 55.6719L147.122 71.8687L209.343 33.2575Z" fill="#CDCDCD"/>
<path d="M227.105 25.064C227.093 25.0467 227.081 25.0292 227.069 25.0124C227.064 25.0063 227.058 25 227.053 24.9936C227.033 24.9666 227.01 24.9415 226.989 24.915C226.959 24.8798 226.931 24.8434 226.9 24.8095C226.854 24.7609 226.821 24.7299 226.787 24.6977C226.763 24.6743 226.74 24.6499 226.714 24.6272C226.708 24.6218 226.702 24.6161 226.696 24.6107C226.681 24.5967 226.664 24.584 226.648 24.5705C226.632 24.5576 226.616 24.5458 226.6 24.5333C226.588 24.524 226.577 24.5151 226.565 24.5063C226.55 24.4943 226.536 24.4809 226.52 24.4692C226.505 24.4587 226.497 24.4528 226.49 24.4475C226.455 24.423 226.419 24.4015 226.383 24.3786C226.364 24.3663 226.345 24.3534 226.326 24.3415C226.314 24.3344 226.303 24.3261 226.291 24.3194C226.284 24.3157 226.278 24.3113 226.271 24.3073C226.252 24.2967 226.233 24.2882 226.214 24.2784C226.183 24.2613 226.151 24.2453 226.118 24.2294C226.098 24.2195 226.078 24.2076 226.057 24.1978C226.013 24.1778 225.968 24.1615 225.922 24.1439C225.887 24.1299 225.851 24.1137 225.815 24.1014C225.794 24.0944 225.772 24.0893 225.751 24.0825C225.723 24.0738 225.699 24.0674 225.676 24.0608C225.589 24.0366 225.502 24.0169 225.415 24.0016C225.396 23.9984 225.379 23.9945 225.361 23.9915C225.265 23.9771 225.169 23.9669 225.072 23.963C225.063 23.9627 225.054 23.9633 225.045 23.9629C225.026 23.9624 225.007 23.9636 224.988 23.9634C224.899 23.9626 224.81 23.9667 224.722 23.975C224.696 23.9774 224.67 23.9801 224.645 23.983C224.567 23.9928 224.49 24.0063 224.413 24.0227C224.382 24.0294 224.351 24.0341 224.321 24.0417C224.306 24.0466 113.098 52.093 113.098 52.093C112.077 52.3506 111.313 53.197 111.158 54.2387C111.004 55.2812 111.491 56.316 112.393 56.8639L144.389 76.2975L142.559 100.311C142.558 100.326 142.559 100.342 142.558 100.357C142.555 100.409 142.554 100.46 142.555 100.511C142.555 100.547 142.554 100.583 142.556 100.619C142.558 100.673 142.563 100.726 142.569 100.779C142.572 100.812 142.574 100.845 142.579 100.877C142.588 100.936 142.6 100.994 142.612 101.053C142.618 101.079 142.622 101.105 142.628 101.131C142.644 101.198 142.665 101.264 142.686 101.33C142.692 101.346 142.696 101.364 142.702 101.38C142.729 101.456 142.759 101.53 142.793 101.603C142.796 101.61 142.798 101.617 142.801 101.624C142.838 101.703 142.88 101.782 142.926 101.858C142.972 101.935 143.022 102.01 143.076 102.082C143.131 102.155 143.19 102.225 143.252 102.292C143.315 102.36 143.38 102.423 143.448 102.482C143.517 102.543 143.587 102.598 143.66 102.65C143.733 102.702 143.808 102.749 143.885 102.793C143.891 102.796 143.898 102.799 143.905 102.803C143.975 102.842 144.047 102.878 144.12 102.91C144.136 102.918 144.153 102.923 144.17 102.93C144.233 102.956 144.297 102.981 144.363 103.003C144.388 103.011 144.414 103.017 144.44 103.025C144.497 103.042 144.554 103.058 144.613 103.07C144.645 103.077 144.677 103.082 144.709 103.088C144.762 103.098 144.815 103.107 144.868 103.113C144.904 103.118 144.94 103.12 144.976 103.123C145.027 103.127 145.078 103.13 145.13 103.131C145.145 103.131 145.16 103.133 145.176 103.133L169.262 103.137L186.205 136.516C186.682 137.457 187.677 138.021 188.729 137.947C189.334 137.904 189.891 137.654 190.317 137.259C190.631 136.968 190.874 136.599 191.016 136.176L227.449 27.4401C227.459 27.4128 227.461 27.4014 227.465 27.3904C227.476 27.3563 227.485 27.3216 227.494 27.2869C227.506 27.2457 227.519 27.2045 227.528 27.1629C227.533 27.1431 227.535 27.123 227.539 27.1029C227.544 27.0784 227.549 27.0544 227.553 27.0301C227.563 26.9711 227.571 26.9117 227.577 26.8522C227.581 26.8106 227.587 26.7691 227.589 26.7275C227.59 26.7157 227.589 26.709 227.59 26.7026C227.591 26.6738 227.59 26.6454 227.59 26.6165C227.591 26.564 227.591 26.5112 227.589 26.4585C227.588 26.4494 227.589 26.4403 227.588 26.4314C227.588 26.4197 227.585 26.4083 227.585 26.3967C227.584 26.3801 227.582 26.364 227.58 26.3474C227.576 26.3043 227.572 26.2617 227.566 26.219C227.562 26.1894 227.557 26.1599 227.551 26.1303C227.546 26.0987 227.541 26.067 227.534 26.0356C227.528 26.0102 227.524 25.9972 227.522 25.9843C227.514 25.9524 227.506 25.9207 227.497 25.889C227.485 25.8446 227.471 25.8004 227.457 25.7564C227.445 25.7218 227.434 25.6871 227.421 25.653C227.406 25.6139 227.389 25.5755 227.372 25.5371C227.369 25.5313 227.367 25.526 227.365 25.5203C227.356 25.5004 227.349 25.4797 227.34 25.46C227.334 25.4482 227.327 25.4368 227.321 25.425C227.316 25.4137 227.31 25.4018 227.304 25.3905C227.297 25.3766 227.288 25.3632 227.281 25.3491C227.278 25.3433 227.274 25.3375 227.271 25.3319C227.253 25.2984 227.236 25.2639 227.216 25.2308C227.212 25.2232 227.207 25.2161 227.202 25.2085C227.187 25.1827 227.174 25.1677 227.163 25.1515C227.155 25.139 227.147 25.1269 227.139 25.1149C227.127 25.0977 227.116 25.0805 227.105 25.064ZM160.772 89.6323C161.83 88.6522 161.89 86.9975 160.907 85.936C159.923 84.8744 158.268 84.8092 157.21 85.7891L148.283 94.0601L149.627 76.4267L203.217 43.1653L165.06 78.516C164.003 79.4958 163.942 81.1503 164.925 82.2118C165.909 83.2738 167.564 83.3393 168.622 82.3592L206.779 47.0088L169.531 97.9055L151.844 97.9031L160.772 89.6323ZM209.283 33.2345L147.098 71.8303L120.442 55.6401L209.283 33.2345ZM173.922 100.777L217.143 41.717L188.037 128.585L173.922 100.777Z" fill="#3D302A"/>
<path d="M142.312 101.72C34.967 215.889 -115.123 494.118 143.279 693.688C466.282 943.151 868.29 833.05 1057 783.688C1245.71 734.327 1513.5 927.442 1399.5 1148.94" stroke="#433839" stroke-dasharray="25 25"/>
</svg>
