<svg width="80" height="81" viewBox="0 0 80 81" fill="none" xmlns="http://www.w3.org/2000/svg">
<path d="M25.9649 52.5021C30.2282 52.5021 33.6842 49.046 33.6842 44.7828C33.6842 40.5195 30.2282 37.0635 25.9649 37.0635C21.7017 37.0635 18.2456 40.5195 18.2456 44.7828C18.2456 49.046 21.7017 52.5021 25.9649 52.5021Z" fill="#6B6B6B"/>
<path d="M25.9648 53.9058C20.9347 53.9058 16.842 49.8131 16.842 44.783C16.842 39.7528 20.9347 35.6602 25.9648 35.6602C30.995 35.6602 35.0877 39.7528 35.0877 44.783C35.0877 49.8131 30.995 53.9058 25.9648 53.9058ZM25.9648 38.4672C22.4827 38.4672 19.6491 41.3009 19.6491 44.783C19.6491 48.2651 22.4827 51.0988 25.9648 51.0988C29.447 51.0988 32.2806 48.2651 32.2806 44.783C32.2806 41.3009 29.447 38.4672 25.9648 38.4672Z" fill="#6B6B6B"/>
<path d="M49.8245 52.5021C54.0878 52.5021 57.5438 49.046 57.5438 44.7828C57.5438 40.5195 54.0878 37.0635 49.8245 37.0635C45.5613 37.0635 42.1052 40.5195 42.1052 44.7828C42.1052 49.046 45.5613 52.5021 49.8245 52.5021Z" fill="#6B6B6B"/>
<path d="M49.8245 53.9058C44.7943 53.9058 40.7017 49.8131 40.7017 44.783C40.7017 39.7528 44.7943 35.6602 49.8245 35.6602C54.8546 35.6602 58.9473 39.7528 58.9473 44.783C58.9473 49.8131 54.8546 53.9058 49.8245 53.9058ZM49.8245 38.4672C46.3424 38.4672 43.5087 41.3009 43.5087 44.783C43.5087 48.2651 46.3424 51.0988 49.8245 51.0988C53.3066 51.0988 56.1403 48.2651 56.1403 44.783C56.1403 41.3009 53.3066 38.4672 49.8245 38.4672Z" fill="#6B6B6B"/>
<path d="M18.2455 45.4843C17.4694 45.4843 16.842 44.8569 16.842 44.0808C16.842 33.2457 25.6561 24.4316 36.4912 24.4316C37.2673 24.4316 37.8947 25.059 37.8947 25.8351C37.8947 26.6113 37.2673 27.2387 36.4912 27.2387C27.2041 27.2387 19.6491 34.7937 19.6491 44.0808C19.6491 44.8569 19.0217 45.4843 18.2455 45.4843Z" fill="#6B6B6B"/>
<path d="M42.1052 45.4843C41.329 45.4843 40.7017 44.8569 40.7017 44.0808C40.7017 33.2457 49.5157 24.4316 60.3508 24.4316C61.1269 24.4316 61.7543 25.059 61.7543 25.8351C61.7543 26.6113 61.1269 27.2387 60.3508 27.2387C51.0638 27.2387 43.5087 34.7937 43.5087 44.0808C43.5087 44.8569 42.8813 45.4843 42.1052 45.4843Z" fill="#6B6B6B"/>
</svg>
