<svg width="220" height="201" viewBox="0 0 220 201" fill="none" xmlns="http://www.w3.org/2000/svg">
<path d="M107.19 0.572266H0.381348V199.436H107.19V0.572266Z" fill="#263238"/>
<path opacity="0.7" d="M107.19 0.572266H0.381348V199.436H107.19V0.572266Z" fill="white"/>
<path d="M65.9325 142.321H76.7612C78.8854 142.321 80.6074 140.599 80.6074 138.475V136.498C80.6074 134.374 78.8854 132.652 76.7612 132.652H65.9325C63.8083 132.652 62.0863 134.374 62.0863 136.498V138.475C62.0863 140.599 63.8083 142.321 65.9325 142.321Z" fill="#F0F0F0"/>
<path d="M57.956 153.747H68.7846C70.9088 153.747 72.6309 152.025 72.6309 149.901V147.924C72.6309 145.799 70.9088 144.077 68.7846 144.077H57.956C55.8317 144.077 54.1097 145.799 54.1097 147.924V149.901C54.1097 152.025 55.8317 153.747 57.956 153.747Z" fill="#E6E6E6"/>
<path d="M22.2546 95.752H33.0832C35.2074 95.752 36.9294 94.0299 36.9294 91.9057V89.9286C36.9294 87.8044 35.2074 86.0823 33.0832 86.0823H22.2546C20.1303 86.0823 18.4083 87.8044 18.4083 89.9286V91.9057C18.4083 94.0299 20.1303 95.752 22.2546 95.752Z" fill="#F0F0F0"/>
<path d="M14.2721 107.177H25.1008C27.225 107.177 28.947 105.455 28.947 103.33V101.353C28.947 99.2292 27.225 97.5071 25.1008 97.5071H14.2721C12.1479 97.5071 10.4259 99.2292 10.4259 101.353V103.33C10.4259 105.455 12.1479 107.177 14.2721 107.177Z" fill="#E6E6E6"/>
<path d="M65.9325 26.3369L76.7612 26.3369C78.8854 26.3369 80.6074 24.6149 80.6074 22.4906V20.5135C80.6074 18.3893 78.8854 16.6673 76.7612 16.6673H65.9325C63.8083 16.6673 62.0863 18.3893 62.0863 20.5135V22.4906C62.0863 24.6149 63.8083 26.3369 65.9325 26.3369Z" fill="#F0F0F0"/>
<path d="M57.956 37.7627H68.7846C70.9088 37.7627 72.6309 36.0407 72.6309 33.9164V31.9393C72.6309 29.8151 70.9088 28.0931 68.7846 28.0931H57.956C55.8317 28.0931 54.1097 29.8151 54.1097 31.9393V33.9164C54.1097 36.0407 55.8317 37.7627 57.956 37.7627Z" fill="#E6E6E6"/>
<path d="M181.462 84.792H204.807V111.114C204.807 111.813 204.529 112.483 204.035 112.978C203.541 113.472 202.87 113.75 202.171 113.75H184.099C183.399 113.75 182.729 113.472 182.235 112.978C181.74 112.483 181.462 111.813 181.462 111.114V84.792Z" fill="#433839"/>
<path d="M181.224 85.0078L182.36 85.8089C182.61 85.9834 182.908 86.077 183.212 86.077C183.517 86.077 183.815 85.9834 184.065 85.8089L184.332 85.6157C184.581 85.4412 184.879 85.3476 185.184 85.3476C185.489 85.3476 185.786 85.4412 186.036 85.6157L186.303 85.8089C186.553 85.9834 186.85 86.077 187.155 86.077C187.46 86.077 187.757 85.9834 188.007 85.8089L188.28 85.6157C188.53 85.4412 188.827 85.3476 189.132 85.3476C189.437 85.3476 189.735 85.4412 189.984 85.6157L190.252 85.8089C190.501 85.9834 190.799 86.077 191.104 86.077C191.409 86.077 191.706 85.9834 191.956 85.8089L192.223 85.6157C192.473 85.4412 192.77 85.3476 193.075 85.3476C193.38 85.3476 193.677 85.4412 193.927 85.6157L194.2 85.8089C194.45 85.9834 194.747 86.077 195.052 86.077C195.357 86.077 195.655 85.9834 195.904 85.8089L196.171 85.6157C196.421 85.4412 196.719 85.3476 197.024 85.3476C197.328 85.3476 197.626 85.4412 197.876 85.6157L198.149 85.8089C198.398 85.985 198.696 86.0795 199.001 86.0795C199.306 86.0795 199.604 85.985 199.853 85.8089L200.126 85.6157C200.376 85.4412 200.673 85.3476 200.978 85.3476C201.283 85.3476 201.58 85.4412 201.83 85.6157L202.097 85.8089C202.347 85.9834 202.644 86.077 202.949 86.077C203.254 86.077 203.552 85.9834 203.801 85.8089L204.938 85.0078H181.224Z" fill="#263238"/>
<path opacity="0.7" d="M204.807 96.3368C202.938 97.564 199.824 98.4389 195.064 96.5129L194.853 96.4277C193.359 95.8538 191.747 95.6525 190.157 95.8412C188.568 96.03 187.048 96.6031 185.729 97.511C184.411 98.419 183.333 99.6344 182.59 101.052C181.846 102.47 181.459 104.048 181.462 105.648V105.87C183.508 104.257 187.905 101.762 193.132 104.609L193.285 104.688C194.488 105.315 195.832 105.621 197.188 105.576C198.543 105.531 199.865 105.137 201.023 104.432C202.182 103.727 203.139 102.735 203.802 101.552C204.465 100.368 204.811 99.0339 204.807 97.6776V96.3368Z" fill="white"/>
<path d="M185.701 100.83C184.883 100.877 184.064 100.752 183.296 100.464C182.529 100.175 181.831 99.729 181.247 99.1544C177.4 95.1036 180.679 85.1556 180.792 84.7295L181.36 84.8602C181.326 84.9568 178.048 95.0014 181.718 98.859C182.241 99.37 182.865 99.7659 183.55 100.021C184.235 100.277 184.966 100.386 185.695 100.342C195.211 100.342 199.296 84.8999 199.33 84.7465L199.899 84.8431C199.117 87.6139 198.013 90.2834 196.609 92.797C193.649 98.0522 189.865 100.83 185.701 100.83Z" fill="#263238"/>
<path d="M205.108 85.2011H181.156C181.102 85.2011 181.049 85.1905 181 85.1699C180.951 85.1493 180.906 85.1191 180.868 85.081C180.831 85.0429 180.801 84.9978 180.781 84.9482C180.761 84.8986 180.751 84.8455 180.752 84.7921C180.752 84.6851 180.795 84.5825 180.87 84.5069C180.946 84.4312 181.049 84.3887 181.156 84.3887H205.108C205.162 84.388 205.215 84.3978 205.264 84.4178C205.314 84.4377 205.359 84.4673 205.397 84.5048C205.435 84.5424 205.465 84.5871 205.486 84.6364C205.507 84.6857 205.517 84.7386 205.517 84.7921C205.517 84.8458 205.507 84.899 205.486 84.9486C205.465 84.9983 205.435 85.0433 205.397 85.0813C205.359 85.1193 205.314 85.1495 205.265 85.17C205.215 85.1906 205.162 85.2011 205.108 85.2011Z" fill="#263238"/>
<path d="M110.701 15.1117L90.8329 15.5591C90.102 15.5755 89.5229 16.1814 89.5393 16.9123L89.5556 17.6336C89.572 18.3645 90.1779 18.9437 90.9088 18.9272L110.777 18.4798C111.508 18.4634 112.087 17.8575 112.071 17.1266L112.054 16.4053C112.038 15.6744 111.432 15.0952 110.701 15.1117Z" fill="#263238"/>
<path opacity="0.1" d="M112.047 16.0526L89.5315 16.5596L89.5633 17.9739L112.078 17.4669L112.047 16.0526Z" fill="white"/>
<path d="M92.6178 17.2013C92.6291 17.5406 92.5389 17.8755 92.3586 18.1632C92.1783 18.4508 91.9163 18.6781 91.606 18.8159C91.2957 18.9536 90.9514 18.9956 90.6171 18.9364C90.2828 18.8772 89.9739 18.7195 89.7298 18.4836C89.4857 18.2476 89.3176 17.9442 89.2471 17.6121C89.1766 17.28 89.2069 16.9344 89.3341 16.6197C89.4612 16.3049 89.6795 16.0353 89.9609 15.8454C90.2423 15.6555 90.5739 15.5539 90.9134 15.5537C91.3558 15.5535 91.7809 15.7252 92.099 16.0327C92.417 16.3401 92.6031 16.7592 92.6178 17.2013Z" fill="#263238"/>
<path d="M103.884 18.9906L93.4416 18.1839C93.0189 18.193 92.5989 18.1136 92.2087 17.9509L90.7316 17.4623C90.6562 17.439 90.5932 17.3866 90.5565 17.3169C90.5197 17.2471 90.5122 17.1655 90.5356 17.0902C90.5589 17.0149 90.6112 16.9519 90.681 16.9151C90.7508 16.8784 90.8323 16.8708 90.9077 16.8942L92.3905 17.3885C92.7301 17.5306 93.0963 17.5984 93.4643 17.5873H93.9642L103.929 18.3657C104.004 18.3729 104.073 18.4089 104.122 18.4662C104.171 18.5234 104.195 18.5974 104.191 18.6725C104.196 18.7145 104.192 18.7572 104.178 18.7974C104.165 18.8376 104.143 18.8743 104.113 18.9048C104.084 18.9353 104.048 18.9589 104.008 18.9737C103.969 18.9886 103.926 18.9943 103.884 18.9906Z" fill="#433839"/>
<path d="M113.724 16.7349C113.723 16.7995 113.699 16.8616 113.658 16.9112C113.617 16.9607 113.56 16.9948 113.497 17.0077L112.059 17.3031L105.872 18.5871L104.736 18.8143L112.519 22.5924C112.595 22.6082 112.661 22.6533 112.703 22.7178C112.745 22.7822 112.76 22.8608 112.744 22.9361C112.728 23.0115 112.683 23.0774 112.618 23.1195C112.554 23.1616 112.475 23.1764 112.4 23.1605C112.357 23.16 112.314 23.1503 112.275 23.1321L103.753 18.9904C103.7 18.9646 103.657 18.9226 103.629 18.8705C103.602 18.8185 103.591 18.759 103.6 18.7007C103.597 18.6875 103.597 18.6741 103.6 18.6609C103.611 18.61 103.637 18.5636 103.674 18.5272C103.712 18.4909 103.759 18.4663 103.81 18.4564L112.042 16.752V16.4622C112.041 16.3602 112.026 16.2588 111.997 16.1611L113.497 16.5134C113.553 16.5228 113.604 16.549 113.645 16.5886C113.686 16.6282 113.713 16.6793 113.724 16.7349Z" fill="#433839"/>
<path d="M172.827 52.755C172.993 52.7487 173.153 52.6873 173.28 52.5802C173.408 52.4732 173.496 52.3268 173.532 52.164C173.567 52.0012 173.547 51.8313 173.475 51.6811C173.403 51.531 173.283 51.4091 173.134 51.3347L108.366 20.1214C108.188 20.0363 107.983 20.0256 107.796 20.0916C107.61 20.1577 107.457 20.2951 107.372 20.4737C107.287 20.6522 107.276 20.8573 107.342 21.0437C107.408 21.2302 107.546 21.3828 107.724 21.4679L172.492 52.6812C172.597 52.7297 172.711 52.7549 172.827 52.755Z" fill="#263238"/>
<path d="M121.195 32.9618L121.167 32.5073L124.467 34.4276C123.044 35.3489 121.33 35.7112 119.655 35.4446C118.742 35.3077 117.872 34.9659 117.11 34.4446C116.722 34.1854 116.373 33.8737 116.07 33.5186C115.915 33.3413 115.774 33.1512 115.65 32.9504C115.527 32.7821 115.419 32.6034 115.326 32.4164C114.713 31.1882 114.29 29.8741 114.071 28.519C113.858 27.2506 113.778 25.9634 113.832 24.6784L115.457 24.4512C115.894 25.5136 116.371 26.6044 116.894 27.5929C117.363 28.535 117.953 29.4117 118.65 30.2007C118.707 30.2739 118.774 30.3389 118.849 30.3938C118.904 30.4425 118.965 30.4844 119.03 30.5188C119.146 30.5896 119.268 30.6504 119.394 30.7006C119.661 30.7954 119.94 30.849 120.223 30.8597C120.947 30.8462 121.663 30.7117 122.343 30.462L125.678 29.3258V32.3653V32.8198L121.195 32.9618Z" fill="#B55B52"/>
<path d="M147.835 38.3473L145.221 39.8244L144.301 36.1316L147.408 35.1885L147.835 38.3473Z" fill="#B55B52"/>
<path d="M144.449 20.122C144.449 20.122 148.21 19.7072 149.193 24.6046C150.176 29.5019 153.033 34.9503 149.494 37.9841L147.466 39.2851C146.463 38.1623 145.756 36.8072 145.409 35.3423L146.545 34.4958L145.562 31.1324C145.562 31.1324 142.92 21.3037 144.449 20.122Z" fill="#433839"/>
<path opacity="0.5" d="M144.449 20.122C144.449 20.122 148.21 19.7072 149.193 24.6046C150.176 29.5019 153.033 34.9503 149.494 37.9841L147.466 39.2851C146.463 38.1623 145.756 36.8072 145.409 35.3423L146.545 34.4958L145.562 31.1324C145.562 31.1324 142.92 21.3037 144.449 20.122Z" fill="white"/>
<path d="M147.153 101.467L151.005 106.399C151.1 106.53 151.152 106.688 151.152 106.85C151.152 107.013 151.1 107.171 151.005 107.302C150.572 107.936 150.103 108.544 149.602 109.126C148.898 109.752 148.158 110.336 147.386 110.876C147.255 110.974 147.159 111.113 147.114 111.271C147.069 111.429 147.077 111.597 147.136 111.75C147.204 111.934 147.341 112.084 147.519 112.167C147.697 112.25 147.9 112.26 148.085 112.194L156.709 108.915C156.808 108.876 156.898 108.816 156.971 108.739C157.045 108.661 157.101 108.569 157.135 108.468C157.17 108.367 157.182 108.26 157.171 108.154C157.161 108.047 157.127 107.945 157.073 107.853L151.959 98.8084C151.869 98.6427 151.718 98.5183 151.538 98.4611C151.358 98.404 151.163 98.4185 150.993 98.5016L147.369 100.331C147.272 100.384 147.188 100.458 147.123 100.548C147.058 100.637 147.014 100.74 146.993 100.848C146.973 100.957 146.976 101.069 147.004 101.176C147.031 101.283 147.082 101.382 147.153 101.467Z" fill="#433839"/>
<path d="M145.857 44.2383L135.534 44.8519C135.534 44.8519 135.466 75.4118 136.358 83.0929C137.159 89.9901 145.164 97.6712 146.778 101.37C146.831 101.536 146.94 101.679 147.085 101.775C147.231 101.871 147.405 101.914 147.579 101.898L152.124 99.1938C152.862 98.5348 151.692 97.9837 151.505 97.6315C150.17 95.1203 147.198 90.5128 144.272 82.3316C143.67 80.6556 143.994 66.35 144.465 61.2425C144.852 56.794 148.266 50.59 145.857 44.2383Z" fill="#263238"/>
<path opacity="0.2" d="M138.694 52.0449C138.663 59.8957 137.7 67.715 135.824 75.3384C135.586 70.7252 135.62 58.8057 135.574 54.1357L136.836 52.0847L138.694 52.0449Z" fill="black"/>
<path d="M126.223 102.871L126.859 109.41C126.873 109.546 126.849 109.683 126.79 109.807C126.731 109.93 126.639 110.034 126.524 110.109C125.777 110.604 125.005 111.061 124.212 111.478C123.265 111.824 122.302 112.122 121.326 112.37C121.166 112.415 121.026 112.512 120.928 112.646C120.83 112.78 120.78 112.943 120.786 113.109C120.789 113.304 120.869 113.489 121.008 113.626C121.148 113.762 121.335 113.837 121.53 113.836L131.086 113.62C131.278 113.613 131.459 113.532 131.592 113.394C131.726 113.257 131.801 113.073 131.802 112.881L131.859 102.928C131.863 102.734 131.791 102.547 131.658 102.406C131.525 102.266 131.342 102.184 131.149 102.178L126.973 102.053C126.868 102.051 126.764 102.072 126.668 102.114C126.572 102.155 126.486 102.217 126.415 102.294C126.344 102.371 126.29 102.463 126.257 102.562C126.224 102.661 126.213 102.767 126.223 102.871Z" fill="#433839"/>
<path d="M129.063 44.8352C129.063 44.8352 124.587 75.0542 124.206 80.9855C123.859 86.3601 125.291 98.7852 125.552 102.739C125.563 102.909 125.638 103.068 125.763 103.184C125.888 103.299 126.053 103.362 126.223 103.359L131.734 103.234C131.905 103.229 132.068 103.158 132.187 103.034C132.306 102.911 132.372 102.746 132.37 102.575C132.37 99.609 132.33 92.4789 131.893 85.2636C131.731 82.473 132.048 79.6752 132.83 76.9916C133.841 73.5203 135.716 65.538 137.375 60.3964C138.676 56.3342 139.858 55.0957 140.216 52.0107C140.727 47.4145 139.449 44.625 139.449 44.625L129.063 44.8352Z" fill="#263238"/>
<path d="M140.932 19.241C140.932 19.241 138.864 19.0762 138.801 15.2641C138.801 15.2641 136.875 14.446 135.671 15.5936C134.466 16.7412 136.875 19.3092 135.375 20.4454C133.876 21.5817 140.932 19.241 140.932 19.241Z" fill="#B55B52"/>
<path d="M128.467 21.2687C128.467 21.2687 126.711 20.1324 123.876 25.2456L120.638 30.3588H118.973C118.973 30.3588 117.837 33.5518 119.087 35.3811C119.087 35.3811 121.968 38.6195 128.66 29.9441L129.955 24.3423L128.467 21.2687Z" fill="#433839"/>
<path opacity="0.5" d="M128.467 21.2687C128.467 21.2687 126.711 20.1324 123.876 25.2456L120.638 30.3588H118.973C118.973 30.3588 117.837 33.5518 119.087 35.3811C119.087 35.3811 121.968 38.6195 128.66 29.9441L129.955 24.3423L128.467 21.2687Z" fill="white"/>
<path d="M146.386 45.0398C146.386 45.0398 135.069 47.1874 128.774 45.4375C128.774 45.4375 129.87 42.7389 127.45 32.3023C127.45 32.3023 129.512 26.7232 127.2 21.235C127.2 21.235 135.881 18.3944 145.091 19.8147C145.728 23.0263 146.141 26.2781 146.329 29.5468C146.591 34.2851 147.005 33.8078 146.386 45.0398Z" fill="#433839"/>
<path d="M141.551 20.1838C141.551 20.1838 141.932 17.6613 137.682 18.1953C133.432 18.7294 132.717 20.928 132.717 20.928L141.551 20.1838Z" fill="#433839"/>
<path d="M146.522 42.6601C142.289 43.2119 138.03 43.5343 133.762 43.6259C132.239 43.66 130.632 43.6657 128.973 43.6259C128.973 43.0862 128.944 42.4897 128.916 41.8817C134.822 41.992 140.728 41.6578 146.585 40.8818C146.568 41.4443 146.545 42.0351 146.522 42.6601Z" fill="#263238"/>
<path opacity="0.8" d="M146.545 42.6601C142.304 43.209 138.037 43.5314 133.762 43.6259C132.239 43.66 130.632 43.6657 128.973 43.6259C128.973 43.0862 128.944 42.4897 128.916 41.8817C134.83 41.9917 140.744 41.6574 146.607 40.8818C146.59 41.4443 146.573 42.0351 146.545 42.6601Z" fill="white"/>
<path d="M133.83 36.4554C133.796 32.2512 133.262 23.2293 130.876 20.8999C130.686 20.6968 130.444 20.5494 130.177 20.4738C130.842 20.3318 131.603 20.1841 132.449 20.042C133.802 21.718 134.722 25.0359 135.222 29.9389C135.489 32.6148 135.557 35.0521 135.574 36.3531C138.44 36.1538 141.294 35.8106 144.125 35.3248C144.034 33.1546 143.75 26.8937 143.238 23.8315C143.026 22.3577 142.658 20.9104 142.142 19.5137C142.778 19.5534 143.414 19.6103 144.062 19.6898C144.453 20.9561 144.751 22.2492 144.954 23.5588C145.465 26.6381 145.749 32.6148 145.852 35.0124L146.67 34.8362C146.67 35.4044 146.67 35.9725 146.67 36.6259C141.698 37.6378 136.647 38.2082 131.575 38.3303C130.575 38.3303 129.552 38.3303 128.501 38.3303C128.427 37.7621 128.348 37.194 128.251 36.5804C130.211 36.5861 132.069 36.5577 133.83 36.4554Z" fill="#263238"/>
<path opacity="0.8" d="M133.83 36.4554C133.796 32.2512 133.262 23.2293 130.876 20.8999C130.686 20.6968 130.444 20.5494 130.177 20.4738C130.842 20.3318 131.603 20.1841 132.45 20.042C133.802 21.718 134.722 25.0359 135.222 29.9389C135.489 32.6148 135.557 35.0521 135.574 36.3531C138.44 36.1538 141.294 35.8106 144.125 35.3248C144.034 33.1546 143.75 26.8937 143.238 23.8315C143.026 22.3577 142.658 20.9104 142.142 19.5137C142.778 19.5534 143.415 19.6103 144.062 19.6898C144.453 20.9561 144.751 22.2492 144.954 23.5588C145.465 26.6381 145.75 32.6148 145.852 35.0124L146.659 34.8362C146.659 35.4044 146.687 35.9725 146.687 36.6259C141.715 37.6378 136.664 38.2082 131.592 38.3303C130.592 38.3303 129.569 38.3303 128.518 38.3303C128.444 37.7621 128.365 37.194 128.268 36.5804C130.211 36.5861 132.069 36.5577 133.83 36.4554Z" fill="white"/>
<path d="M142.841 29.1777L136.307 29.9163L136.512 34.0694L143.045 33.2626L142.841 29.1777Z" fill="white"/>
<path d="M131.069 10.9578C131.069 11.2021 131.166 11.4067 131.325 11.418C131.484 11.4294 131.637 11.2305 131.643 10.9976C131.649 10.7647 131.546 10.5488 131.393 10.5431C131.24 10.5374 131.092 10.7192 131.069 10.9578Z" fill="#263238"/>
<path d="M131.876 11.3496L130.836 13.3154C131.069 13.4327 131.326 13.4939 131.586 13.4939C131.847 13.4939 132.103 13.4327 132.336 13.3154L131.876 11.3496Z" fill="#A02724"/>
<path d="M132.313 9.91834C132.294 9.92663 132.274 9.93092 132.254 9.93092C132.233 9.93092 132.213 9.92663 132.194 9.91834C132.051 9.85082 131.893 9.81868 131.735 9.82461C131.577 9.83055 131.423 9.87438 131.285 9.95243C131.271 9.962 131.256 9.96872 131.239 9.97219C131.223 9.97566 131.206 9.97581 131.19 9.97263C131.173 9.96945 131.158 9.96301 131.144 9.95369C131.13 9.94436 131.118 9.93234 131.109 9.91834C131.091 9.8895 131.086 9.85511 131.093 9.8223C131.101 9.7895 131.12 9.76082 131.148 9.74222C131.319 9.64262 131.512 9.58502 131.709 9.57415C131.907 9.56329 132.104 9.59947 132.285 9.67972C132.301 9.68589 132.316 9.69531 132.328 9.70741C132.34 9.71951 132.35 9.73402 132.356 9.75003C132.363 9.76604 132.366 9.7832 132.365 9.80043C132.364 9.81766 132.36 9.83459 132.353 9.85016C132.346 9.87619 132.333 9.89983 132.313 9.91834Z" fill="#263238"/>
<path d="M140.466 9.97478C140.392 13.1904 140.432 14.5539 138.875 16.264C136.461 18.0366 132.592 18.0423 131.706 14.8664C130.904 12.0257 131.137 7.24206 134.251 5.82741C134.775 5.58611 135.343 5.45068 135.92 5.4289C136.497 5.40712 137.073 5.49941 137.614 5.70048C138.156 5.90155 138.652 6.20744 139.075 6.60065C139.498 6.99387 139.84 7.46667 140.08 7.99199C140.363 8.61328 140.495 9.29265 140.466 9.97478Z" fill="#B55B52"/>
<path d="M133.592 12.2416C133.592 12.2416 132.989 9.88956 133.523 9.21916C134.057 8.54877 133.739 8.40673 133.137 7.84428C132.535 7.28183 131.785 6.84437 132.569 5.73651C135.779 1.00396 141.915 4.41276 142.193 7.69089C142.295 8.91806 141.551 11.3326 141.5 11.4803C140.895 13.2031 140.019 14.818 138.904 16.264C138.358 16.379 137.795 16.3925 137.245 16.3038C137.245 16.3038 134.131 13.6506 133.592 12.2416Z" fill="#263238"/>
<path d="M133.83 11.0313C133.637 11.2939 133.498 11.5926 133.422 11.9097C133.346 12.2268 133.334 12.556 133.387 12.8778C133.529 13.7356 134.393 13.8038 135.012 13.2641C135.631 12.7244 136.148 11.7415 135.711 10.9916C135.603 10.8402 135.461 10.7175 135.295 10.634C135.129 10.5506 134.945 10.509 134.76 10.5129C134.574 10.5169 134.393 10.5662 134.231 10.6565C134.069 10.7469 133.931 10.8756 133.83 11.0313Z" fill="#B55B52"/>
<path d="M142.074 8.71875C142.093 9.68278 141.886 10.6379 141.471 11.5083C138.835 11.2697 136.75 10.2186 136.199 8.8551L142.074 8.71875Z" fill="#263238"/>
<path opacity="0.6" d="M142.074 8.71875C142.093 9.68278 141.886 10.6379 141.471 11.5083C138.835 11.2697 136.75 10.2186 136.199 8.8551L142.074 8.71875Z" fill="white"/>
<path d="M142.006 9.74183C142.006 9.74183 141.847 10.5145 141.761 10.7417C141.761 10.7417 140.903 11.2417 138.392 9.73047" fill="#263238"/>
<path d="M131.024 8.46934C131.087 7.03092 131.698 5.67111 132.731 4.6679C133.763 3.66468 135.14 3.09384 136.58 3.07207C138.018 3.04858 139.415 3.55778 140.5 4.50171C141.586 5.44563 142.284 6.75761 142.46 8.18527H143.028C143.145 8.19808 143.253 8.25358 143.332 8.34112C143.41 8.42866 143.454 8.54209 143.454 8.65966C143.454 8.77723 143.41 8.89066 143.332 8.9782C143.253 9.06575 143.145 9.12125 143.028 9.13405L128.717 9.46925C128.103 9.48061 130.262 8.48638 131.024 8.46934Z" fill="#433839"/>
<path opacity="0.1" d="M142.46 8.20787L131.024 8.46353C131.046 7.88734 131.134 7.31555 131.285 6.75913L141.881 6.52051C142.178 7.04148 142.375 7.61395 142.46 8.20787Z" fill="black"/>
<path d="M114.099 25.2969L115.764 25.4787C115.727 24.8859 115.573 24.3064 115.309 23.7743C114.917 23.155 114.741 22.8482 114.661 22.6948C114.614 22.6037 114.535 22.533 114.44 22.496L113.23 22.0131C113.152 21.9806 113.067 21.9708 112.985 21.9846C112.902 21.9985 112.825 22.0356 112.763 22.0915C112.7 22.1474 112.655 22.2199 112.632 22.3006C112.609 22.3812 112.609 22.4667 112.633 22.5471C112.773 22.9086 112.829 23.297 112.798 23.6834L114.099 25.2969Z" fill="#B55B52"/>
<path d="M177.474 195.818C177.378 195.82 177.281 195.804 177.19 195.772L6.39229 135.55C6.17908 135.475 6.00453 135.318 5.90704 135.114C5.80955 134.91 5.7971 134.675 5.87244 134.462C5.94778 134.249 6.10473 134.074 6.30877 133.977C6.5128 133.879 6.74721 133.867 6.96042 133.942L177.753 194.164C177.94 194.232 178.098 194.364 178.198 194.536C178.299 194.708 178.336 194.91 178.303 195.107C178.269 195.304 178.168 195.483 178.017 195.612C177.866 195.742 177.674 195.815 177.474 195.818Z" fill="#433839"/>
<path d="M6.67629 194.647C6.47357 194.649 6.27667 194.579 6.12095 194.449C5.96523 194.319 5.8609 194.138 5.82668 193.938C5.79246 193.738 5.83061 193.533 5.93426 193.359C6.03792 193.184 6.20029 193.053 6.39223 192.988L175.696 133.294C175.909 133.218 176.144 133.231 176.348 133.328C176.552 133.426 176.709 133.6 176.784 133.814C176.859 134.027 176.847 134.261 176.749 134.465C176.652 134.669 176.477 134.826 176.264 134.902L6.96036 194.595C6.86948 194.629 6.77327 194.647 6.67629 194.647Z" fill="#433839"/>
<path opacity="0.4" d="M177.753 194.164L92.9758 164.268L176.258 134.902C176.364 134.864 176.461 134.807 176.544 134.732C176.628 134.657 176.695 134.566 176.744 134.465C176.792 134.364 176.82 134.255 176.826 134.143C176.832 134.031 176.816 133.919 176.778 133.814C176.741 133.708 176.683 133.611 176.608 133.528C176.534 133.444 176.443 133.377 176.342 133.328C176.241 133.28 176.131 133.252 176.02 133.246C175.908 133.24 175.796 133.257 175.69 133.294L90.4135 163.365L6.96036 133.942C6.74715 133.866 6.51274 133.879 6.30871 133.976C6.10467 134.074 5.94772 134.248 5.87238 134.461C5.79704 134.675 5.80949 134.909 5.90698 135.113C6.00447 135.317 6.17902 135.474 6.39223 135.549L87.8512 164.268L6.39223 192.988C6.20029 193.053 6.03792 193.184 5.93426 193.359C5.83061 193.533 5.79246 193.738 5.82668 193.938C5.8609 194.138 5.96523 194.319 6.12095 194.449C6.27667 194.579 6.47357 194.649 6.67629 194.647C6.77327 194.647 6.86948 194.629 6.96036 194.595L90.4135 165.172L177.19 195.771C177.281 195.804 177.378 195.819 177.474 195.817C177.674 195.814 177.866 195.741 178.017 195.612C178.168 195.482 178.269 195.303 178.303 195.106C178.336 194.91 178.299 194.708 178.198 194.535C178.098 194.363 177.94 194.232 177.753 194.164Z" fill="white"/>
<path d="M175.435 200.572C175.133 200.572 174.844 200.453 174.631 200.24C174.418 200.027 174.298 199.738 174.298 199.436V114.273C174.298 113.972 174.418 113.683 174.631 113.47C174.844 113.256 175.133 113.137 175.435 113.137C175.736 113.137 176.025 113.256 176.238 113.47C176.451 113.683 176.571 113.972 176.571 114.273V199.436C176.571 199.738 176.451 200.027 176.238 200.24C176.025 200.453 175.736 200.572 175.435 200.572Z" fill="#433839"/>
<g opacity="0.4">
<path d="M175.435 200.573C175.133 200.573 174.844 200.454 174.631 200.241C174.418 200.028 174.299 199.739 174.299 199.437V114.274C174.299 113.973 174.418 113.684 174.631 113.47C174.844 113.257 175.133 113.138 175.435 113.138C175.736 113.138 176.025 113.257 176.238 113.47C176.451 113.684 176.571 113.973 176.571 114.274V199.437C176.571 199.739 176.451 200.028 176.238 200.241C176.025 200.454 175.736 200.573 175.435 200.573Z" fill="white"/>
</g>
<path d="M218.482 117.295H175.435C175.133 117.295 174.844 117.175 174.631 116.962C174.418 116.749 174.298 116.46 174.298 116.159C174.298 115.857 174.418 115.568 174.631 115.355C174.844 115.142 175.133 115.022 175.435 115.022H218.482C218.783 115.022 219.072 115.142 219.286 115.355C219.499 115.568 219.618 115.857 219.618 116.159C219.618 116.46 219.499 116.749 219.286 116.962C219.072 117.175 218.783 117.295 218.482 117.295Z" fill="#433839"/>
<path d="M218.482 136.999H175.435C175.133 136.999 174.844 136.879 174.631 136.666C174.418 136.453 174.298 136.164 174.298 135.863C174.298 135.561 174.418 135.272 174.631 135.059C174.844 134.846 175.133 134.727 175.435 134.727H218.482C218.783 134.727 219.072 134.846 219.286 135.059C219.499 135.272 219.618 135.561 219.618 135.863C219.618 136.164 219.499 136.453 219.286 136.666C219.072 136.879 218.783 136.999 218.482 136.999Z" fill="#433839"/>
<path d="M218.482 156.695H175.435C175.133 156.695 174.844 156.576 174.631 156.363C174.418 156.149 174.298 155.86 174.298 155.559C174.298 155.258 174.418 154.969 174.631 154.756C174.844 154.543 175.133 154.423 175.435 154.423H218.482C218.783 154.423 219.072 154.543 219.286 154.756C219.499 154.969 219.618 155.258 219.618 155.559C219.618 155.86 219.499 156.149 219.286 156.363C219.072 156.576 218.783 156.695 218.482 156.695Z" fill="#433839"/>
<path d="M218.482 176.399H175.435C175.133 176.399 174.844 176.279 174.631 176.066C174.418 175.853 174.298 175.564 174.298 175.262C174.298 174.961 174.418 174.672 174.631 174.459C174.844 174.246 175.133 174.126 175.435 174.126H218.482C218.783 174.126 219.072 174.246 219.286 174.459C219.499 174.672 219.618 174.961 219.618 175.262C219.618 175.564 219.499 175.853 219.286 176.066C219.072 176.279 218.783 176.399 218.482 176.399Z" fill="#433839"/>
<path d="M218.482 196.102H175.435C175.133 196.102 174.844 195.982 174.631 195.769C174.418 195.556 174.298 195.267 174.298 194.965C174.298 194.664 174.418 194.375 174.631 194.162C174.844 193.949 175.133 193.829 175.435 193.829H218.482C218.783 193.829 219.072 193.949 219.286 194.162C219.499 194.375 219.618 194.664 219.618 194.965C219.618 195.267 219.499 195.556 219.286 195.769C219.072 195.982 218.783 196.102 218.482 196.102Z" fill="#433839"/>
<path d="M218.482 136.999H175.435C175.133 136.999 174.844 136.879 174.631 136.666C174.418 136.453 174.298 136.164 174.298 135.863C174.298 135.561 174.418 135.272 174.631 135.059C174.844 134.846 175.133 134.727 175.435 134.727H218.482C218.783 134.727 219.072 134.846 219.286 135.059C219.499 135.272 219.618 135.561 219.618 135.863C219.618 136.164 219.499 136.453 219.286 136.666C219.072 136.879 218.783 136.999 218.482 136.999Z" fill="#433839"/>
<path d="M218.482 156.695H175.435C175.133 156.695 174.844 156.576 174.631 156.363C174.418 156.149 174.298 155.86 174.298 155.559C174.298 155.258 174.418 154.969 174.631 154.756C174.844 154.543 175.133 154.423 175.435 154.423H218.482C218.783 154.423 219.072 154.543 219.286 154.756C219.499 154.969 219.618 155.258 219.618 155.559C219.618 155.86 219.499 156.149 219.286 156.363C219.072 156.576 218.783 156.695 218.482 156.695Z" fill="#433839"/>
<path d="M218.482 176.399H175.435C175.133 176.399 174.844 176.279 174.631 176.066C174.418 175.853 174.298 175.564 174.298 175.262C174.298 174.961 174.418 174.672 174.631 174.459C174.844 174.246 175.133 174.126 175.435 174.126H218.482C218.783 174.126 219.072 174.246 219.286 174.459C219.499 174.672 219.618 174.961 219.618 175.262C219.618 175.564 219.499 175.853 219.286 176.066C219.072 176.279 218.783 176.399 218.482 176.399Z" fill="#433839"/>
<path d="M218.482 196.102H175.435C175.133 196.102 174.844 195.982 174.631 195.769C174.418 195.556 174.298 195.267 174.298 194.965C174.298 194.664 174.418 194.375 174.631 194.162C174.844 193.949 175.133 193.829 175.435 193.829H218.482C218.783 193.829 219.072 193.949 219.286 194.162C219.499 194.375 219.618 194.664 219.618 194.965C219.618 195.267 219.499 195.556 219.286 195.769C219.072 195.982 218.783 196.102 218.482 196.102Z" fill="#433839"/>
<g opacity="0.2">
<path d="M218.482 117.296H175.435C175.133 117.296 174.844 117.176 174.631 116.963C174.418 116.75 174.299 116.461 174.299 116.16C174.299 115.858 174.418 115.569 174.631 115.356C174.844 115.143 175.133 115.023 175.435 115.023H218.482C218.784 115.023 219.073 115.143 219.286 115.356C219.499 115.569 219.619 115.858 219.619 116.16C219.619 116.461 219.499 116.75 219.286 116.963C219.073 117.176 218.784 117.296 218.482 117.296Z" fill="white"/>
<path d="M218.482 136.999H175.435C175.133 136.999 174.844 136.879 174.631 136.666C174.418 136.453 174.299 136.164 174.299 135.863C174.299 135.561 174.418 135.272 174.631 135.059C174.844 134.846 175.133 134.727 175.435 134.727H218.482C218.784 134.727 219.073 134.846 219.286 135.059C219.499 135.272 219.619 135.561 219.619 135.863C219.619 136.164 219.499 136.453 219.286 136.666C219.073 136.879 218.784 136.999 218.482 136.999Z" fill="white"/>
<path d="M218.482 156.695H175.435C175.133 156.695 174.844 156.576 174.631 156.363C174.418 156.149 174.299 155.86 174.299 155.559C174.299 155.258 174.418 154.969 174.631 154.756C174.844 154.543 175.133 154.423 175.435 154.423H218.482C218.784 154.423 219.073 154.543 219.286 154.756C219.499 154.969 219.619 155.258 219.619 155.559C219.619 155.86 219.499 156.149 219.286 156.363C219.073 156.576 218.784 156.695 218.482 156.695Z" fill="white"/>
<path d="M218.482 176.399H175.435C175.133 176.399 174.844 176.28 174.631 176.067C174.418 175.854 174.299 175.565 174.299 175.263C174.299 174.962 174.418 174.673 174.631 174.46C174.844 174.247 175.133 174.127 175.435 174.127H218.482C218.784 174.127 219.073 174.247 219.286 174.46C219.499 174.673 219.619 174.962 219.619 175.263C219.619 175.565 219.499 175.854 219.286 176.067C219.073 176.28 218.784 176.399 218.482 176.399Z" fill="white"/>
<path d="M218.482 196.102H175.435C175.133 196.102 174.844 195.982 174.631 195.769C174.418 195.556 174.299 195.267 174.299 194.965C174.299 194.664 174.418 194.375 174.631 194.162C174.844 193.949 175.133 193.829 175.435 193.829H218.482C218.784 193.829 219.073 193.949 219.286 194.162C219.499 194.375 219.619 194.664 219.619 194.965C219.619 195.267 219.499 195.556 219.286 195.769C219.073 195.982 218.784 196.102 218.482 196.102Z" fill="white"/>
<path d="M218.482 136.999H175.435C175.133 136.999 174.844 136.879 174.631 136.666C174.418 136.453 174.299 136.164 174.299 135.863C174.299 135.561 174.418 135.272 174.631 135.059C174.844 134.846 175.133 134.727 175.435 134.727H218.482C218.784 134.727 219.073 134.846 219.286 135.059C219.499 135.272 219.619 135.561 219.619 135.863C219.619 136.164 219.499 136.453 219.286 136.666C219.073 136.879 218.784 136.999 218.482 136.999Z" fill="white"/>
<path d="M218.482 156.695H175.435C175.133 156.695 174.844 156.576 174.631 156.363C174.418 156.149 174.299 155.86 174.299 155.559C174.299 155.258 174.418 154.969 174.631 154.756C174.844 154.543 175.133 154.423 175.435 154.423H218.482C218.784 154.423 219.073 154.543 219.286 154.756C219.499 154.969 219.619 155.258 219.619 155.559C219.619 155.86 219.499 156.149 219.286 156.363C219.073 156.576 218.784 156.695 218.482 156.695Z" fill="white"/>
<path d="M218.482 176.399H175.435C175.133 176.399 174.844 176.28 174.631 176.067C174.418 175.854 174.299 175.565 174.299 175.263C174.299 174.962 174.418 174.673 174.631 174.46C174.844 174.247 175.133 174.127 175.435 174.127H218.482C218.784 174.127 219.073 174.247 219.286 174.46C219.499 174.673 219.619 174.962 219.619 175.263C219.619 175.565 219.499 175.854 219.286 176.067C219.073 176.28 218.784 176.399 218.482 176.399Z" fill="white"/>
<path d="M218.482 196.102H175.435C175.133 196.102 174.844 195.982 174.631 195.769C174.418 195.556 174.299 195.267 174.299 194.965C174.299 194.664 174.418 194.375 174.631 194.162C174.844 193.949 175.133 193.829 175.435 193.829H218.482C218.784 193.829 219.073 193.949 219.286 194.162C219.499 194.375 219.619 194.664 219.619 194.965C219.619 195.267 219.499 195.556 219.286 195.769C219.073 195.982 218.784 196.102 218.482 196.102Z" fill="white"/>
</g>
<path d="M218.482 200.572C218.181 200.572 217.892 200.453 217.679 200.24C217.466 200.027 217.346 199.738 217.346 199.436V114.273C217.346 113.972 217.466 113.683 217.679 113.47C217.892 113.256 218.181 113.137 218.482 113.137C218.784 113.137 219.073 113.256 219.286 113.47C219.499 113.683 219.618 113.972 219.618 114.273V199.436C219.618 199.738 219.499 200.027 219.286 200.24C219.073 200.453 218.784 200.572 218.482 200.572Z" fill="#433839"/>
<path d="M218.482 116.483H175.435C175.133 116.483 174.844 116.364 174.631 116.151C174.418 115.938 174.298 115.649 174.298 115.347C174.298 115.046 174.418 114.757 174.631 114.544C174.844 114.331 175.133 114.211 175.435 114.211H218.482C218.783 114.211 219.072 114.331 219.286 114.544C219.499 114.757 219.618 115.046 219.618 115.347C219.618 115.649 219.499 115.938 219.286 116.151C219.072 116.364 218.783 116.483 218.482 116.483Z" fill="#433839"/>
<path d="M6.14237 200.573C5.84101 200.573 5.552 200.453 5.33891 200.24C5.12582 200.027 5.0061 199.738 5.0061 199.436V115.46C5.0061 115.159 5.12582 114.87 5.33891 114.657C5.552 114.444 5.84101 114.324 6.14237 114.324C6.44373 114.324 6.73274 114.444 6.94583 114.657C7.15893 114.87 7.27864 115.159 7.27864 115.46V199.436C7.27864 199.738 7.15893 200.027 6.94583 200.24C6.73274 200.453 6.44373 200.573 6.14237 200.573Z" fill="#433839"/>
<g opacity="0.2">
<path d="M6.14237 200.573C5.84101 200.573 5.552 200.453 5.33891 200.24C5.12582 200.027 5.0061 199.738 5.0061 199.436V115.46C5.0061 115.159 5.12582 114.87 5.33891 114.657C5.552 114.444 5.84101 114.324 6.14237 114.324C6.44373 114.324 6.73274 114.444 6.94583 114.657C7.15893 114.87 7.27864 115.159 7.27864 115.46V199.436C7.27864 199.738 7.15893 200.027 6.94583 200.24C6.73274 200.453 6.44373 200.573 6.14237 200.573Z" fill="white"/>
</g>
<path d="M176.571 41.1031V113.733H174.298V41.1031C174.298 40.8017 174.418 40.5127 174.631 40.2996C174.844 40.0865 175.133 39.9668 175.435 39.9668C175.736 39.9668 176.025 40.0865 176.238 40.2996C176.451 40.5127 176.571 40.8017 176.571 41.1031Z" fill="#433839"/>
<path opacity="0.4" d="M176.571 41.1031V113.733H174.298V41.1031C174.298 40.8017 174.418 40.5127 174.631 40.2996C174.844 40.0865 175.133 39.9668 175.435 39.9668C175.736 39.9668 176.025 40.0865 176.238 40.2996C176.451 40.5127 176.571 40.8017 176.571 41.1031Z" fill="white"/>
<path d="M218.482 45.6026H175.435C175.133 45.6026 174.844 45.4829 174.631 45.2698C174.418 45.0567 174.298 44.7677 174.298 44.4663C174.298 44.165 174.418 43.876 174.631 43.6629C174.844 43.4498 175.133 43.3301 175.435 43.3301H218.482C218.783 43.3301 219.072 43.4498 219.286 43.6629C219.499 43.876 219.618 44.165 219.618 44.4663C219.618 44.7677 219.499 45.0567 219.286 45.2698C219.072 45.4829 218.783 45.6026 218.482 45.6026Z" fill="#433839"/>
<path d="M218.482 80.4346H175.435C175.133 80.4346 174.844 80.3149 174.631 80.1018C174.418 79.8887 174.298 79.5997 174.298 79.2984C174.298 78.997 174.418 78.708 174.631 78.4949C174.844 78.2818 175.133 78.1621 175.435 78.1621H218.482C218.783 78.1621 219.072 78.2818 219.286 78.4949C219.499 78.708 219.618 78.997 219.618 79.2984C219.618 79.5997 219.499 79.8887 219.286 80.1018C219.072 80.3149 218.783 80.4346 218.482 80.4346Z" fill="#433839"/>
<g opacity="0.2">
<path d="M218.482 45.6036H175.435C175.133 45.6036 174.844 45.4839 174.631 45.2708C174.418 45.0577 174.299 44.7687 174.299 44.4673C174.299 44.166 174.418 43.877 174.631 43.6639C174.844 43.4508 175.133 43.3311 175.435 43.3311H218.482C218.784 43.3311 219.073 43.4508 219.286 43.6639C219.499 43.877 219.619 44.166 219.619 44.4673C219.619 44.7687 219.499 45.0577 219.286 45.2708C219.073 45.4839 218.784 45.6036 218.482 45.6036Z" fill="white"/>
</g>
<g opacity="0.2">
<path d="M218.482 80.4356H175.435C175.133 80.4356 174.844 80.3159 174.631 80.1028C174.418 79.8897 174.299 79.6007 174.299 79.2994C174.299 78.998 174.418 78.709 174.631 78.4959C174.844 78.2828 175.133 78.1631 175.435 78.1631H218.482C218.784 78.1631 219.073 78.2828 219.286 78.4959C219.499 78.709 219.619 78.998 219.619 79.2994C219.619 79.6007 219.499 79.8897 219.286 80.1028C219.073 80.3159 218.784 80.4356 218.482 80.4356Z" fill="white"/>
</g>
<path d="M176.406 48.5178H148.96C148.942 48.3001 148.843 48.0971 148.683 47.949C148.522 47.801 148.312 47.7188 148.093 47.7188C147.875 47.7188 147.665 47.801 147.504 47.949C147.344 48.0971 147.245 48.3001 147.227 48.5178H39.5202C39.4807 48.3209 39.3742 48.1438 39.2188 48.0166C39.0635 47.8893 38.8688 47.8198 38.668 47.8198C38.4672 47.8198 38.2726 47.8893 38.1173 48.0166C37.9619 48.1438 37.8554 48.3209 37.8158 48.5178H5.3186V74.436H37.7647C37.8043 74.6329 37.9108 74.81 38.0661 74.9372C38.2215 75.0645 38.4161 75.134 38.6169 75.134C38.8177 75.134 39.0123 75.0645 39.1677 74.9372C39.323 74.81 39.4295 74.6329 39.4691 74.436H147.227C147.245 74.6537 147.344 74.8568 147.504 75.0048C147.665 75.1529 147.875 75.2351 148.093 75.2351C148.312 75.2351 148.522 75.1529 148.683 75.0048C148.843 74.8568 148.942 74.6537 148.96 74.436H176.406V48.5178ZM7.05141 72.7316V50.2222H37.7647V72.7316H7.05141ZM39.4975 72.7316V50.2222H147.227V72.7316H39.4975ZM174.674 72.7316H148.96V50.2222H174.674V72.7316Z" fill="#433839"/>
<path opacity="0.4" d="M176.406 48.5178H148.96C148.942 48.3001 148.843 48.0971 148.683 47.949C148.522 47.801 148.312 47.7188 148.093 47.7188C147.875 47.7188 147.665 47.801 147.504 47.949C147.344 48.0971 147.245 48.3001 147.227 48.5178H39.5202C39.4807 48.3209 39.3742 48.1438 39.2188 48.0166C39.0635 47.8893 38.8688 47.8198 38.668 47.8198C38.4672 47.8198 38.2726 47.8893 38.1173 48.0166C37.9619 48.1438 37.8554 48.3209 37.8158 48.5178H5.3186V74.436H37.7647C37.8043 74.6329 37.9108 74.81 38.0661 74.9372C38.2215 75.0645 38.4161 75.134 38.6169 75.134C38.8177 75.134 39.0123 75.0645 39.1677 74.9372C39.323 74.81 39.4295 74.6329 39.4691 74.436H147.227C147.245 74.6537 147.344 74.8568 147.504 75.0048C147.665 75.1529 147.875 75.2351 148.093 75.2351C148.312 75.2351 148.522 75.1529 148.683 75.0048C148.843 74.8568 148.942 74.6537 148.96 74.436H176.406V48.5178ZM7.05141 72.7316V50.2222H37.7647V72.7316H7.05141ZM39.4975 72.7316V50.2222H147.227V72.7316H39.4975ZM174.674 72.7316H148.96V50.2222H174.674V72.7316Z" fill="white"/>
<path d="M6.14237 117.295C5.84101 117.295 5.552 117.176 5.33891 116.963C5.12582 116.75 5.0061 116.461 5.0061 116.159V41.1031C5.0061 40.8017 5.12582 40.5127 5.33891 40.2996C5.552 40.0865 5.84101 39.9668 6.14237 39.9668C6.44373 39.9668 6.73274 40.0865 6.94583 40.2996C7.15893 40.5127 7.27864 40.8017 7.27864 41.1031V116.159C7.27864 116.461 7.15893 116.75 6.94583 116.963C6.73274 117.176 6.44373 117.295 6.14237 117.295Z" fill="#433839"/>
<g opacity="0.2">
<path d="M6.14213 117.296C5.84077 117.296 5.55175 117.177 5.33866 116.964C5.12557 116.751 5.00586 116.462 5.00586 116.16V41.104C5.00586 40.8027 5.12557 40.5137 5.33866 40.3006C5.55175 40.0875 5.84077 39.9678 6.14213 39.9678C6.44348 39.9678 6.7325 40.0875 6.94559 40.3006C7.15868 40.5137 7.27839 40.8027 7.27839 41.104V116.16C7.27839 116.462 7.15868 116.751 6.94559 116.964C6.7325 117.177 6.44348 117.296 6.14213 117.296Z" fill="white"/>
</g>
<path d="M218.482 116.483C218.181 116.483 217.892 116.363 217.679 116.15C217.466 115.937 217.346 115.648 217.346 115.347V41.1031C217.346 40.8017 217.466 40.5127 217.679 40.2996C217.892 40.0865 218.181 39.9668 218.482 39.9668C218.784 39.9668 219.073 40.0865 219.286 40.2996C219.499 40.5127 219.618 40.8017 219.618 41.1031V115.358C219.615 115.658 219.494 115.944 219.282 116.154C219.069 116.365 218.782 116.483 218.482 116.483Z" fill="#433839"/>
<path d="M218.556 113.733H6.67627V118.602H218.556V113.733Z" fill="#263238"/>
<path d="M49.1785 117.295H6.14237C5.84101 117.295 5.552 117.175 5.33891 116.962C5.12582 116.749 5.0061 116.46 5.0061 116.159C5.0061 115.857 5.12582 115.568 5.33891 115.355C5.552 115.142 5.84101 115.022 6.14237 115.022H49.1785C49.4798 115.022 49.7689 115.142 49.9819 115.355C50.195 115.568 50.3148 115.857 50.3148 116.159C50.3148 116.46 50.195 116.749 49.9819 116.962C49.7689 117.175 49.4798 117.295 49.1785 117.295Z" fill="#433839"/>
<path d="M49.1785 136.999H6.14237C5.84101 136.999 5.552 136.879 5.33891 136.666C5.12582 136.453 5.0061 136.164 5.0061 135.863C5.0061 135.561 5.12582 135.272 5.33891 135.059C5.552 134.846 5.84101 134.727 6.14237 134.727H49.1785C49.4798 134.727 49.7689 134.846 49.9819 135.059C50.195 135.272 50.3148 135.561 50.3148 135.863C50.3148 136.164 50.195 136.453 49.9819 136.666C49.7689 136.879 49.4798 136.999 49.1785 136.999Z" fill="#433839"/>
<path d="M49.1785 156.695H6.14237C5.84101 156.695 5.552 156.576 5.33891 156.363C5.12582 156.149 5.0061 155.86 5.0061 155.559C5.0061 155.258 5.12582 154.969 5.33891 154.756C5.552 154.543 5.84101 154.423 6.14237 154.423H49.1785C49.4798 154.423 49.7689 154.543 49.9819 154.756C50.195 154.969 50.3148 155.258 50.3148 155.559C50.3148 155.86 50.195 156.149 49.9819 156.363C49.7689 156.576 49.4798 156.695 49.1785 156.695Z" fill="#433839"/>
<path d="M49.1785 176.399H6.14237C5.84101 176.399 5.552 176.279 5.33891 176.066C5.12582 175.853 5.0061 175.564 5.0061 175.262C5.0061 174.961 5.12582 174.672 5.33891 174.459C5.552 174.246 5.84101 174.126 6.14237 174.126H49.1785C49.4798 174.126 49.7689 174.246 49.9819 174.459C50.195 174.672 50.3148 174.961 50.3148 175.262C50.3148 175.564 50.195 175.853 49.9819 176.066C49.7689 176.279 49.4798 176.399 49.1785 176.399Z" fill="#433839"/>
<path d="M49.1785 196.102H6.14237C5.84101 196.102 5.552 195.982 5.33891 195.769C5.12582 195.556 5.0061 195.267 5.0061 194.965C5.0061 194.664 5.12582 194.375 5.33891 194.162C5.552 193.949 5.84101 193.829 6.14237 193.829H49.1785C49.4798 193.829 49.7689 193.949 49.9819 194.162C50.195 194.375 50.3148 194.664 50.3148 194.965C50.3148 195.267 50.195 195.556 49.9819 195.769C49.7689 195.982 49.4798 196.102 49.1785 196.102Z" fill="#433839"/>
<path d="M49.1785 200.572C48.8771 200.572 48.5881 200.453 48.375 200.24C48.1619 200.027 48.0422 199.738 48.0422 199.436V114.273C48.0422 113.972 48.1619 113.683 48.375 113.47C48.5881 113.256 48.8771 113.137 49.1785 113.137C49.4799 113.137 49.7689 113.256 49.982 113.47C50.1951 113.683 50.3148 113.972 50.3148 114.273V199.436C50.3148 199.738 50.1951 200.027 49.982 200.24C49.7689 200.453 49.4799 200.572 49.1785 200.572Z" fill="#433839"/>
<path d="M49.1784 45.6026H7.2786C6.97724 45.6026 6.68823 45.4829 6.47514 45.2698C6.26205 45.0567 6.14233 44.7677 6.14233 44.4663C6.14233 44.165 6.26205 43.876 6.47514 43.6629C6.68823 43.4498 6.97724 43.3301 7.2786 43.3301H49.1784C49.4798 43.3301 49.7688 43.4498 49.9819 43.6629C50.195 43.876 50.3147 44.165 50.3147 44.4663C50.3147 44.7677 50.195 45.0567 49.9819 45.2698C49.7688 45.4829 49.4798 45.6026 49.1784 45.6026Z" fill="#433839"/>
<path d="M49.1784 80.4346H6.67631C6.37495 80.4346 6.08593 80.3149 5.87284 80.1018C5.65975 79.8887 5.54004 79.5997 5.54004 79.2984C5.54004 78.997 5.65975 78.708 5.87284 78.4949C6.08593 78.2818 6.37495 78.1621 6.67631 78.1621H49.1784C49.4797 78.1621 49.7687 78.2818 49.9818 78.4949C50.1949 78.708 50.3146 78.997 50.3146 79.2984C50.3146 79.5997 50.1949 79.8887 49.9818 80.1018C49.7687 80.3149 49.4797 80.4346 49.1784 80.4346Z" fill="#433839"/>
<path d="M49.1785 122.346C48.8771 122.346 48.5881 122.226 48.375 122.013C48.1619 121.8 48.0422 121.511 48.0422 121.21V41.1031C48.0422 40.8017 48.1619 40.5127 48.375 40.2996C48.5881 40.0865 48.8771 39.9668 49.1785 39.9668C49.4799 39.9668 49.7689 40.0865 49.982 40.2996C50.1951 40.5127 50.3148 40.8017 50.3148 41.1031V121.21C50.3148 121.511 50.1951 121.8 49.982 122.013C49.7689 122.226 49.4799 122.346 49.1785 122.346Z" fill="#433839"/>
<path d="M218.482 196.101C218.353 196.103 218.224 196.082 218.102 196.039L48.4569 136.226C48.3116 136.18 48.1769 136.105 48.0609 136.006C47.945 135.907 47.8501 135.786 47.782 135.65C47.7139 135.513 47.674 135.365 47.6645 135.213C47.6551 135.06 47.6764 134.908 47.7271 134.764C47.7778 134.62 47.8569 134.488 47.9597 134.376C48.0626 134.263 48.187 134.172 48.3256 134.109C48.4642 134.046 48.6141 134.011 48.7665 134.006C48.9189 134.002 49.0706 134.028 49.2126 134.084L218.84 193.897C219.09 193.988 219.301 194.164 219.435 194.394C219.569 194.624 219.618 194.893 219.573 195.156C219.528 195.418 219.393 195.657 219.19 195.829C218.988 196.002 218.731 196.098 218.465 196.101H218.482Z" fill="#433839"/>
<path d="M49.1784 196.101C48.9113 196.101 48.6528 196.007 48.4484 195.835C48.244 195.663 48.1066 195.424 48.0605 195.161C48.0144 194.898 48.0625 194.627 48.1962 194.396C48.33 194.165 48.541 193.988 48.7921 193.897L217.823 133.039C218.105 132.936 218.416 132.948 218.689 133.074C218.961 133.2 219.173 133.428 219.278 133.709C219.378 133.992 219.363 134.303 219.235 134.574C219.107 134.845 218.878 135.055 218.596 135.158L49.5477 196.039C49.4289 196.08 49.3041 196.101 49.1784 196.101Z" fill="#433839"/>
<g opacity="0.1">
<path d="M49.1784 196.101C48.9113 196.101 48.6528 196.007 48.4484 195.835C48.244 195.663 48.1066 195.424 48.0605 195.161C48.0144 194.898 48.0625 194.627 48.1962 194.396C48.33 194.165 48.541 193.988 48.7921 193.897L217.823 133.039C218.105 132.936 218.416 132.948 218.689 133.074C218.961 133.2 219.173 133.428 219.278 133.709C219.378 133.992 219.363 134.303 219.235 134.574C219.107 134.845 218.878 135.055 218.596 135.158L49.5477 196.039C49.4289 196.08 49.3041 196.101 49.1784 196.101Z" fill="white"/>
</g>
<path opacity="0.1" d="M65.3306 16.3269C65.3306 16.4764 65.2863 16.6224 65.2032 16.7467C65.1202 16.871 65.0022 16.9678 64.8641 17.025C64.726 17.0822 64.5741 17.0972 64.4275 17.068C64.281 17.0389 64.1463 16.9669 64.0406 16.8612C63.935 16.7555 63.863 16.6209 63.8339 16.4743C63.8047 16.3277 63.8197 16.1758 63.8769 16.0377C63.934 15.8997 64.0309 15.7817 64.1551 15.6986C64.2794 15.6156 64.4255 15.5713 64.575 15.5713C64.7749 15.5728 64.9662 15.6529 65.1076 15.7942C65.249 15.9356 65.3291 16.127 65.3306 16.3269Z" fill="white"/>
<path d="M82.4312 75.5773C82.1298 75.5773 81.8408 75.4576 81.6277 75.2445C81.4146 75.0314 81.2949 74.7424 81.2949 74.4411V48.5171C81.2949 48.2158 81.4146 47.9268 81.6277 47.7137C81.8408 47.5006 82.1298 47.3809 82.4312 47.3809C82.7325 47.3809 83.0216 47.5006 83.2347 47.7137C83.4477 47.9268 83.5675 48.2158 83.5675 48.5171V74.4411C83.5675 74.7424 83.4477 75.0314 83.2347 75.2445C83.0216 75.4576 82.7325 75.5773 82.4312 75.5773Z" fill="#433839"/>
<path d="M189.348 75.5773C189.047 75.5773 188.758 75.4576 188.545 75.2445C188.332 75.0314 188.212 74.7424 188.212 74.4411V48.5171C188.212 48.2158 188.332 47.9268 188.545 47.7137C188.758 47.5006 189.047 47.3809 189.348 47.3809C189.65 47.3809 189.939 47.5006 190.152 47.7137C190.365 47.9268 190.484 48.2158 190.484 48.5171V74.4411C190.484 74.7424 190.365 75.0314 190.152 75.2445C189.939 75.4576 189.65 75.5773 189.348 75.5773Z" fill="#433839"/>
<path d="M217.215 48.5177V74.4359H50.6102V48.5177H217.215ZM217.215 46.2451H50.6102C50.0075 46.2451 49.4294 46.4845 49.0033 46.9107C48.5771 47.3369 48.3376 47.9149 48.3376 48.5177V74.4359C48.3376 75.0386 48.5771 75.6166 49.0033 76.0428C49.4294 76.469 50.0075 76.7084 50.6102 76.7084H217.215C217.818 76.7084 218.396 76.469 218.822 76.0428C219.248 75.6166 219.488 75.0386 219.488 74.4359V48.5177C219.488 47.9149 219.248 47.3369 218.822 46.9107C218.396 46.4845 217.818 46.2451 217.215 46.2451Z" fill="#433839"/>
</svg>
