<svg width="76" height="76" viewBox="0 0 76 76" fill="none" xmlns="http://www.w3.org/2000/svg">
<path d="M22.8929 34.3728L21.7017 28.293H25.9433L26.6365 40.4525L22.8929 34.3728Z" fill="#67DDE0"/>
<path d="M27.5258 43.283L22.2051 34.6419L20.8186 27.5664H26.63L27.5258 43.283ZM23.5806 34.1039L25.7471 37.6221L25.2567 29.0199H22.5845L23.5806 34.1039Z" fill="#4D5152"/>
<path d="M27.2124 38.1852L26.6365 19.6113H31.6759V39.733L27.2124 38.1852Z" fill="#67DDE0"/>
<path d="M32.4026 40.7546L26.5015 38.708L25.8865 18.8848H32.4026V40.7546ZM27.9231 37.6625L30.9491 38.7119V20.3383H27.3858L27.9231 37.6625Z" fill="#4D5152"/>
<path d="M31.2439 31.1004L30.0132 9.2041L36.2834 11.3927V41.1612L31.2439 40.1534V31.1004Z" fill="#67DDE0"/>
<path d="M37.0101 42.0481L30.5169 40.7496V31.1212L29.2263 8.16016L37.0101 10.8771V42.0481H37.0101ZM31.9706 39.5579L35.5566 40.2752V11.9091L30.7999 10.249L31.9706 31.101V39.5579Z" fill="#4D5152"/>
<path d="M36.2832 31.875V16.0059L41.3226 17.0518V39.9761L36.2832 39.1645V31.875Z" fill="#67DDE0"/>
<path d="M42.0495 40.8299L35.5564 39.7845V15.1133L42.0495 16.4607V40.8299ZM37.01 38.546L40.596 39.1237V17.6439L37.01 16.8997V38.546Z" fill="#4D5152"/>
<path d="M44.0583 31.875V16.0059H50.161L49.0978 39.9761L44.0583 39.1645V31.875Z" fill="#67DDE0"/>
<path d="M49.7877 40.8238L43.3318 39.784V15.2793H50.9208L49.7877 40.8238ZM44.7853 38.5455L48.4079 39.1293L49.4012 16.7328H44.7853V38.5455Z" fill="#4D5152"/>
<path d="M47.4265 37.5172L48.4237 21.5098H54.4684L53.1145 45.4801L47.4265 44.8067V37.5172Z" fill="#67DDE0"/>
<path d="M53.7966 46.2929L46.6995 45.453L46.7009 37.4722L47.7406 20.7832H55.2373L53.7966 46.2929ZM48.153 44.1612L52.4324 44.6677L53.6993 22.2368H49.1062L48.1529 37.54V44.1612H48.153Z" fill="#4D5152"/>
<path d="M38.083 34.7964V24.6504H43.1224V39.9759L38.083 39.457V34.7964Z" fill="#67DDE0"/>
<path d="M43.8492 40.7817L37.3564 40.1132V23.9238H43.8492V40.7817ZM38.81 38.8015L42.3957 39.1705V25.3773H38.81V38.8015Z" fill="#4D5152"/>
<path d="M40.6028 42.2162V32.0703H45.6422V47.3958L40.6028 46.8769V42.2162Z" fill="#67DDE0"/>
<path d="M46.3691 48.2013L39.876 47.5328V31.3438H46.3691V48.2013ZM41.3295 46.2211L44.9156 46.5901V32.7973H41.3295V46.2211Z" fill="#4D5152"/>
<path d="M33.0437 40.8619V31.8145H38.0831V45.4806L33.0437 45.0179V40.8619Z" fill="#67DDE0"/>
<path d="M38.81 46.2756L32.3169 45.6794V31.0859H38.81V46.2756ZM33.7705 44.3528L37.3565 44.6821V32.5395H33.7705V44.3528Z" fill="#4D5152"/>
<path d="M16.7156 33.707C16.7156 33.707 20.9926 66.368 21.8409 66.368C22.6892 66.368 48.9877 68.0647 54.2898 66.368C54.2898 66.368 60.0654 39.25 59.4292 34.3721L53.4415 33.707C53.4415 33.707 40.7164 47.4925 22.9013 33.707H16.7156Z" fill="#FFB957"/>
<path d="M43.8218 67.8531C38.7127 67.8531 31.909 67.6253 23.3445 67.17C22.4886 67.1245 21.9538 67.0954 21.8409 67.0951C20.9967 67.0951 20.6808 67.0951 18.2407 50.1414C17.0781 42.0652 16.0054 33.8836 15.9947 33.8019L15.8872 32.9808H23.1497L23.3459 33.1326C40.4044 46.3336 52.4051 33.7554 52.908 33.2139L53.1571 32.9453L60.0761 33.7132L60.1499 34.2785C60.7947 39.2233 55.2377 65.4073 55.0007 66.5199L54.913 66.9323L54.5113 67.0607C52.8598 67.589 49.3234 67.8531 43.8218 67.8531ZM22.2913 65.6599C22.5624 65.6731 22.9446 65.6933 23.4219 65.7185C43.8187 66.803 51.1837 66.3853 53.6699 65.7863C54.3751 62.4313 58.9231 40.547 58.7499 35.0284L53.7072 34.4684C51.7455 36.3517 39.2674 47.1267 22.6543 34.4343H17.5441C19.0318 45.7313 21.4751 62.9923 22.2913 65.6599Z" fill="#4D5152"/>
<path d="M26.177 48.6605C26.177 52.2244 27.4692 55.6424 29.7695 58.1625C32.0697 60.6825 35.1894 62.0983 38.4424 62.0983C41.6954 62.0983 44.8151 60.6825 47.1154 58.1625C49.4156 55.6424 50.7078 52.2244 50.7078 48.6605C50.7078 46.8958 50.3906 45.1484 49.7742 43.518C49.1578 41.8877 48.2543 40.4063 47.1154 39.1585C44.8151 36.6384 41.6954 35.2227 38.4424 35.2227C35.1894 35.2227 32.0697 36.6384 29.7695 39.1585C27.4692 41.6786 26.177 45.0965 26.177 48.6605Z" fill="#FBFADD"/>
<path d="M28.896 48.5544L29.9978 52.4184C29.9978 52.4184 32.6911 53.0221 33.548 52.4184L34.1601 48.5544H36.1189V52.6867C36.1189 52.6867 39.5467 52.955 40.0364 52.6867C40.5261 52.4184 40.5261 48.5544 40.5261 48.5544H43.2194L43.9539 52.806H47.2593V48.5544C47.2593 48.5544 50.8096 47.8299 50.8096 48.5544C50.8096 49.2789 50.8096 59.6633 42.7297 54.8333L34.5274 54.5919C34.5274 54.5919 25.8354 60.3475 26.0803 48.2324L28.896 48.5544Z" fill="#67DDE0"/>
</svg>
